<?xml version="1.0" encoding="utf-8"?>
<!-- Generator: Adobe Illustrator 27.2.0, SVG Export Plug-In . SVG Version: 6.00 Build 0)  -->
<svg version="1.1" id="Layer_1" xmlns="http://www.w3.org/2000/svg" xmlns:xlink="http://www.w3.org/1999/xlink" x="0px" y="0px"
	 viewBox="0 0 568 292" style="enable-background:new 0 0 568 292;" xml:space="preserve">
<style type="text/css">
	.st0{fill:#FFFFFF;}
	.st1{fill:#FF8500;}
	.st2{fill:#37383C;}
	.st3{fill:#CCEEED;}
	.st4{fill:#005E5C;}
	.st5{clip-path:url(#SVGID_00000107583798707182542660000001587688114423880378_);}
	.st6{fill:#002F2E;}
</style>
<g>
	<path class="st0" d="M2,88C2,40.5,40.5,2,88,2h478v182c0,47.5-38.5,86-86,86H2V88z"/>
	<path class="st1" d="M480,272H0V88C0,39.5,39.5,0,88,0h480v184C568,232.5,528.5,272,480,272z M4,268h476c46.3,0,84-37.7,84-84V4H88
		C41.7,4,4,41.7,4,88V268z"/>
</g>
<path class="st2" d="M46.8,139.3c-1.2,0-2.2-0.2-3.1-0.6s-1.5-1-2-1.8s-0.7-1.7-0.7-2.7h2c0,0.6,0.1,1.2,0.4,1.7
	c0.3,0.5,0.7,0.9,1.3,1.3c0.6,0.3,1.3,0.5,2.1,0.5c1.1,0,1.9-0.3,2.5-0.8c0.6-0.5,0.9-1.2,0.9-2c0-0.6-0.1-1.2-0.4-1.5
	c-0.3-0.4-0.7-0.7-1.1-1c-0.5-0.2-1-0.5-1.6-0.6c-0.6-0.2-1.2-0.4-1.9-0.6c-1.2-0.4-2.2-1-2.8-1.6c-0.6-0.6-0.9-1.5-0.9-2.5
	c0-0.9,0.2-1.6,0.6-2.3c0.4-0.7,1-1.2,1.7-1.6c0.8-0.4,1.7-0.6,2.7-0.6c1,0,1.9,0.2,2.7,0.6c0.8,0.4,1.4,0.9,1.8,1.6
	c0.4,0.7,0.7,1.4,0.7,2.3h-2c0-0.4-0.1-0.9-0.3-1.3c-0.2-0.4-0.6-0.8-1.1-1.1c-0.5-0.3-1-0.4-1.7-0.4c-0.9,0-1.6,0.2-2.2,0.7
	c-0.6,0.5-0.8,1.1-0.8,1.9c0,0.7,0.2,1.2,0.6,1.6c0.4,0.4,1,0.7,1.7,0.9c0.7,0.2,1.5,0.5,2.4,0.8c0.8,0.3,1.5,0.6,2.1,1
	s1.1,0.8,1.4,1.4c0.4,0.6,0.5,1.3,0.5,2.2c0,0.8-0.2,1.5-0.6,2.2c-0.4,0.7-1,1.2-1.8,1.7C49,139.1,48,139.3,46.8,139.3z M58.7,139.3
	c-1,0-1.7-0.2-2.4-0.5c-0.6-0.3-1.1-0.8-1.4-1.3c-0.3-0.5-0.5-1.1-0.5-1.7c0-1.2,0.4-2.1,1.3-2.7c0.9-0.6,2.1-0.9,3.6-0.9h3.1V132
	c0-1-0.3-1.7-0.8-2.3c-0.5-0.5-1.2-0.8-2.1-0.8c-0.8,0-1.4,0.2-2,0.6c-0.5,0.4-0.9,0.9-1,1.6h-2c0.1-0.8,0.4-1.5,0.8-2.1
	c0.5-0.6,1.1-1,1.8-1.3c0.7-0.3,1.5-0.5,2.3-0.5c1.6,0,2.8,0.4,3.6,1.3c0.8,0.8,1.2,2,1.2,3.4v7h-1.7l-0.1-2
	c-0.3,0.6-0.8,1.2-1.4,1.7C60.5,139.1,59.7,139.3,58.7,139.3z M59,137.6c0.7,0,1.4-0.2,1.9-0.6c0.5-0.4,0.9-0.9,1.2-1.5
	c0.3-0.6,0.4-1.3,0.4-1.9v0h-2.9c-1.1,0-1.9,0.2-2.4,0.6c-0.5,0.4-0.7,0.9-0.7,1.4c0,0.6,0.2,1.1,0.6,1.4
	C57.6,137.5,58.2,137.6,59,137.6z M67.3,139v-11.4h1.7l0.1,1.7c0.4-0.6,0.9-1.1,1.5-1.4c0.6-0.3,1.3-0.5,2.1-0.5
	c0.9,0,1.7,0.2,2.3,0.6c0.7,0.4,1.2,0.9,1.5,1.7c0.4-0.7,0.9-1.2,1.6-1.6c0.7-0.4,1.5-0.6,2.3-0.6c1.4,0,2.5,0.4,3.3,1.2
	c0.8,0.8,1.2,2.1,1.2,3.8v6.7h-1.9v-6.5c0-1.2-0.2-2.1-0.7-2.7c-0.5-0.6-1.2-0.9-2-0.9c-0.9,0-1.7,0.4-2.3,1.1
	c-0.6,0.7-0.9,1.7-0.9,3v5.9h-1.9v-6.5c0-1.2-0.2-2.1-0.7-2.7c-0.5-0.6-1.2-0.9-2-0.9c-0.9,0-1.7,0.4-2.3,1.1
	c-0.6,0.7-0.9,1.7-0.9,3v5.9H67.3z M93,139.3c-1.1,0-2.1-0.2-2.9-0.7c-0.8-0.5-1.5-1.2-2-2.1c-0.5-0.9-0.7-1.9-0.7-3.2
	c0-1.2,0.2-2.2,0.7-3.1c0.5-0.9,1.1-1.6,2-2.1c0.9-0.5,1.8-0.8,3-0.8c1.1,0,2.1,0.3,2.9,0.8c0.8,0.5,1.4,1.1,1.9,2
	c0.4,0.8,0.6,1.7,0.6,2.6c0,0.2,0,0.3,0,0.5c0,0.2,0,0.4,0,0.6h-9.1c0,0.9,0.2,1.6,0.6,2.2c0.4,0.6,0.8,1,1.4,1.3
	c0.6,0.3,1.1,0.4,1.7,0.4c0.8,0,1.5-0.2,2-0.6c0.5-0.4,0.9-0.9,1.2-1.5h1.9c-0.3,1.1-0.9,1.9-1.8,2.6
	C95.5,138.9,94.4,139.3,93,139.3z M93,128.9c-0.9,0-1.7,0.3-2.5,0.9c-0.7,0.6-1.1,1.4-1.2,2.4h7.2c0-1-0.4-1.8-1.1-2.4
	C94.8,129.2,94,128.9,93,128.9z M107.1,139v-11.4h1.7l0.1,1.7c0.4-0.6,0.9-1.1,1.5-1.4s1.3-0.5,2.1-0.5c0.9,0,1.7,0.2,2.3,0.6
	c0.7,0.4,1.2,0.9,1.5,1.7c0.4-0.7,0.9-1.2,1.6-1.6c0.7-0.4,1.5-0.6,2.3-0.6c1.4,0,2.5,0.4,3.3,1.2c0.8,0.8,1.2,2.1,1.2,3.8v6.7h-1.9
	v-6.5c0-1.2-0.2-2.1-0.7-2.7c-0.5-0.6-1.2-0.9-2-0.9c-0.9,0-1.7,0.4-2.3,1.1c-0.6,0.7-0.9,1.7-0.9,3v5.9h-1.9v-6.5
	c0-1.2-0.2-2.1-0.7-2.7c-0.5-0.6-1.2-0.9-2-0.9c-0.9,0-1.7,0.4-2.3,1.1c-0.6,0.7-0.9,1.7-0.9,3v5.9H107.1z M128.8,125.1
	c-0.4,0-0.7-0.1-1-0.4c-0.2-0.3-0.4-0.6-0.4-1c0-0.4,0.1-0.7,0.4-0.9c0.3-0.2,0.6-0.4,1-0.4c0.4,0,0.7,0.1,0.9,0.4
	c0.3,0.2,0.4,0.6,0.4,0.9c0,0.4-0.1,0.7-0.4,1C129.5,124.9,129.2,125.1,128.8,125.1z M127.9,139v-11.4h1.9V139H127.9z M137.5,139.3
	c-1.4,0-2.5-0.3-3.4-1c-0.9-0.7-1.4-1.6-1.6-2.8h2c0.1,0.6,0.4,1.1,0.9,1.6c0.5,0.4,1.2,0.6,2.1,0.6c0.8,0,1.4-0.2,1.8-0.5
	c0.4-0.4,0.6-0.8,0.6-1.2c0-0.7-0.3-1.2-0.8-1.4c-0.5-0.2-1.2-0.4-2.1-0.6c-0.6-0.1-1.2-0.3-1.8-0.5c-0.6-0.2-1.1-0.6-1.5-1
	c-0.4-0.4-0.6-1-0.6-1.7c0-1,0.4-1.8,1.1-2.4c0.8-0.6,1.8-1,3-1c1.2,0,2.2,0.3,3,0.9c0.8,0.6,1.2,1.5,1.4,2.6h-1.9
	c-0.1-0.6-0.3-1-0.8-1.4c-0.4-0.3-1-0.5-1.7-0.5c-0.7,0-1.2,0.1-1.6,0.4c-0.4,0.3-0.6,0.7-0.6,1.1c0,0.5,0.2,0.8,0.7,1.1
	c0.5,0.3,1.2,0.5,2,0.7c0.7,0.2,1.4,0.3,2,0.6c0.6,0.2,1.2,0.5,1.6,1c0.4,0.4,0.6,1.1,0.6,1.9c0,1-0.4,1.9-1.2,2.6
	C139.9,138.9,138.9,139.3,137.5,139.3z M149,139.3c-1.4,0-2.5-0.3-3.4-1c-0.9-0.7-1.4-1.6-1.6-2.8h2c0.1,0.6,0.4,1.1,0.9,1.6
	c0.5,0.4,1.2,0.6,2.1,0.6c0.8,0,1.4-0.2,1.8-0.5c0.4-0.4,0.6-0.8,0.6-1.2c0-0.7-0.3-1.2-0.8-1.4c-0.5-0.2-1.2-0.4-2.1-0.6
	c-0.6-0.1-1.2-0.3-1.8-0.5c-0.6-0.2-1.1-0.6-1.5-1c-0.4-0.4-0.6-1-0.6-1.7c0-1,0.4-1.8,1.1-2.4c0.8-0.6,1.8-1,3-1
	c1.2,0,2.2,0.3,3,0.9c0.8,0.6,1.2,1.5,1.4,2.6h-1.9c-0.1-0.6-0.3-1-0.8-1.4c-0.4-0.3-1-0.5-1.7-0.5c-0.7,0-1.2,0.1-1.6,0.4
	c-0.4,0.3-0.6,0.7-0.6,1.1c0,0.5,0.2,0.8,0.7,1.1c0.5,0.3,1.2,0.5,2,0.7c0.7,0.2,1.4,0.3,2,0.6c0.6,0.2,1.2,0.5,1.6,1
	c0.4,0.4,0.6,1.1,0.6,1.9c0,1-0.4,1.9-1.2,2.6C151.4,138.9,150.4,139.3,149,139.3z M157.3,125.1c-0.4,0-0.7-0.1-1-0.4
	c-0.2-0.3-0.4-0.6-0.4-1c0-0.4,0.1-0.7,0.4-0.9c0.3-0.2,0.6-0.4,1-0.4c0.4,0,0.7,0.1,0.9,0.4c0.3,0.2,0.4,0.6,0.4,0.9
	c0,0.4-0.1,0.7-0.4,1C158,124.9,157.7,125.1,157.3,125.1z M156.4,139v-11.4h1.9V139H156.4z M166.9,139.3c-1.1,0-2-0.2-2.9-0.7
	c-0.9-0.5-1.5-1.2-2-2.1c-0.5-0.9-0.7-2-0.7-3.2s0.3-2.3,0.8-3.2c0.5-0.9,1.2-1.6,2-2.1c0.9-0.5,1.8-0.7,2.9-0.7
	c1.1,0,2,0.2,2.9,0.7c0.9,0.5,1.5,1.2,2,2.1c0.5,0.9,0.8,1.9,0.8,3.2s-0.3,2.3-0.8,3.2c-0.5,0.9-1.2,1.6-2.1,2.1
	C168.9,139,167.9,139.3,166.9,139.3z M166.9,137.6c0.7,0,1.3-0.2,1.8-0.5c0.6-0.3,1-0.8,1.4-1.4c0.4-0.6,0.5-1.4,0.5-2.4
	c0-1-0.2-1.7-0.5-2.4c-0.3-0.6-0.8-1.1-1.4-1.4c-0.6-0.3-1.2-0.5-1.8-0.5c-0.7,0-1.3,0.2-1.8,0.5c-0.6,0.3-1,0.8-1.4,1.4
	c-0.4,0.6-0.5,1.4-0.5,2.4c0,1,0.2,1.7,0.5,2.4c0.4,0.6,0.8,1.1,1.4,1.4C165.6,137.5,166.2,137.6,166.9,137.6z M175.3,139v-11.4h1.7
	l0.1,2c0.4-0.7,0.9-1.3,1.6-1.7c0.7-0.4,1.5-0.6,2.3-0.6c1.3,0,2.4,0.4,3.2,1.2c0.8,0.8,1.2,2.1,1.2,3.8v6.7h-1.9v-6.5
	c0-2.4-1-3.6-2.9-3.6c-1,0-1.8,0.4-2.5,1.1c-0.6,0.7-1,1.7-1,3v5.9H175.3z M186.9,141.7l1.3-5.1h2l-2,5.1H186.9z M198.6,139v-11.4
	h1.7l0.1,1.7c0.4-0.6,0.9-1.1,1.5-1.4c0.6-0.3,1.3-0.5,2.1-0.5c0.9,0,1.7,0.2,2.3,0.6c0.7,0.4,1.2,0.9,1.5,1.7
	c0.4-0.7,0.9-1.2,1.6-1.6c0.7-0.4,1.5-0.6,2.3-0.6c1.4,0,2.5,0.4,3.3,1.2c0.8,0.8,1.2,2.1,1.2,3.8v6.7h-1.9v-6.5
	c0-1.2-0.2-2.1-0.7-2.7c-0.5-0.6-1.2-0.9-2-0.9c-0.9,0-1.7,0.4-2.3,1.1c-0.6,0.7-0.9,1.7-0.9,3v5.9h-1.9v-6.5c0-1.2-0.2-2.1-0.7-2.7
	c-0.5-0.6-1.2-0.9-2-0.9c-0.9,0-1.7,0.4-2.3,1.1c-0.6,0.7-0.9,1.7-0.9,3v5.9H198.6z M224.4,139.3c-1.1,0-2-0.2-2.9-0.7
	c-0.9-0.5-1.5-1.2-2-2.1c-0.5-0.9-0.7-2-0.7-3.2s0.3-2.3,0.8-3.2c0.5-0.9,1.2-1.6,2-2.1c0.9-0.5,1.8-0.7,2.9-0.7
	c1.1,0,2,0.2,2.9,0.7c0.9,0.5,1.5,1.2,2,2.1c0.5,0.9,0.8,1.9,0.8,3.2s-0.3,2.3-0.8,3.2c-0.5,0.9-1.2,1.6-2.1,2.1
	C226.4,139,225.5,139.3,224.4,139.3z M224.4,137.6c0.7,0,1.3-0.2,1.8-0.5c0.6-0.3,1-0.8,1.4-1.4c0.4-0.6,0.5-1.4,0.5-2.4
	c0-1-0.2-1.7-0.5-2.4c-0.3-0.6-0.8-1.1-1.4-1.4c-0.6-0.3-1.2-0.5-1.8-0.5c-0.7,0-1.3,0.2-1.8,0.5c-0.6,0.3-1,0.8-1.4,1.4
	c-0.4,0.6-0.5,1.4-0.5,2.4c0,1,0.2,1.7,0.5,2.4c0.4,0.6,0.8,1.1,1.4,1.4C223.1,137.5,223.7,137.6,224.4,137.6z M232.8,139v-11.4h1.7
	l0.2,2.2c0.4-0.8,0.9-1.3,1.6-1.8c0.7-0.4,1.6-0.7,2.7-0.7v2h-0.5c-0.7,0-1.3,0.1-1.9,0.4c-0.6,0.2-1,0.6-1.4,1.2
	c-0.3,0.6-0.5,1.3-0.5,2.3v5.8H232.8z M245.9,139.3c-1.1,0-2.1-0.2-2.9-0.7c-0.8-0.5-1.5-1.2-2-2.1c-0.5-0.9-0.7-1.9-0.7-3.2
	c0-1.2,0.2-2.2,0.7-3.1c0.5-0.9,1.1-1.6,2-2.1c0.9-0.5,1.8-0.8,3-0.8c1.1,0,2.1,0.3,2.9,0.8c0.8,0.5,1.4,1.1,1.9,2
	c0.4,0.8,0.6,1.7,0.6,2.6c0,0.2,0,0.3,0,0.5c0,0.2,0,0.4,0,0.6h-9.1c0,0.9,0.2,1.6,0.6,2.2c0.4,0.6,0.8,1,1.4,1.3
	c0.6,0.3,1.1,0.4,1.7,0.4c0.8,0,1.5-0.2,2-0.6c0.5-0.4,0.9-0.9,1.2-1.5h1.9c-0.3,1.1-0.9,1.9-1.8,2.6
	C248.3,138.9,247.2,139.3,245.9,139.3z M245.9,128.9c-0.9,0-1.7,0.3-2.5,0.9c-0.7,0.6-1.1,1.4-1.2,2.4h7.2c0-1-0.4-1.8-1.1-2.4
	C247.6,129.2,246.8,128.9,245.9,128.9z M265.1,139.3c-1.1,0-2.1-0.3-3-0.8c-0.8-0.5-1.5-1.2-2-2.1c-0.5-0.9-0.7-1.9-0.7-3.1
	c0-1.1,0.2-2.2,0.7-3.1c0.5-0.9,1.1-1.6,2-2.1c0.8-0.5,1.8-0.8,3-0.8c0.9,0,1.8,0.2,2.5,0.6c0.7,0.4,1.3,0.9,1.7,1.6v-7.1h1.9V139
	h-1.7l-0.2-1.9c-0.4,0.6-0.9,1.1-1.6,1.5C267,139.1,266.1,139.3,265.1,139.3z M265.3,137.6c0.8,0,1.4-0.2,2-0.5
	c0.6-0.4,1.1-0.9,1.4-1.5c0.3-0.6,0.5-1.4,0.5-2.3c0-0.9-0.2-1.6-0.5-2.3c-0.3-0.6-0.8-1.1-1.4-1.5c-0.6-0.4-1.3-0.6-2-0.6
	c-0.8,0-1.4,0.2-2,0.6c-0.6,0.4-1,0.9-1.4,1.5c-0.3,0.6-0.5,1.4-0.5,2.3c0,0.9,0.2,1.6,0.5,2.3c0.3,0.6,0.8,1.1,1.4,1.5
	C263.9,137.4,264.5,137.6,265.3,137.6z M278.1,139.3c-1,0-1.7-0.2-2.4-0.5c-0.6-0.3-1.1-0.8-1.4-1.3c-0.3-0.5-0.5-1.1-0.5-1.7
	c0-1.2,0.4-2.1,1.3-2.7c0.9-0.6,2.1-0.9,3.6-0.9h3.1V132c0-1-0.3-1.7-0.8-2.3c-0.5-0.5-1.2-0.8-2.1-0.8c-0.8,0-1.4,0.2-2,0.6
	c-0.5,0.4-0.9,0.9-1,1.6h-2c0.1-0.8,0.4-1.5,0.8-2.1c0.5-0.6,1.1-1,1.8-1.3c0.7-0.3,1.5-0.5,2.3-0.5c1.6,0,2.8,0.4,3.6,1.3
	c0.8,0.8,1.2,2,1.2,3.4v7h-1.7l-0.1-2c-0.3,0.6-0.8,1.2-1.4,1.7C280,139.1,279.2,139.3,278.1,139.3z M278.4,137.6
	c0.7,0,1.4-0.2,1.9-0.6c0.5-0.4,0.9-0.9,1.2-1.5c0.3-0.6,0.4-1.3,0.4-1.9v0H279c-1.1,0-1.9,0.2-2.4,0.6c-0.5,0.4-0.7,0.9-0.7,1.4
	c0,0.6,0.2,1.1,0.6,1.4C277,137.5,277.6,137.6,278.4,137.6z M291,139c-1,0-1.9-0.3-2.5-0.8s-0.9-1.4-0.9-2.7v-6.3h-2v-1.6h2l0.3-2.7
	h1.7v2.7h3.4v1.6h-3.4v6.3c0,0.7,0.1,1.2,0.4,1.5c0.3,0.2,0.8,0.4,1.5,0.4h1.2v1.7H291z M299.2,139.3c-1,0-1.7-0.2-2.4-0.5
	s-1.1-0.8-1.4-1.3s-0.5-1.1-0.5-1.7c0-1.2,0.4-2.1,1.3-2.7c0.9-0.6,2.1-0.9,3.6-0.9h3.1V132c0-1-0.3-1.7-0.8-2.3
	c-0.5-0.5-1.2-0.8-2.1-0.8c-0.8,0-1.4,0.2-2,0.6c-0.5,0.4-0.9,0.9-1,1.6h-2c0.1-0.8,0.4-1.5,0.8-2.1c0.5-0.6,1.1-1,1.8-1.3
	c0.7-0.3,1.5-0.5,2.3-0.5c1.6,0,2.8,0.4,3.6,1.3c0.8,0.8,1.2,2,1.2,3.4v7h-1.7l-0.1-2c-0.3,0.6-0.8,1.2-1.4,1.7
	C301,139.1,300.2,139.3,299.2,139.3z M299.5,137.6c0.7,0,1.4-0.2,1.9-0.6c0.5-0.4,0.9-0.9,1.2-1.5c0.3-0.6,0.4-1.3,0.4-1.9v0h-2.9
	c-1.1,0-1.9,0.2-2.4,0.6c-0.5,0.4-0.7,0.9-0.7,1.4c0,0.6,0.2,1.1,0.6,1.4C298,137.5,298.7,137.6,299.5,137.6z M306.3,141.7l1.3-5.1
	h2l-2,5.1H306.3z M47.7,163.3c-0.9,0-1.8-0.2-2.5-0.6c-0.7-0.4-1.3-0.9-1.7-1.6l-0.2,1.9h-1.7v-16.6h1.9v7c0.4-0.6,0.9-1.1,1.6-1.5
	c0.7-0.4,1.6-0.7,2.6-0.7c1.1,0,2.1,0.3,3,0.8c0.8,0.5,1.5,1.2,2,2.1c0.5,0.9,0.7,1.9,0.7,3.1s-0.2,2.2-0.7,3.1
	c-0.5,0.9-1.1,1.6-2,2.1C49.8,163,48.8,163.3,47.7,163.3z M47.5,161.6c0.8,0,1.4-0.2,2-0.5c0.6-0.4,1-0.9,1.4-1.5
	c0.3-0.6,0.5-1.4,0.5-2.3c0-0.9-0.2-1.6-0.5-2.3c-0.3-0.6-0.8-1.1-1.4-1.5c-0.6-0.4-1.3-0.6-2-0.6c-0.8,0-1.4,0.2-2,0.6
	c-0.6,0.4-1,0.9-1.4,1.5c-0.3,0.6-0.5,1.4-0.5,2.3c0,0.9,0.2,1.6,0.5,2.3s0.8,1.1,1.4,1.5C46,161.4,46.7,161.6,47.5,161.6z
	 M61.2,163.3c-1.1,0-2.1-0.2-2.9-0.7c-0.8-0.5-1.5-1.2-2-2.1c-0.5-0.9-0.7-1.9-0.7-3.2c0-1.2,0.2-2.2,0.7-3.1c0.5-0.9,1.1-1.6,2-2.1
	c0.9-0.5,1.8-0.8,3-0.8c1.1,0,2.1,0.3,2.9,0.8c0.8,0.5,1.4,1.1,1.9,2c0.4,0.8,0.6,1.7,0.6,2.6c0,0.2,0,0.3,0,0.5c0,0.2,0,0.4,0,0.6
	h-9.1c0,0.9,0.2,1.6,0.6,2.2c0.4,0.6,0.8,1,1.4,1.3c0.6,0.3,1.1,0.4,1.7,0.4c0.8,0,1.5-0.2,2-0.6c0.5-0.4,0.9-0.9,1.2-1.5h1.9
	c-0.3,1.1-0.9,1.9-1.8,2.6C63.6,162.9,62.5,163.3,61.2,163.3z M61.2,152.9c-0.9,0-1.7,0.3-2.5,0.9c-0.7,0.6-1.1,1.4-1.2,2.4h7.2
	c0-1-0.4-1.8-1.1-2.4C62.9,153.2,62.1,152.9,61.2,152.9z M73.3,163c-1,0-1.9-0.3-2.5-0.8s-0.9-1.4-0.9-2.7v-6.3h-2v-1.6h2l0.3-2.7
	h1.7v2.7h3.4v1.6h-3.4v6.3c0,0.7,0.1,1.2,0.4,1.5c0.3,0.2,0.8,0.4,1.5,0.4H75v1.7H73.3z M82.1,163c-1,0-1.9-0.3-2.5-0.8
	s-0.9-1.4-0.9-2.7v-6.3h-2v-1.6h2l0.3-2.7h1.7v2.7h3.4v1.6h-3.4v6.3c0,0.7,0.1,1.2,0.4,1.5c0.3,0.2,0.8,0.4,1.5,0.4h1.2v1.7H82.1z
	 M91.3,163.3c-1.1,0-2.1-0.2-2.9-0.7c-0.8-0.5-1.5-1.2-2-2.1c-0.5-0.9-0.7-1.9-0.7-3.2c0-1.2,0.2-2.2,0.7-3.1c0.5-0.9,1.1-1.6,2-2.1
	c0.9-0.5,1.8-0.8,3-0.8c1.1,0,2.1,0.3,2.9,0.8c0.8,0.5,1.4,1.1,1.9,2c0.4,0.8,0.6,1.7,0.6,2.6c0,0.2,0,0.3,0,0.5c0,0.2,0,0.4,0,0.6
	h-9.1c0,0.9,0.2,1.6,0.6,2.2c0.4,0.6,0.8,1,1.4,1.3c0.6,0.3,1.1,0.4,1.7,0.4c0.8,0,1.5-0.2,2-0.6s0.9-0.9,1.2-1.5h1.9
	c-0.3,1.1-0.9,1.9-1.8,2.6C93.8,162.9,92.7,163.3,91.3,163.3z M91.3,152.9c-0.9,0-1.7,0.3-2.5,0.9c-0.7,0.6-1.1,1.4-1.2,2.4h7.2
	c0-1-0.4-1.8-1.1-2.4C93.1,153.2,92.3,152.9,91.3,152.9z M99.3,163v-11.4h1.7l0.2,2.2c0.4-0.8,0.9-1.3,1.6-1.8
	c0.7-0.4,1.6-0.7,2.7-0.7v2H105c-0.7,0-1.3,0.1-1.9,0.4c-0.6,0.2-1,0.6-1.4,1.2c-0.3,0.6-0.5,1.3-0.5,2.3v5.8H99.3z M113.8,168.1
	v-16.5h1.7l0.2,1.9c0.4-0.6,0.9-1.1,1.6-1.5c0.7-0.4,1.6-0.7,2.6-0.7c1.1,0,2.1,0.3,3,0.8c0.8,0.5,1.5,1.2,2,2.1
	c0.5,0.9,0.7,1.9,0.7,3.1s-0.2,2.2-0.7,3.1c-0.5,0.9-1.1,1.6-2,2.1c-0.8,0.5-1.8,0.8-3,0.8c-0.9,0-1.8-0.2-2.5-0.6
	c-0.7-0.4-1.3-0.9-1.7-1.6v7H113.8z M119.6,161.6c0.8,0,1.4-0.2,2-0.5c0.6-0.4,1-0.9,1.4-1.5c0.3-0.6,0.5-1.4,0.5-2.3
	c0-0.9-0.2-1.6-0.5-2.3c-0.3-0.6-0.8-1.1-1.4-1.5c-0.6-0.4-1.3-0.6-2-0.6s-1.4,0.2-2,0.6c-0.6,0.4-1,0.9-1.4,1.5
	c-0.3,0.6-0.5,1.4-0.5,2.3c0,0.9,0.2,1.6,0.5,2.3s0.8,1.1,1.4,1.5C118.2,161.4,118.9,161.6,119.6,161.6z M133.4,163.3
	c-1.1,0-2-0.2-2.9-0.7c-0.9-0.5-1.5-1.2-2-2.1c-0.5-0.9-0.7-2-0.7-3.2s0.3-2.3,0.8-3.2c0.5-0.9,1.2-1.6,2-2.1
	c0.9-0.5,1.8-0.7,2.9-0.7c1.1,0,2,0.2,2.9,0.7c0.9,0.5,1.5,1.2,2,2.1c0.5,0.9,0.8,1.9,0.8,3.2s-0.3,2.3-0.8,3.2
	c-0.5,0.9-1.2,1.6-2.1,2.1C135.4,163,134.5,163.3,133.4,163.3z M133.4,161.6c0.7,0,1.3-0.2,1.8-0.5c0.6-0.3,1-0.8,1.4-1.4
	c0.4-0.6,0.5-1.4,0.5-2.4c0-1-0.2-1.7-0.5-2.4c-0.3-0.6-0.8-1.1-1.4-1.4c-0.6-0.3-1.2-0.5-1.8-0.5c-0.7,0-1.3,0.2-1.8,0.5
	c-0.6,0.3-1,0.8-1.4,1.4c-0.4,0.6-0.5,1.4-0.5,2.4c0,1,0.2,1.7,0.5,2.4c0.4,0.6,0.8,1.1,1.4,1.4
	C132.1,161.5,132.8,161.6,133.4,161.6z M141.8,163v-16.6h1.9V163H141.8z M148.1,149.1c-0.4,0-0.7-0.1-1-0.4c-0.2-0.3-0.4-0.6-0.4-1
	c0-0.4,0.1-0.7,0.4-0.9c0.3-0.2,0.6-0.4,1-0.4c0.4,0,0.7,0.1,0.9,0.4c0.3,0.2,0.4,0.6,0.4,0.9c0,0.4-0.1,0.7-0.4,1
	C148.8,148.9,148.4,149.1,148.1,149.1z M147.1,163v-11.4h1.9V163H147.1z M157.7,163.3c-1.1,0-2.1-0.2-2.9-0.7
	c-0.9-0.5-1.5-1.2-2-2.1c-0.5-0.9-0.7-2-0.7-3.2s0.2-2.2,0.7-3.1c0.5-0.9,1.2-1.6,2-2.1c0.9-0.5,1.9-0.8,2.9-0.8
	c1.4,0,2.5,0.4,3.4,1.1c0.9,0.7,1.5,1.6,1.8,2.8h-2c-0.2-0.7-0.5-1.2-1.1-1.6c-0.6-0.4-1.3-0.6-2.1-0.6c-0.6,0-1.2,0.2-1.8,0.5
	c-0.6,0.3-1,0.8-1.4,1.4c-0.4,0.6-0.5,1.4-0.5,2.4c0,1,0.2,1.7,0.5,2.4c0.4,0.6,0.8,1.1,1.4,1.5c0.6,0.3,1.2,0.5,1.8,0.5
	c0.8,0,1.5-0.2,2.1-0.6c0.6-0.4,1-1,1.1-1.7h2c-0.2,1.1-0.8,2.1-1.7,2.8C160.1,162.9,159,163.3,157.7,163.3z M166.8,168.1l2.8-6.2
	h-0.7l-4.5-10.3h2.1l3.8,8.9l4-8.9h2l-7.5,16.5H166.8z M189.6,163.3c-1.1,0-2-0.2-2.9-0.7c-0.9-0.5-1.5-1.2-2-2.1
	c-0.5-0.9-0.7-2-0.7-3.2s0.3-2.3,0.8-3.2c0.5-0.9,1.2-1.6,2-2.1c0.9-0.5,1.8-0.7,2.9-0.7c1.1,0,2,0.2,2.9,0.7c0.9,0.5,1.5,1.2,2,2.1
	c0.5,0.9,0.8,1.9,0.8,3.2s-0.3,2.3-0.8,3.2c-0.5,0.9-1.2,1.6-2.1,2.1C191.6,163,190.7,163.3,189.6,163.3z M189.6,161.6
	c0.7,0,1.3-0.2,1.8-0.5c0.6-0.3,1-0.8,1.4-1.4c0.4-0.6,0.5-1.4,0.5-2.4c0-1-0.2-1.7-0.5-2.4c-0.3-0.6-0.8-1.1-1.4-1.4
	c-0.6-0.3-1.2-0.5-1.8-0.5c-0.7,0-1.3,0.2-1.8,0.5c-0.6,0.3-1,0.8-1.4,1.4c-0.4,0.6-0.5,1.4-0.5,2.4c0,1,0.2,1.7,0.5,2.4
	c0.4,0.6,0.8,1.1,1.4,1.4C188.3,161.5,188.9,161.6,189.6,161.6z M202.2,163.3c-1.3,0-2.4-0.4-3.2-1.2c-0.8-0.8-1.2-2.1-1.2-3.8v-6.7
	h1.9v6.5c0,2.4,1,3.6,2.9,3.6c1,0,1.8-0.4,2.5-1.1c0.7-0.7,1-1.7,1-3.1v-5.9h1.9V163h-1.7l-0.1-2c-0.4,0.7-0.9,1.3-1.6,1.7
	C203.8,163.1,203,163.3,202.2,163.3z M215.7,163c-1,0-1.9-0.3-2.5-0.8c-0.6-0.5-0.9-1.4-0.9-2.7v-6.3h-2v-1.6h2l0.3-2.7h1.7v2.7h3.4
	v1.6h-3.4v6.3c0,0.7,0.1,1.2,0.4,1.5c0.3,0.2,0.8,0.4,1.5,0.4h1.2v1.7H215.7z M225,163.3c-1.1,0-2.1-0.2-2.9-0.7
	c-0.9-0.5-1.5-1.2-2-2.1c-0.5-0.9-0.7-2-0.7-3.2s0.2-2.2,0.7-3.1c0.5-0.9,1.2-1.6,2-2.1c0.9-0.5,1.9-0.8,2.9-0.8
	c1.3,0,2.5,0.4,3.4,1.1c0.9,0.7,1.5,1.6,1.8,2.8h-2c-0.2-0.7-0.5-1.2-1.1-1.6c-0.6-0.4-1.3-0.6-2.1-0.6c-0.6,0-1.2,0.2-1.8,0.5
	c-0.6,0.3-1,0.8-1.4,1.4c-0.4,0.6-0.5,1.4-0.5,2.4c0,1,0.2,1.7,0.5,2.4s0.8,1.1,1.4,1.5c0.6,0.3,1.2,0.5,1.8,0.5
	c0.8,0,1.5-0.2,2.1-0.6c0.6-0.4,1-1,1.1-1.7h2c-0.2,1.1-0.8,2.1-1.7,2.8C227.5,162.9,226.3,163.3,225,163.3z M238.1,163.3
	c-1.1,0-2-0.2-2.9-0.7c-0.9-0.5-1.5-1.2-2-2.1c-0.5-0.9-0.7-2-0.7-3.2s0.3-2.3,0.8-3.2c0.5-0.9,1.2-1.6,2-2.1
	c0.9-0.5,1.8-0.7,2.9-0.7c1.1,0,2,0.2,2.9,0.7c0.9,0.5,1.5,1.2,2,2.1c0.5,0.9,0.8,1.9,0.8,3.2s-0.3,2.3-0.8,3.2
	c-0.5,0.9-1.2,1.6-2.1,2.1C240.1,163,239.1,163.3,238.1,163.3z M238.1,161.6c0.7,0,1.3-0.2,1.8-0.5c0.6-0.3,1-0.8,1.4-1.4
	c0.4-0.6,0.5-1.4,0.5-2.4c0-1-0.2-1.7-0.5-2.4c-0.3-0.6-0.8-1.1-1.4-1.4c-0.6-0.3-1.2-0.5-1.8-0.5c-0.7,0-1.3,0.2-1.8,0.5
	c-0.6,0.3-1,0.8-1.4,1.4c-0.4,0.6-0.5,1.4-0.5,2.4c0,1,0.2,1.7,0.5,2.4c0.4,0.6,0.8,1.1,1.4,1.4
	C236.8,161.5,237.4,161.6,238.1,161.6z M246.5,163v-11.4h1.7l0.1,1.7c0.4-0.6,0.9-1.1,1.5-1.4c0.6-0.3,1.3-0.5,2.1-0.5
	c0.9,0,1.7,0.2,2.3,0.6c0.7,0.4,1.2,0.9,1.5,1.7c0.4-0.7,0.9-1.2,1.6-1.6c0.7-0.4,1.5-0.6,2.3-0.6c1.4,0,2.5,0.4,3.3,1.2
	c0.8,0.8,1.2,2.1,1.2,3.8v6.7h-1.9v-6.5c0-1.2-0.2-2.1-0.7-2.7c-0.5-0.6-1.2-0.9-2-0.9c-0.9,0-1.7,0.4-2.3,1.1
	c-0.6,0.7-0.9,1.7-0.9,3v5.9h-1.9v-6.5c0-1.2-0.2-2.1-0.7-2.7c-0.5-0.6-1.2-0.9-2-0.9c-0.9,0-1.7,0.4-2.3,1.1
	c-0.6,0.7-0.9,1.7-0.9,3v5.9H246.5z M272.2,163.3c-1.1,0-2.1-0.2-2.9-0.7c-0.8-0.5-1.5-1.2-2-2.1c-0.5-0.9-0.7-1.9-0.7-3.2
	c0-1.2,0.2-2.2,0.7-3.1c0.5-0.9,1.1-1.6,2-2.1c0.9-0.5,1.8-0.8,3-0.8c1.1,0,2.1,0.3,2.9,0.8c0.8,0.5,1.4,1.1,1.9,2
	c0.4,0.8,0.6,1.7,0.6,2.6c0,0.2,0,0.3,0,0.5c0,0.2,0,0.4,0,0.6h-9.1c0,0.9,0.2,1.6,0.6,2.2c0.4,0.6,0.8,1,1.4,1.3
	c0.6,0.3,1.1,0.4,1.7,0.4c0.8,0,1.5-0.2,2-0.6c0.5-0.4,0.9-0.9,1.2-1.5h1.9c-0.3,1.1-0.9,1.9-1.8,2.6
	C274.6,162.9,273.5,163.3,272.2,163.3z M272.2,152.9c-0.9,0-1.7,0.3-2.5,0.9c-0.7,0.6-1.1,1.4-1.2,2.4h7.2c0-1-0.4-1.8-1.1-2.4
	C274,153.2,273.1,152.9,272.2,152.9z M284.5,163.3c-1.4,0-2.5-0.3-3.4-1c-0.9-0.7-1.4-1.6-1.6-2.8h2c0.1,0.6,0.4,1.1,0.9,1.6
	c0.5,0.4,1.2,0.6,2.1,0.6c0.8,0,1.4-0.2,1.8-0.5c0.4-0.4,0.6-0.8,0.6-1.2c0-0.7-0.3-1.2-0.8-1.4c-0.5-0.2-1.2-0.4-2.1-0.6
	c-0.6-0.1-1.2-0.3-1.8-0.5c-0.6-0.2-1.1-0.6-1.5-1c-0.4-0.4-0.6-1-0.6-1.7c0-1,0.4-1.8,1.1-2.4c0.8-0.6,1.8-1,3-1
	c1.2,0,2.2,0.3,3,0.9c0.8,0.6,1.2,1.5,1.4,2.6h-1.9c-0.1-0.6-0.3-1-0.8-1.4c-0.4-0.3-1-0.5-1.7-0.5c-0.7,0-1.2,0.1-1.6,0.4
	c-0.4,0.3-0.6,0.7-0.6,1.1c0,0.5,0.2,0.8,0.7,1.1c0.5,0.3,1.1,0.5,2,0.7c0.7,0.2,1.4,0.3,2,0.6c0.6,0.2,1.2,0.5,1.6,1
	c0.4,0.4,0.6,1.1,0.6,1.9c0,1-0.4,1.9-1.2,2.6C286.9,162.9,285.9,163.3,284.5,163.3z M292.3,163.1c-0.4,0-0.7-0.1-1-0.4
	c-0.2-0.3-0.4-0.6-0.4-0.9s0.1-0.7,0.4-0.9c0.3-0.3,0.6-0.4,1-0.4c0.4,0,0.7,0.1,0.9,0.4c0.3,0.2,0.4,0.6,0.4,0.9s-0.1,0.7-0.4,0.9
	C293,163,292.7,163.1,292.3,163.1z"/>
<path class="st3" d="M321,213c0-34.8,28.2-63,63-63h132v79c0,34.8-28.2,63-63,63H321V213z"/>
<path class="st4" d="M40,222c0-9.9,8.1-18,18-18h160.8v22c0,9.9-8.1,18-18,18H40V222z"/>
<path class="st0" d="M54.2,230v-11.9h2.2v10.2h5.3v1.7H54.2z M67.2,230.2c-0.9,0-1.6-0.2-2.3-0.5c-0.7-0.4-1.2-0.9-1.5-1.5
	s-0.6-1.4-0.6-2.3c0-0.9,0.2-1.6,0.5-2.3c0.4-0.7,0.9-1.2,1.5-1.6c0.7-0.4,1.4-0.6,2.3-0.6c0.8,0,1.6,0.2,2.2,0.5
	c0.6,0.4,1.1,0.9,1.5,1.5c0.4,0.6,0.5,1.3,0.5,2.1c0,0.1,0,0.3,0,0.4c0,0.1,0,0.3,0,0.4H65c0,0.7,0.3,1.2,0.7,1.5
	c0.4,0.4,0.9,0.6,1.5,0.6c0.4,0,0.8-0.1,1.1-0.3c0.3-0.2,0.5-0.5,0.7-0.8h2.2c-0.2,0.5-0.4,1-0.8,1.5c-0.4,0.4-0.8,0.8-1.4,1
	C68.5,230.1,67.9,230.2,67.2,230.2z M67.2,223.1c-0.5,0-1,0.2-1.4,0.5c-0.4,0.3-0.7,0.7-0.8,1.4h4.2c0-0.6-0.2-1-0.6-1.3
	S67.8,223.1,67.2,223.1z M76.2,230.2c-0.7,0-1.3-0.1-1.8-0.3c-0.5-0.2-0.8-0.6-1-0.9s-0.3-0.8-0.3-1.3c0-0.8,0.3-1.4,0.9-1.9
	s1.5-0.7,2.8-0.7h2.1v-0.2c0-0.6-0.2-1-0.5-1.3c-0.3-0.3-0.7-0.4-1.2-0.4c-0.4,0-0.8,0.1-1.2,0.3c-0.3,0.2-0.5,0.5-0.6,0.9h-2.1
	c0.1-0.6,0.3-1.1,0.6-1.6c0.4-0.5,0.8-0.8,1.4-1c0.6-0.2,1.2-0.4,1.9-0.4c1.2,0,2.1,0.3,2.8,0.9s1,1.5,1,2.6v5.2h-1.9l-0.2-1.4
	c-0.2,0.5-0.6,0.8-1.1,1.1C77.4,230.1,76.9,230.2,76.2,230.2z M76.6,228.5c0.6,0,1.1-0.2,1.4-0.6c0.4-0.4,0.6-0.9,0.7-1.5h-1.9
	c-0.6,0-1,0.1-1.2,0.3c-0.2,0.2-0.4,0.5-0.4,0.8c0,0.3,0.1,0.6,0.4,0.8S76.2,228.5,76.6,228.5z M83.1,230v-8.4H85l0.2,1.6
	c0.3-0.5,0.7-1,1.2-1.3c0.5-0.3,1.2-0.5,1.9-0.5v2.3h-0.6c-0.5,0-0.9,0.1-1.3,0.2c-0.4,0.1-0.7,0.4-0.9,0.8
	c-0.2,0.4-0.3,0.9-0.3,1.5v3.8H83.1z M89.8,230v-8.4h1.9l0.2,1.4c0.3-0.5,0.6-0.9,1.1-1.2c0.5-0.3,1.1-0.4,1.8-0.4
	c1,0,1.9,0.3,2.4,1c0.6,0.7,0.9,1.6,0.9,2.9v4.8h-2.2v-4.6c0-0.7-0.1-1.3-0.4-1.7c-0.3-0.4-0.8-0.6-1.4-0.6c-0.6,0-1.1,0.2-1.5,0.6
	c-0.4,0.4-0.6,1-0.6,1.8v4.4H89.8z M104.2,230v-8.4h1.9l0.2,1.1c0.3-0.4,0.6-0.7,1.1-1c0.5-0.2,1-0.4,1.6-0.4c1.3,0,2.2,0.5,2.8,1.5
	c0.3-0.5,0.7-0.8,1.2-1.1c0.5-0.3,1.1-0.4,1.7-0.4c1.1,0,1.9,0.3,2.5,1c0.6,0.7,0.9,1.6,0.9,2.9v4.8h-2.2v-4.6
	c0-0.7-0.1-1.3-0.4-1.7c-0.3-0.4-0.7-0.6-1.3-0.6c-0.6,0-1.1,0.2-1.4,0.6c-0.4,0.4-0.5,1-0.5,1.8v4.4H110v-4.6
	c0-0.7-0.1-1.3-0.4-1.7c-0.3-0.4-0.7-0.6-1.3-0.6c-0.6,0-1,0.2-1.4,0.6c-0.4,0.4-0.5,1-0.5,1.8v4.4H104.2z M124.2,230.2
	c-0.8,0-1.6-0.2-2.2-0.6c-0.6-0.4-1.2-0.9-1.5-1.5c-0.4-0.7-0.6-1.4-0.6-2.3s0.2-1.6,0.6-2.3c0.4-0.7,0.9-1.2,1.5-1.6
	c0.7-0.4,1.4-0.6,2.2-0.6c0.8,0,1.5,0.2,2.2,0.6c0.7,0.4,1.2,0.9,1.5,1.6c0.4,0.7,0.6,1.4,0.6,2.3s-0.2,1.6-0.6,2.3
	c-0.4,0.7-0.9,1.2-1.5,1.5C125.7,230,125,230.2,124.2,230.2z M124.2,228.3c0.6,0,1.1-0.2,1.5-0.6c0.4-0.4,0.6-1.1,0.6-1.9
	c0-0.8-0.2-1.5-0.6-1.9c-0.4-0.4-0.9-0.6-1.5-0.6c-0.6,0-1.1,0.2-1.5,0.6c-0.4,0.4-0.6,1-0.6,1.9c0,0.8,0.2,1.5,0.6,1.9
	C123.1,228.1,123.6,228.3,124.2,228.3z M130.4,230v-8.4h1.9l0.2,1.6c0.3-0.5,0.7-1,1.2-1.3c0.5-0.3,1.2-0.5,1.9-0.5v2.3h-0.6
	c-0.5,0-0.9,0.1-1.3,0.2c-0.4,0.1-0.7,0.4-0.9,0.8c-0.2,0.4-0.3,0.9-0.3,1.5v3.8H130.4z M141.1,230.2c-0.9,0-1.6-0.2-2.3-0.5
	c-0.7-0.4-1.2-0.9-1.5-1.5c-0.4-0.7-0.6-1.4-0.6-2.3c0-0.9,0.2-1.6,0.5-2.3c0.4-0.7,0.9-1.2,1.5-1.6c0.7-0.4,1.4-0.6,2.3-0.6
	c0.8,0,1.6,0.2,2.2,0.5c0.6,0.4,1.1,0.9,1.5,1.5c0.4,0.6,0.5,1.3,0.5,2.1c0,0.1,0,0.3,0,0.4c0,0.1,0,0.3,0,0.4h-6.4
	c0,0.7,0.3,1.2,0.7,1.5c0.4,0.4,0.9,0.6,1.5,0.6c0.4,0,0.8-0.1,1.1-0.3c0.3-0.2,0.5-0.5,0.7-0.8h2.2c-0.2,0.5-0.4,1-0.8,1.5
	c-0.4,0.4-0.8,0.8-1.4,1C142.4,230.1,141.8,230.2,141.1,230.2z M141.1,223.1c-0.5,0-1,0.2-1.4,0.5c-0.4,0.3-0.7,0.7-0.8,1.4h4.2
	c0-0.6-0.2-1-0.6-1.3C142.1,223.3,141.7,223.1,141.1,223.1z M151.2,230v-12.2h2.2v5.1c0.3-0.5,0.7-0.8,1.1-1.1
	c0.5-0.3,1-0.4,1.7-0.4c1,0,1.8,0.3,2.4,1c0.6,0.7,0.9,1.6,0.9,2.9v4.8h-2.2v-4.6c0-0.7-0.1-1.3-0.4-1.7c-0.3-0.4-0.7-0.6-1.4-0.6
	c-0.6,0-1.1,0.2-1.5,0.6c-0.4,0.4-0.6,1-0.6,1.8v4.4H151.2z M165.7,230.2c-0.9,0-1.6-0.2-2.3-0.5c-0.7-0.4-1.2-0.9-1.5-1.5
	c-0.4-0.7-0.6-1.4-0.6-2.3c0-0.9,0.2-1.6,0.5-2.3c0.4-0.7,0.9-1.2,1.5-1.6c0.7-0.4,1.4-0.6,2.3-0.6c0.8,0,1.6,0.2,2.2,0.5
	c0.6,0.4,1.1,0.9,1.5,1.5c0.4,0.6,0.5,1.3,0.5,2.1c0,0.1,0,0.3,0,0.4c0,0.1,0,0.3,0,0.4h-6.4c0,0.7,0.3,1.2,0.7,1.5
	c0.4,0.4,0.9,0.6,1.5,0.6c0.4,0,0.8-0.1,1.1-0.3c0.3-0.2,0.5-0.5,0.7-0.8h2.2c-0.2,0.5-0.4,1-0.8,1.5c-0.4,0.4-0.8,0.8-1.4,1
	C166.9,230.1,166.3,230.2,165.7,230.2z M165.7,223.1c-0.5,0-1,0.2-1.4,0.5c-0.4,0.3-0.7,0.7-0.8,1.4h4.2c0-0.6-0.2-1-0.6-1.3
	C166.7,223.3,166.2,223.1,165.7,223.1z M171.7,230v-8.4h1.9l0.2,1.6c0.3-0.5,0.7-1,1.2-1.3c0.5-0.3,1.2-0.5,1.9-0.5v2.3h-0.6
	c-0.5,0-0.9,0.1-1.3,0.2c-0.4,0.1-0.7,0.4-0.9,0.8c-0.2,0.4-0.3,0.9-0.3,1.5v3.8H171.7z M182.4,230.2c-0.8,0-1.6-0.2-2.3-0.5
	c-0.7-0.4-1.2-0.9-1.5-1.5c-0.4-0.7-0.6-1.4-0.6-2.3c0-0.9,0.2-1.6,0.5-2.3c0.4-0.7,0.9-1.2,1.5-1.6c0.7-0.4,1.4-0.6,2.3-0.6
	c0.8,0,1.6,0.2,2.2,0.5c0.6,0.4,1.1,0.9,1.5,1.5c0.4,0.6,0.5,1.3,0.5,2.1c0,0.1,0,0.3,0,0.4c0,0.1,0,0.3,0,0.4h-6.4
	c0,0.7,0.3,1.2,0.7,1.5c0.4,0.4,0.9,0.6,1.5,0.6c0.4,0,0.8-0.1,1.1-0.3c0.3-0.2,0.5-0.5,0.7-0.8h2.2c-0.2,0.5-0.4,1-0.8,1.5
	c-0.4,0.4-0.8,0.8-1.4,1C183.7,230.1,183.1,230.2,182.4,230.2z M182.4,223.1c-0.5,0-1,0.2-1.4,0.5c-0.4,0.3-0.7,0.7-0.8,1.4h4.2
	c0-0.6-0.2-1-0.6-1.3C183.5,223.3,183,223.1,182.4,223.1z"/>
<path class="st1" d="M192.6,227.7l3.8-3.8l-3.8-3.8h2.7l3.8,3.8l-3.8,3.8H192.6z"/>
<g>
	<defs>
		<rect id="SVGID_1_" x="343" y="204" width="150" height="40"/>
	</defs>
	<clipPath id="SVGID_00000039116999879806115460000002242853400589674651_">
		<use xlink:href="#SVGID_1_"  style="overflow:visible;"/>
	</clipPath>
	<g style="clip-path:url(#SVGID_00000039116999879806115460000002242853400589674651_);">
		<path class="st4" d="M403,224.5c0,6.3-4.5,11.3-10.1,11.3c-3.2,0-5.5-1.5-6.7-3.2v11.3h-6.6v-30.2h6.6v2.5
			c1.2-1.7,3.6-3.1,6.7-3.1C398.4,213.2,403,218.2,403,224.5z M385.9,224.5c0,3,2.3,5.3,5.3,5.3s5.3-2.4,5.3-5.3
			c0-3-2.4-5.4-5.3-5.4S385.9,221.5,385.9,224.5z"/>
		<path class="st4" d="M406.9,235.2V204h6.6v31.2H406.9z"/>
		<path class="st4" d="M418.1,226.5v-12.7h6.6v12.4c0,2,1.7,3.7,3.7,3.7c2,0,3.7-1.7,3.7-3.7v-12.4h6.6v12.7c0,5.3-4.4,9.4-10.3,9.4
			C422.5,235.8,418.1,231.8,418.1,226.5z"/>
		<path class="st4" d="M442.8,235.2v-11.4c0-6.1,4.3-10.6,10-10.6c1.2,0,2.2,0.2,3.1,0.5v6.5c-0.7-0.5-1.5-0.8-2.6-0.8
			c-2.2,0-4,1.8-4,4v11.8L442.8,235.2L442.8,235.2z"/>
		<path class="st4" d="M458.1,224.5c0-6.3,4.5-11.3,10.1-11.3c3.1,0,5.5,1.5,6.7,3.1v-2.5h6.6v21.4h-6.6v-2.5
			c-1.2,1.6-3.6,3.1-6.7,3.1C462.6,235.8,458.1,230.8,458.1,224.5L458.1,224.5z M475.2,224.5c0-3-2.4-5.4-5.3-5.4s-5.3,2.4-5.3,5.4
			c0,3,2.4,5.3,5.3,5.3S475.2,227.5,475.2,224.5z"/>
		<path class="st4" d="M486.4,235.2V204h6.6v31.2H486.4z"/>
		<path class="st1" d="M355.8,244h-12.8l-0.1-27.9v-2c0-5.5,5-10,11.2-10h13.7V234c0,5.5-5,10-11.2,10L355.8,244L355.8,244z"/>
		<path class="st0" d="M349,241.3c1.6,0,2.9-1.5,2.9-3.4v-20.2c-1.6,0-2.9,1.5-2.9,3.4V241.3z"/>
		<path class="st0" d="M354,235.1c1.6,0,2.9-1.5,2.9-3.4v-6.7c-1.6,0-2.9,1.5-2.9,3.4V235.1L354,235.1z"/>
		<path class="st0" d="M362,224.3c-1.6,0-2.9,1.5-2.9,3.4v3.1c1.6,0,2.9-2.1,2.9-3.9V224.3z"/>
		<path class="st0" d="M354,223.6c1.6,0,2.9-1.5,2.9-3.4v-6.7c-1.6,0-2.9,1.5-2.9,3.4V223.6L354,223.6z"/>
		<path class="st0" d="M362,216.9c-1.6,0-2.9,1.5-2.9,3.4v3.1c1.6,0,2.9-2.1,2.9-3.9V216.9z"/>
		<path class="st0" d="M362,209.3c-1.6,0-2.9,1.5-2.9,3.4v3.1c1.6,0,2.9-2.1,2.9-3.9V209.3z"/>
	</g>
</g>
<path class="st6" d="M56.8,82.8c-3,0-5.7-0.6-8.1-1.8c-2.4-1.2-4.3-3-5.7-5.4c-1.4-2.4-2.1-5.3-2.1-8.8c0-2.6,0.4-5,1.3-6.9
	c0.9-2,2-3.7,3.5-5c1.5-1.3,3.2-2.4,5.2-3c2-0.7,4-1,6.2-1c1.7,0,3.4,0.2,4.8,0.6s2.9,1,4.1,1.7l0.2,5.7h-0.5L63.5,55
	c-0.3-0.6-0.6-1.1-1-1.6c-0.4-0.5-0.8-0.9-1.4-1.1c-0.5-0.2-0.9-0.4-1.4-0.5c-0.4-0.1-1-0.2-1.7-0.2c-1.8,0-3.4,0.5-4.9,1.4
	c-1.4,1-2.6,2.5-3.5,4.7c-0.9,2.2-1.3,5.2-1.3,9c0,3.8,0.4,6.8,1.2,9c0.8,2.2,1.9,3.7,3.4,4.7c1.4,0.9,3.1,1.4,4.8,1.4
	c1,0,1.8-0.1,2.3-0.2c0.6-0.2,1.2-0.4,1.7-0.6c0.6-0.2,1-0.6,1.3-1.1c0.3-0.5,0.6-1,0.8-1.6l2-4.5h0.5l-0.1,6.6
	c-1.3,0.7-2.7,1.2-4.3,1.7C60.5,82.6,58.7,82.8,56.8,82.8z M73.2,56.8c-1,0-1.9-0.3-2.7-1c-0.7-0.7-1.1-1.5-1.1-2.5
	c0-1,0.4-1.9,1.1-2.5c0.7-0.6,1.6-1,2.7-1s1.9,0.3,2.6,1c0.7,0.6,1.1,1.5,1.1,2.5c0,1-0.4,1.9-1.1,2.5
	C75.2,56.5,74.3,56.8,73.2,56.8z M67.8,82v-0.5l0.6-0.2c0.6-0.2,1-0.5,1.2-0.8c0.2-0.4,0.4-0.9,0.4-1.5V64.7c0-0.6-0.1-1.1-0.4-1.4
	c-0.2-0.3-0.6-0.6-1.2-0.7l-0.6-0.1v-0.5l8.4-2.7l0.5,0.5l-0.1,6.5v12.9c0,0.6,0.1,1.1,0.3,1.5c0.2,0.4,0.7,0.6,1.2,0.8l0.5,0.1V82
	H67.8z M89.6,82.1l-8.1-19.5c-0.4-1-1.2-1.7-2.2-2.1l-0.6-0.2v-0.5h11.9v0.5l-0.8,0.2c-1.2,0.3-1.6,1.1-1.1,2.4l4.8,12.8L97.9,63
	c0.2-0.6,0.3-1.1,0.2-1.5c-0.1-0.4-0.5-0.7-1.1-0.9l-1.2-0.3v-0.5h6.7v0.5l-1.3,0.3c-0.6,0.2-1,0.4-1.4,0.7
	c-0.3,0.3-0.6,0.8-0.8,1.4l-6.8,19.4H89.6z M108.3,56.8c-1,0-1.9-0.3-2.7-1c-0.7-0.7-1.1-1.5-1.1-2.5c0-1,0.4-1.9,1.1-2.5
	c0.7-0.6,1.6-1,2.7-1c1,0,1.9,0.3,2.6,1c0.7,0.6,1.1,1.5,1.1,2.5c0,1-0.4,1.9-1.1,2.5C110.2,56.5,109.3,56.8,108.3,56.8z M102.8,82
	v-0.5l0.6-0.2c0.6-0.2,1-0.5,1.2-0.8c0.2-0.4,0.4-0.9,0.4-1.5V64.7c0-0.6-0.1-1.1-0.4-1.4c-0.2-0.3-0.6-0.6-1.2-0.7l-0.6-0.1v-0.5
	l8.4-2.7l0.5,0.5l-0.1,6.5v12.9c0,0.6,0.1,1.1,0.3,1.5c0.2,0.4,0.7,0.6,1.2,0.8l0.5,0.1V82H102.8z M126.1,82.7c-2.1,0-4-0.4-5.7-1.3
	c-1.7-0.9-3-2.2-4-4c-1-1.7-1.5-3.9-1.5-6.4c0-2.5,0.5-4.6,1.6-6.3c1.1-1.8,2.6-3.1,4.4-4c1.8-1,3.8-1.4,6-1.4
	c1.8,0,3.3,0.3,4.5,0.9c1.2,0.6,2.2,1.3,2.8,2.3c0.6,0.9,1,1.9,1,2.9c0,0.9-0.3,1.5-0.8,2c-0.5,0.5-1.2,0.7-2,0.7
	c-0.9,0-1.6-0.3-2.2-1c-0.6-0.6-0.9-1.5-1-2.5c0-0.7,0-1.2,0-1.7c0.1-0.5,0.1-1,0-1.5c-0.1-0.5-0.3-0.9-0.6-1
	c-0.2-0.2-0.6-0.3-1.1-0.3c-1.9,0-3.3,0.8-4.4,2.4c-1,1.6-1.5,4.2-1.5,7.8c0,3.1,0.6,5.5,1.7,7.1c1.2,1.6,2.9,2.4,5.3,2.4
	c1.4,0,2.6-0.3,3.5-0.8c0.9-0.5,1.7-1.3,2.6-2.3l0.5,0.4c-0.8,1.8-1.9,3.2-3.5,4.2C130.2,82.2,128.3,82.7,126.1,82.7z M145.7,82
	v-0.5l1.1-0.4c0.5-0.2,0.9-0.5,1.1-0.8c0.2-0.4,0.3-0.9,0.3-1.5v-24c0-0.6-0.1-1.1-0.3-1.4c-0.2-0.4-0.5-0.7-1.1-0.9l-1.1-0.4v-0.5
	h22l0.3,7.1h-0.5l-2-4.3c-0.3-0.6-0.6-1-0.9-1.3c-0.3-0.3-0.8-0.5-1.4-0.5h-8.3v13.3h4.9c0.6,0,1.1-0.2,1.4-0.5
	c0.3-0.3,0.6-0.8,0.9-1.3l0.9-1.8h0.5v8.3h-0.5l-0.9-1.9c-0.3-0.6-0.6-1-0.9-1.3c-0.3-0.3-0.8-0.5-1.4-0.5h-4.9v14.3h9.3
	c0.6,0,1.1-0.2,1.4-0.5c0.3-0.3,0.6-0.8,0.8-1.4l1.9-4.3h0.5l-0.3,7.1H145.7z M176.9,82.7c-1.8,0-3.3-0.5-4.5-1.5
	c-1.2-1-1.8-2.5-1.8-4.4c0-1.4,0.7-2.8,2.2-4c1.5-1.2,3.8-2.1,6.9-2.8c0.5-0.1,1-0.2,1.7-0.3c0.6-0.1,1.3-0.2,1.9-0.4v-3.6
	c0-2.1-0.3-3.5-0.8-4.4c-0.5-0.9-1.3-1.3-2.3-1.3c-0.7,0-1.3,0.2-1.7,0.7c-0.4,0.5-0.7,1.3-0.8,2.4l-0.1,0.5c-0.1,1.3-0.4,2.3-1,2.9
	c-0.6,0.6-1.3,0.9-2.2,0.9c-0.8,0-1.5-0.2-2-0.7c-0.5-0.5-0.8-1.2-0.8-2c0-1.3,0.4-2.3,1.3-3.2c0.9-0.9,2.1-1.5,3.5-1.9
	c1.4-0.4,3-0.6,4.7-0.6c2.7,0,4.8,0.7,6.3,2c1.5,1.3,2.3,3.5,2.3,6.5v10.2c0,1.4,0.6,2.1,1.9,2.1h1l0.4,0.4
	c-0.6,0.7-1.2,1.3-1.9,1.7c-0.7,0.4-1.6,0.6-2.9,0.6c-1.3,0-2.4-0.3-3.2-0.9c-0.8-0.6-1.3-1.5-1.5-2.5c-0.9,1-1.9,1.8-2.9,2.5
	C179.7,82.4,178.5,82.7,176.9,82.7z M179.8,79.9c0.6,0,1.2-0.1,1.7-0.4c0.6-0.3,1.2-0.8,1.9-1.4v-7.7c-0.3,0.1-0.6,0.1-0.9,0.2
	c-0.3,0.1-0.7,0.1-1.1,0.2c-1.4,0.4-2.5,1-3.4,1.9c-0.8,0.9-1.2,2-1.2,3.5c0,1.3,0.3,2.2,0.9,2.9C178.2,79.6,178.9,79.9,179.8,79.9z
	 M202.8,74c-2.1,0-3.9-0.4-5.4-1.1v1.6c0,1,0.5,1.5,1.4,1.7l8.6,1.6c1.4,0.3,2.7,0.6,3.9,1.1c1.2,0.4,2.1,1.1,2.8,1.9
	c0.7,0.8,1.1,1.9,1.1,3.3c0,1.5-0.5,2.9-1.5,4.1c-1,1.3-2.4,2.3-4.4,3.1c-1.9,0.8-4.3,1.2-7.1,1.2c-2.5,0-4.4-0.3-5.8-0.8
	c-1.4-0.5-2.5-1.1-3.1-1.9c-0.6-0.8-0.9-1.6-0.9-2.5c0-1.1,0.4-2.2,1.1-3.4c0.8-1.1,1.7-2,2.8-2.7c-1-0.4-1.6-0.8-2.1-1.4
	c-0.4-0.6-0.6-1.2-0.6-1.9c0-0.6,0.2-1.2,0.5-1.7c0.3-0.6,0.7-1.1,1.2-1.7l1.5-1.9c-2.2-1.3-3.4-3.3-3.4-6.1c0-2.2,0.8-4,2.3-5.4
	c1.6-1.4,3.9-2.1,7-2.1c1.6,0,2.9,0.2,4.1,0.6c1.2,0.4,2.2,0.9,2.9,1.6c1-0.2,1.9-0.4,2.8-0.7c0.9-0.4,1.7-0.9,2.4-1.5l0.6,0.5v2.3
	h-5.2c1.1,1.2,1.7,2.8,1.7,4.7c0,2.1-0.8,3.9-2.4,5.3C208.2,73.4,205.9,74,202.8,74z M202.8,73.1c1.2,0,2.1-0.5,2.7-1.5
	c0.6-1,0.9-2.7,0.9-5.1s-0.3-4-0.9-5c-0.6-1-1.4-1.5-2.6-1.5c-1.1,0-2,0.5-2.6,1.5c-0.6,1-0.9,2.7-0.9,5c0,2.4,0.3,4,0.8,5
	C200.8,72.6,201.6,73.1,202.8,73.1z M195.9,85.9c0,1.8,0.6,3.2,1.7,4.1c1.1,0.9,2.9,1.4,5.3,1.4c2.5,0,4.5-0.4,5.8-1.2
	c1.3-0.8,1.9-2,1.9-3.5c0-0.9-0.3-1.5-1-2.1c-0.6-0.5-1.7-0.9-3.2-1.2l-8.3-1.6c-0.2-0.1-0.5-0.1-0.7-0.2c-0.4,0.6-0.8,1.3-1.1,2.1
	C196.1,84.5,195.9,85.2,195.9,85.9z M216.3,82v-0.5l0.6-0.2c1.1-0.4,1.7-1.1,1.7-2.3V54.4c0-0.6-0.1-1.1-0.4-1.4
	c-0.2-0.3-0.7-0.6-1.3-0.7l-0.6-0.1v-0.5l8.4-2l0.6,0.4l-0.2,6.4v15.7c0,1.1,0,2.3,0,3.4c0,1.1,0,2.2,0,3.3c0,0.6,0.1,1.1,0.4,1.5
	c0.2,0.4,0.7,0.6,1.2,0.8l0.6,0.1V82H216.3z M239.9,59.2c2,0,3.7,0.4,5.1,1.2c1.4,0.8,2.5,1.9,3.2,3.3c0.8,1.4,1.2,3,1.2,4.7
	c0,0.3,0,0.7,0,1.1c0,0.3-0.1,0.6-0.2,0.9h-13.7c0,3.3,0.6,5.7,1.7,7.2c1.2,1.4,2.9,2.2,5.2,2.2c1.5,0,2.8-0.2,3.7-0.7
	c1-0.5,1.8-1.2,2.7-2.2l0.5,0.4c-1,1.7-2.2,3-3.8,4c-1.6,1-3.5,1.4-5.7,1.4c-2.2,0-4.1-0.5-5.8-1.4c-1.7-1-3-2.3-4-4
	s-1.4-3.8-1.4-6.3c0-2.5,0.6-4.6,1.7-6.4c1.1-1.8,2.5-3.1,4.2-4C236.2,59.6,238,59.2,239.9,59.2z M239.8,60.1
	c-0.9,0-1.7,0.3-2.3,0.8c-0.6,0.5-1.1,1.5-1.5,2.9c-0.3,1.3-0.5,3.3-0.6,5.7h7.9c0.3-3.3,0.2-5.7-0.4-7.2S241.4,60.1,239.8,60.1z
	 M265.4,56.8c-1,0-1.9-0.3-2.7-1c-0.7-0.7-1.1-1.5-1.1-2.5c0-1,0.4-1.9,1.1-2.5c0.7-0.6,1.6-1,2.7-1s1.9,0.3,2.6,1
	c0.7,0.6,1.1,1.5,1.1,2.5c0,1-0.4,1.9-1.1,2.5C267.3,56.5,266.4,56.8,265.4,56.8z M260,82v-0.5l0.6-0.2c0.6-0.2,1-0.5,1.2-0.8
	c0.2-0.4,0.4-0.9,0.4-1.5V64.7c0-0.6-0.1-1.1-0.4-1.4c-0.2-0.3-0.6-0.6-1.2-0.7l-0.6-0.1v-0.5l8.4-2.7l0.5,0.5l-0.1,6.5v12.9
	c0,0.6,0.1,1.1,0.3,1.5c0.2,0.4,0.7,0.6,1.2,0.8l0.5,0.1V82H260z M279.8,82.7c-1.5,0-2.9-0.2-4-0.6c-1.2-0.3-2.3-0.8-3.3-1.3l0-5.5
	h0.5l1.6,2.8c0.7,1.2,1.4,2.1,2.2,2.8c0.8,0.6,1.9,0.9,3.1,0.9c1.5,0,2.7-0.3,3.5-1c0.9-0.7,1.4-1.6,1.4-2.7c0-1-0.3-1.8-1-2.5
	c-0.6-0.6-1.8-1.2-3.6-1.7l-1.9-0.6c-1.9-0.6-3.3-1.4-4.4-2.6c-1.1-1.2-1.6-2.6-1.6-4.3c0-2,0.8-3.7,2.4-5.2
	c1.6-1.4,3.9-2.1,6.9-2.1c1.2,0,2.3,0.1,3.4,0.4c1.1,0.2,2.1,0.6,3.1,1.2l-0.3,5h-0.5l-1.6-2.9c-0.6-1-1.2-1.7-1.7-2.1
	c-0.6-0.4-1.4-0.6-2.5-0.6c-1,0-2,0.3-2.9,0.9c-0.9,0.6-1.4,1.4-1.4,2.5c0,1,0.4,1.9,1.1,2.5c0.8,0.6,2,1.2,3.5,1.7l2.1,0.6
	c2.2,0.7,3.8,1.6,4.7,2.8c0.9,1.2,1.4,2.6,1.4,4.2c0,2.2-0.9,4-2.7,5.4C285.5,82,283,82.7,279.8,82.7z M300.1,82v-0.5l0.6-0.2
	c1.1-0.3,1.6-1.1,1.6-2.3V64.7c0-0.7-0.1-1.2-0.3-1.5c-0.2-0.3-0.6-0.6-1.2-0.7l-0.7-0.2v-0.5l7.9-2.7l0.5,0.5l0.4,2.8
	c1.1-1,2.3-1.7,3.6-2.3c1.4-0.6,2.7-0.9,4-0.9c2,0,3.6,0.6,4.6,1.7c1.1,1.1,1.7,2.8,1.7,5.1v13.2c0,1.2,0.6,1.9,1.7,2.3l0.4,0.1V82
	H314v-0.5l0.6-0.2c1.1-0.3,1.6-1.1,1.6-2.3V64.4c0-2-1-2.9-2.9-2.9c-1.3,0-2.8,0.7-4.4,2v15.6c0,1.2,0.5,1.9,1.6,2.3l0.4,0.1V82
	H300.1z M337.4,82.7c-2.3,0-4.4-0.5-6.1-1.4c-1.7-1-3.1-2.4-4-4.1c-0.9-1.8-1.4-3.9-1.4-6.3c0-2.4,0.5-4.5,1.5-6.2
	c1-1.7,2.4-3.1,4.1-4c1.7-1,3.7-1.4,5.9-1.4c2.2,0,4.1,0.5,5.8,1.4c1.7,0.9,3.1,2.3,4,4c1,1.7,1.5,3.8,1.5,6.3
	c0,2.4-0.5,4.5-1.4,6.3c-0.9,1.7-2.2,3.1-4,4.1C341.7,82.2,339.7,82.7,337.4,82.7z M337.4,81.8c1.1,0,1.9-0.3,2.6-0.9
	c0.6-0.6,1.1-1.7,1.4-3.3c0.3-1.6,0.5-3.8,0.5-6.6c0-2.9-0.2-5.1-0.5-6.7c-0.3-1.6-0.7-2.7-1.4-3.3c-0.6-0.6-1.5-0.9-2.6-0.9
	c-1.1,0-1.9,0.3-2.6,0.9c-0.6,0.6-1.1,1.7-1.4,3.3c-0.3,1.6-0.4,3.8-0.4,6.7c0,2.9,0.1,5.1,0.4,6.6c0.3,1.6,0.8,2.7,1.4,3.3
	C335.4,81.5,336.3,81.8,337.4,81.8z M359,82.1L352,62.7c-0.3-1-1-1.7-2-2.1l-0.8-0.3v-0.5h11.3v0.5l-0.7,0.2
	c-1.2,0.4-1.6,1.1-1.2,2.2l4.3,13l3.8-10.1l-0.9-2.6c-0.2-0.7-0.4-1.2-0.7-1.5c-0.2-0.4-0.5-0.6-0.9-0.8l-0.8-0.4v-0.5h9.5v0.5
	l-0.6,0.3c-0.5,0.2-0.7,0.4-0.8,0.7c-0.1,0.3,0,0.8,0.2,1.4l4.2,12.8l4.4-12.7c0.4-1.2,0.2-1.9-0.7-2.2l-1-0.3v-0.5h5.5v0.5
	l-1.1,0.3c-0.5,0.2-0.9,0.4-1.1,0.7c-0.2,0.3-0.4,0.7-0.6,1.3l-6.6,19.5h-2.3l-5.1-15l-5.4,15H359z M393.8,82v-0.5l0.9-0.3
	c0.6-0.2,1-0.5,1.2-0.8c0.2-0.4,0.3-0.9,0.3-1.5V54.8c0-0.6-0.1-1.1-0.3-1.5s-0.6-0.7-1.2-0.9l-0.9-0.4v-0.5H405
	c4.6,0,7.9,0.8,9.9,2.5c2.1,1.7,3.1,3.8,3.1,6.6c0,1.7-0.4,3.4-1.3,4.8c-0.8,1.4-2.2,2.6-4.1,3.4c-1.9,0.9-4.5,1.3-7.8,1.3h-1.6v8.5
	c0,1.2,0.6,2,1.8,2.3l1.4,0.4V82H393.8z M403.2,69.4h1.7c1.5,0,2.7-0.2,3.7-0.7c1-0.5,1.7-1.3,2.1-2.6c0.5-1.2,0.7-2.9,0.7-5.1
	c0-2.2-0.3-3.9-0.8-5.2c-0.5-1.2-1.2-2.1-2.2-2.5c-1-0.5-2.2-0.7-3.7-0.7h-1.6V69.4z M418.5,82v-0.5l0.6-0.2
	c1.1-0.4,1.7-1.1,1.7-2.3V54.4c0-0.6-0.1-1.1-0.4-1.4c-0.2-0.3-0.7-0.6-1.3-0.7l-0.6-0.1v-0.5l8.4-2l0.6,0.4l-0.2,6.4v15.7
	c0,1.1,0,2.3,0,3.4c0,1.1,0,2.2,0,3.3c0,0.6,0.1,1.1,0.4,1.5c0.2,0.4,0.7,0.6,1.2,0.8l0.6,0.1V82H418.5z M438.7,82.7
	c-1.2,0-2.3-0.2-3.3-0.7c-1-0.5-1.8-1.2-2.3-2.2c-0.6-1-0.8-2.4-0.8-4.1l0.1-11.8c0-0.7-0.1-1.2-0.4-1.5c-0.2-0.3-0.6-0.5-1.2-0.6
	l-0.6-0.2v-0.5l8.2-1.6l0.5,0.5l-0.2,6.5v11.1c0,1,0.3,1.7,0.8,2.2c0.6,0.5,1.3,0.7,2.2,0.7s1.6-0.1,2.3-0.4c0.7-0.2,1.3-0.6,2-1.1
	l0.2-15c0-0.7-0.1-1.2-0.3-1.5c-0.2-0.3-0.6-0.5-1.2-0.6l-0.5-0.1v-0.5l8.1-1.7l0.5,0.5l-0.1,6.5v12.5c0,0.7,0.1,1.2,0.3,1.6
	c0.2,0.4,0.6,0.7,1.2,0.9l0.5,0.1V82l-8.1,0.5l-0.4-2.7c-1,0.8-2.1,1.5-3.3,2.1C441.7,82.4,440.3,82.7,438.7,82.7z M455.6,82v-0.5
	l0.7-0.2c0.6-0.2,1-0.5,1.2-0.8c0.2-0.4,0.4-0.8,0.4-1.4V64.7c0-0.7-0.1-1.2-0.4-1.5c-0.2-0.3-0.6-0.6-1.2-0.7l-0.7-0.2v-0.5
	l7.9-2.7l0.5,0.5l0.4,4V64c0.4-0.9,1-1.6,1.7-2.3c0.7-0.7,1.5-1.3,2.3-1.8c0.9-0.5,1.7-0.7,2.5-0.7c1.2,0,2.1,0.3,2.7,1
	c0.6,0.6,0.9,1.5,0.9,2.4c0,1-0.3,1.9-0.9,2.4c-0.6,0.6-1.3,0.8-2.1,0.8c-1.3,0-2.4-0.6-3.4-1.9l-0.1-0.1c-0.3-0.4-0.7-0.7-1.1-0.7
	c-0.4-0.1-0.8,0.1-1.1,0.6c-0.3,0.3-0.6,0.6-0.8,1c-0.2,0.4-0.4,0.8-0.6,1.3v12.8c0,1.2,0.5,2,1.6,2.3l1.5,0.4V82H455.6z
	 M480.7,82.7c-1.8,0-3.3-0.5-4.5-1.5c-1.2-1-1.8-2.5-1.8-4.4c0-1.4,0.7-2.8,2.2-4c1.5-1.2,3.8-2.1,6.9-2.8c0.5-0.1,1-0.2,1.7-0.3
	c0.6-0.1,1.3-0.2,1.9-0.4v-3.6c0-2.1-0.3-3.5-0.8-4.4c-0.5-0.9-1.3-1.3-2.3-1.3c-0.7,0-1.3,0.2-1.7,0.7c-0.4,0.5-0.7,1.3-0.8,2.4
	l-0.1,0.5c-0.1,1.3-0.4,2.3-1,2.9c-0.6,0.6-1.3,0.9-2.2,0.9c-0.8,0-1.5-0.2-2-0.7s-0.8-1.2-0.8-2c0-1.3,0.4-2.3,1.3-3.2
	c0.9-0.9,2.1-1.5,3.5-1.9c1.4-0.4,3-0.6,4.7-0.6c2.7,0,4.8,0.7,6.3,2c1.5,1.3,2.3,3.5,2.3,6.5v10.2c0,1.4,0.6,2.1,1.9,2.1h1l0.4,0.4
	c-0.6,0.7-1.2,1.3-1.9,1.7c-0.7,0.4-1.6,0.6-2.9,0.6c-1.3,0-2.4-0.3-3.2-0.9c-0.8-0.6-1.3-1.5-1.5-2.5c-0.9,1-1.9,1.8-2.9,2.5
	C483.5,82.4,482.2,82.7,480.7,82.7z M483.5,79.9c0.6,0,1.2-0.1,1.7-0.4c0.6-0.3,1.2-0.8,1.9-1.4v-7.7c-0.3,0.1-0.6,0.1-0.9,0.2
	c-0.3,0.1-0.7,0.1-1.1,0.2c-1.4,0.4-2.5,1-3.4,1.9c-0.8,0.9-1.2,2-1.2,3.5c0,1.3,0.3,2.2,0.9,2.9C482,79.6,482.7,79.9,483.5,79.9z
	 M497,82v-0.5l0.6-0.2c1.1-0.4,1.7-1.1,1.7-2.3V54.4c0-0.6-0.1-1.1-0.4-1.4c-0.2-0.3-0.7-0.6-1.3-0.7l-0.6-0.1v-0.5l8.4-2l0.6,0.4
	l-0.2,6.4v15.7c0,1.1,0,2.3,0,3.4c0,1.1,0,2.2,0,3.3c0,0.6,0.1,1.1,0.4,1.5c0.2,0.4,0.7,0.6,1.2,0.8l0.6,0.1V82H497z"/>
<path class="st1" d="M515.1,82.7c-1.1,0-2-0.4-2.8-1.2c-0.8-0.8-1.2-1.7-1.2-2.8c0-1.1,0.4-2,1.2-2.8c0.8-0.8,1.7-1.2,2.8-1.2
	s2,0.4,2.8,1.2c0.8,0.8,1.1,1.7,1.1,2.8c0,1.1-0.4,2-1.1,2.8C517.1,82.3,516.2,82.7,515.1,82.7z"/>
</svg>
