<svg xmlns="http://www.w3.org/2000/svg">
    <symbol id="icon-group" viewBox="0 0 27.7 20.7" x="0px" y="0px" width="27.7px" height="20.7px">
        <title>A group of three people</title>
        <path d="M11.7,3.9c0-1.2,0.9-2.2,2.1-2.2s2.1,1,2.1,2.2C16,5.1,15,6,13.9,6S11.7,5.1,11.7,3.9z M17.7,3.9 C17.7,1.8,16,0,13.9,0C11.7,0,10,1.8,10,3.9c0,2.2,1.7,3.9,3.8,3.9C16,7.8,17.7,6,17.7,3.9z"/>
        <path d="M26,16.3c0,0.3-0.3,0.6-0.6,0.6h-5.9v-3.7c0-0.8-0.2-1.5-0.5-2.2c0.5-0.4,1.2-0.7,1.9-0.7h2.3 c1.6,0,2.9,1.3,2.9,2.9V16.3z M17.8,18.1c0,0.5-0.4,0.9-0.9,0.9h-6.2c-0.5,0-0.9-0.4-0.9-0.9v-4.9c0-1.6,1.3-2.9,2.9-2.9H15 c1.6,0,2.9,1.3,2.9,2.9L17.8,18.1L17.8,18.1z M1.7,16v-2.9c0-1.6,1.3-2.9,2.9-2.9h2.3c0.7,0,1.3,0.3,1.9,0.7 c-0.3,0.7-0.5,1.4-0.5,2.2v3.7H2.6C2.1,16.9,1.7,16.5,1.7,16z M23.1,8.5h-2.3c-1.1,0-2.1,0.4-2.9,1.1c-0.8-0.7-1.8-1.1-2.9-1.1h-2.3 c-1.1,0-2.1,0.4-2.9,1.1C8.9,8.9,7.9,8.5,6.8,8.5H4.6C2.1,8.5,0,10.6,0,13.2V16c0,1.5,1.1,2.6,2.6,2.6h5.6c0.3,1.2,1.3,2,2.5,2H17 c1.2,0,2.3-0.9,2.5-2h5.9c1.3,0,2.3-1.1,2.3-2.3v-3.1C27.7,10.6,25.6,8.5,23.1,8.5z"/>
        <path d="M19.9,3.9c0-1.2,0.9-2.2,2.1-2.2s2.1,1,2.1,2.2C24.1,5.1,23.2,6,22,6S19.9,5.1,19.9,3.9z M25.8,3.9 C25.8,1.8,24.1,0,22,0c-2.1,0-3.8,1.8-3.8,3.9c0,2.2,1.7,3.9,3.8,3.9C24.1,7.8,25.8,6,25.8,3.9z"/>
        <path d="M3.6,3.9c0-1.2,0.9-2.2,2.1-2.2s2.1,1,2.1,2.2C7.9,5.1,6.9,6,5.7,6S3.6,5.1,3.6,3.9z M9.5,3.9 C9.5,1.8,7.8,0,5.7,0S1.9,1.8,1.9,3.9c0,2.2,1.7,3.9,3.8,3.9S9.5,6,9.5,3.9z"/>
    </symbol>
</svg>
