<svg id="Layer_1" data-name="Layer 1" xmlns="http://www.w3.org/2000/svg" xmlns:xlink="http://www.w3.org/1999/xlink" viewBox="0 0 430 100"><defs><style>.cls-1{fill:#163f47;}.cls-2{fill:url(#linear-gradient);}.cls-3{fill:none;}.cls-4{fill:#f78d24;}.cls-5,.cls-6{fill:#787878;}.cls-5{stroke:#787878;stroke-miterlimit:10;stroke-width:0.5px;}</style><linearGradient id="linear-gradient" x1="410.66" y1="27.8" x2="383.14" y2="55.32" gradientUnits="userSpaceOnUse"><stop offset="0" stop-color="#007b8c"/><stop offset="0.91" stop-color="#163f47"/></linearGradient></defs><path class="cls-1" d="M20.14,41a20.31,20.31,0,0,1,1.52-8,18.77,18.77,0,0,1,4.15-6.19,18.51,18.51,0,0,1,6.3-4,23,23,0,0,1,16,0,18.51,18.51,0,0,1,6.3,4A18.77,18.77,0,0,1,58.52,33,20.31,20.31,0,0,1,60,41a20.38,20.38,0,0,1-1.52,8,18.83,18.83,0,0,1-4.15,6.18,18.36,18.36,0,0,1-6.3,4,21.68,21.68,0,0,1-8,1.44,21.68,21.68,0,0,1-8-1.44,18.36,18.36,0,0,1-6.3-4A18.83,18.83,0,0,1,21.66,49,20.38,20.38,0,0,1,20.14,41Zm6.7,0a15.8,15.8,0,0,0,.92,5.46,12.58,12.58,0,0,0,6.86,7.34,14.39,14.39,0,0,0,10.94,0,12.58,12.58,0,0,0,6.86-7.34,16.69,16.69,0,0,0,0-10.93,12.58,12.58,0,0,0-6.86-7.34,14.39,14.39,0,0,0-10.94,0,12.58,12.58,0,0,0-6.86,7.34A15.9,15.9,0,0,0,26.84,41Z"/><path class="cls-1" d="M70.38,22.35H74.6a1,1,0,0,1,1,1v4.42h.16a18.38,18.38,0,0,1,5.94-4.71,16.7,16.7,0,0,1,7.46-1.67,21.17,21.17,0,0,1,8,1.47A18,18,0,0,1,103.37,27a19,19,0,0,1,4,6.23A20.8,20.8,0,0,1,108.79,41a20.84,20.84,0,0,1-1.43,7.82,19.37,19.37,0,0,1-4,6.22,17.82,17.82,0,0,1-6,4.11,18.41,18.41,0,0,1-7.34,1.48,17.24,17.24,0,0,1-8.82-2.2,14.29,14.29,0,0,1-5.54-5.38H75.6V76.88a1,1,0,0,1-1,1H70.38a1,1,0,0,1-1-1V23.35A1,1,0,0,1,70.38,22.35ZM75.6,41a15.57,15.57,0,0,0,.92,5.46,12.58,12.58,0,0,0,6.86,7.34,14.37,14.37,0,0,0,10.93,0,12.58,12.58,0,0,0,6.86-7.34,16.69,16.69,0,0,0,0-10.93,12.58,12.58,0,0,0-6.86-7.34,14.37,14.37,0,0,0-10.93,0,12.58,12.58,0,0,0-6.86,7.34A15.66,15.66,0,0,0,75.6,41Z"/><path class="cls-1" d="M151,52.28a1,1,0,0,1,.16,1.42,18.24,18.24,0,0,1-6.7,5.23,23.13,23.13,0,0,1-9.25,1.72,19.24,19.24,0,0,1-7.9-1.56,17.68,17.68,0,0,1-6-4.19,18.41,18.41,0,0,1-3.75-6.22A22.06,22.06,0,0,1,116.29,41a21.36,21.36,0,0,1,1.44-7.94,18.51,18.51,0,0,1,4-6.23,18.07,18.07,0,0,1,6.06-4,20.2,20.2,0,0,1,7.66-1.43,19.28,19.28,0,0,1,7.19,1.31,15.66,15.66,0,0,1,5.62,3.83,17.24,17.24,0,0,1,3.63,6.15,24.83,24.83,0,0,1,1.28,8.26v1a1,1,0,0,1-1,1h-28a1,1,0,0,0-1,1.18,13,13,0,0,0,1,3.41,13.22,13.22,0,0,0,2.6,3.83,11.76,11.76,0,0,0,3.75,2.59,11.4,11.4,0,0,0,4.71,1,15,15,0,0,0,6.86-1.43,15.2,15.2,0,0,0,4.41-3.5,1,1,0,0,1,1.37-.14Zm-5.62-14.61a1,1,0,0,0,1-1.13,10.4,10.4,0,0,0-3-6.53c-2-1.92-4.68-2.88-8.13-2.88A12,12,0,0,0,126.83,30a11.65,11.65,0,0,0-3.62,6.42,1,1,0,0,0,1,1.24Z"/><path class="cls-1" d="M162.82,31.2c0-1.7-.06-3.3-.16-4.78-.08-1.09-.13-2.1-.15-3.05a1,1,0,0,1,1-1h3.9a1,1,0,0,1,1,1c0,.68,0,1.37.07,2.05.05,1,.08,2.05.08,3.11h.16a10.72,10.72,0,0,1,1.8-2.63,12.94,12.94,0,0,1,2.75-2.28,14.9,14.9,0,0,1,7.9-2.19,16.29,16.29,0,0,1,6.34,1.12,11.87,11.87,0,0,1,4.43,3.11,12.52,12.52,0,0,1,2.59,4.82,21.75,21.75,0,0,1,.84,6.19V58.69a1,1,0,0,1-1,1h-4.22a1,1,0,0,1-1-1V37.27a11.89,11.89,0,0,0-2.08-7.42c-1.38-1.81-3.54-2.72-6.46-2.72a12.2,12.2,0,0,0-5.23,1,9.32,9.32,0,0,0-3.59,2.95,13.29,13.29,0,0,0-2.07,4.55A23,23,0,0,0,169,41.5V58.69a1,1,0,0,1-1,1h-4.22a1,1,0,0,1-1-1Z"/><path class="cls-1" d="M210.21,50.47a1,1,0,0,1,1.39.15A15.23,15.23,0,0,0,215,53.55a10.41,10.41,0,0,0,5.54,1.35,13.39,13.39,0,0,0,2.92-.32,8.68,8.68,0,0,0,2.67-1,5.93,5.93,0,0,0,1.92-1.8,4.63,4.63,0,0,0,.71-2.59,4.22,4.22,0,0,0-.67-2.48,6,6,0,0,0-1.8-1.63A10.52,10.52,0,0,0,223.75,44c-1-.27-1.95-.5-3-.72-1.75-.37-3.43-.8-5-1.27a16.31,16.31,0,0,1-4.19-1.88,8.73,8.73,0,0,1-2.87-3,9.2,9.2,0,0,1-1.08-4.71,9.41,9.41,0,0,1,1.2-4.79A10.36,10.36,0,0,1,212,24.18a15.51,15.51,0,0,1,4.47-2.07,18.11,18.11,0,0,1,5.1-.72A17.16,17.16,0,0,1,229,23a11.31,11.31,0,0,1,4.84,4.37,1,1,0,0,1-.32,1.34l-3.57,2.36a1,1,0,0,1-1.34-.23,9.8,9.8,0,0,0-2.64-2.45,8.75,8.75,0,0,0-4.75-1.24,11.12,11.12,0,0,0-2.59.32,8.4,8.4,0,0,0-2.35,1,5.5,5.5,0,0,0-1.72,1.64,3.94,3.94,0,0,0-.68,2.27,2.92,2.92,0,0,0,.76,2,6.86,6.86,0,0,0,2.07,1.47,17.79,17.79,0,0,0,3,1.12c1.14.32,2.32.58,3.55.8A36.84,36.84,0,0,1,228,39a13.8,13.8,0,0,1,3.91,2,9.08,9.08,0,0,1,2.63,3.19,10.46,10.46,0,0,1,1,4.71,10.73,10.73,0,0,1-1.28,5.42A10.54,10.54,0,0,1,230.81,58,14.82,14.82,0,0,1,226,60a23.72,23.72,0,0,1-5.47.64,21,21,0,0,1-8.25-1.48,14.32,14.32,0,0,1-5.69-4.67,1,1,0,0,1,.2-1.39Z"/><path class="cls-1" d="M263.6,27.61h-9a1,1,0,0,0-1,1V46.28c0,1.23,0,2.36.08,3.4a6.84,6.84,0,0,0,.64,2.71A4.28,4.28,0,0,0,256,54.22a6.14,6.14,0,0,0,3.2.68,12.45,12.45,0,0,0,2.79-.32,10.88,10.88,0,0,0,1.41-.4,1,1,0,0,1,1.36.89l.15,3.52a1,1,0,0,1-.62,1,14.83,14.83,0,0,1-2.9.77,23.35,23.35,0,0,1-3.71.32,13.61,13.61,0,0,1-5.35-.88,7.27,7.27,0,0,1-3.11-2.47,9.31,9.31,0,0,1-1.48-3.95,36.29,36.29,0,0,1-.35-5.23V28.61a1,1,0,0,0-1-1h-6.14a1,1,0,0,1-1-1V23.34a1,1,0,0,1,1-1h6.14a1,1,0,0,0,1-1V12.73a1,1,0,0,1,1-1h4.23a1,1,0,0,1,1,1v8.62a1,1,0,0,0,1,1h9a1,1,0,0,1,1,1v3.27A1,1,0,0,1,263.6,27.61Z"/><path class="cls-1" d="M272.47,27.85a1,1,0,0,1,0-1.41,17.54,17.54,0,0,1,6.11-3.66,23.88,23.88,0,0,1,8-1.39q8.3,0,12,3.91t3.67,11.89v16c0,1.06.06,2.17.16,3.31.07.71.15,1.39.23,2a1,1,0,0,1-1,1.12h-4a1,1,0,0,1-1-.84,15.32,15.32,0,0,1-.18-2c0-1,0-2,0-2.76h-.16a14.49,14.49,0,0,1-4.91,4.71A14.08,14.08,0,0,1,284,60.65a19.43,19.43,0,0,1-5.38-.72,13.46,13.46,0,0,1-4.39-2.11,10.59,10.59,0,0,1-3-3.48,10,10,0,0,1-1.11-4.78,10.44,10.44,0,0,1,2.39-7.27,14.7,14.7,0,0,1,5.95-3.91,29.1,29.1,0,0,1,7.66-1.59c2.73-.21,5.25-.32,7.54-.32H296V35.35a7.62,7.62,0,0,0-2.43-6.14,10.25,10.25,0,0,0-6.83-2.08,18.34,18.34,0,0,0-5.94,1,14.21,14.21,0,0,0-4.43,2.45,1,1,0,0,1-1.37-.06Zm17.35,13.89a22.32,22.32,0,0,0-9.5,1.67,5.69,5.69,0,0,0-3.51,5.51q0,3.51,2.35,5A10.81,10.81,0,0,0,285,55.38a11.34,11.34,0,0,0,4.75-.92A10.08,10.08,0,0,0,293.17,52a10.54,10.54,0,0,0,2.07-3.55,14.4,14.4,0,0,0,.8-4.35v-1.4a1,1,0,0,0-1-1Z"/><path class="cls-1" d="M333.1,27.61h-9a1,1,0,0,0-1,1V46.28c0,1.23,0,2.36.08,3.4a7,7,0,0,0,.64,2.71,4.28,4.28,0,0,0,1.67,1.83,6.14,6.14,0,0,0,3.2.68,12.45,12.45,0,0,0,2.79-.32,11.34,11.34,0,0,0,1.41-.4,1,1,0,0,1,1.36.89l.15,3.52a1,1,0,0,1-.62,1,14.83,14.83,0,0,1-2.9.77,23.35,23.35,0,0,1-3.71.32,13.61,13.61,0,0,1-5.35-.88,7.27,7.27,0,0,1-3.11-2.47,9.3,9.3,0,0,1-1.47-3.95,34.84,34.84,0,0,1-.36-5.23V28.61a1,1,0,0,0-1-1h-6.14a1,1,0,0,1-1-1V23.35a1,1,0,0,1,1-1h6.14a1,1,0,0,0,1-1V12.73a1,1,0,0,1,1-1h4.22a1,1,0,0,1,1,1v8.61a1,1,0,0,0,1,1h9a1,1,0,0,1,1,1v3.26A1,1,0,0,1,333.1,27.61Z"/><path class="cls-1" d="M374.31,52.28a1,1,0,0,1,.16,1.42,18.22,18.22,0,0,1-6.69,5.23,23.18,23.18,0,0,1-9.26,1.72,19.24,19.24,0,0,1-7.9-1.56,17.74,17.74,0,0,1-5.94-4.19,18.1,18.1,0,0,1-3.75-6.22A22.06,22.06,0,0,1,339.61,41,21.56,21.56,0,0,1,341,33.08a18.51,18.51,0,0,1,4-6.23,18.21,18.21,0,0,1,6.07-4,20.16,20.16,0,0,1,7.66-1.43,19.23,19.23,0,0,1,7.18,1.31,15.7,15.7,0,0,1,5.63,3.83,17.38,17.38,0,0,1,3.63,6.15,24.84,24.84,0,0,1,1.27,8.26v1a1,1,0,0,1-1,1h-28a1,1,0,0,0-1,1.18,13.4,13.4,0,0,0,1,3.41,13.19,13.19,0,0,0,2.59,3.83,12,12,0,0,0,3.75,2.59,11.47,11.47,0,0,0,4.71,1,15,15,0,0,0,6.86-1.43,15.24,15.24,0,0,0,4.41-3.5,1,1,0,0,1,1.38-.14ZM368.7,37.67a1,1,0,0,0,1-1.13,10.34,10.34,0,0,0-3-6.53q-3-2.88-8.14-2.88A12,12,0,0,0,350.14,30a11.71,11.71,0,0,0-3.62,6.42,1,1,0,0,0,1,1.24Z"/><path class="cls-2" d="M386.17,50.46a1,1,0,0,1,1.37.15A15.33,15.33,0,0,0,391,53.55a10.41,10.41,0,0,0,5.54,1.35,13.23,13.23,0,0,0,2.91-.32,8.64,8.64,0,0,0,2.68-1,5.9,5.9,0,0,0,1.91-1.8,4.55,4.55,0,0,0,.72-2.59,4.23,4.23,0,0,0-.68-2.48,5.88,5.88,0,0,0-1.79-1.63A10.43,10.43,0,0,0,399.69,44c-.95-.27-1.94-.5-2.95-.72-1.75-.37-3.43-.8-5-1.27a16.39,16.39,0,0,1-4.18-1.88,8.86,8.86,0,0,1-2.88-3,9.2,9.2,0,0,1-1.07-4.71,9.41,9.41,0,0,1,1.19-4.79A10.46,10.46,0,0,1,388,24.18a15.51,15.51,0,0,1,4.47-2.07,18.18,18.18,0,0,1,5.11-.72A17.16,17.16,0,0,1,404.92,23a11.27,11.27,0,0,1,4.84,4.38,1,1,0,0,1-.32,1.33l-3.57,2.37a1,1,0,0,1-1.34-.23,9.68,9.68,0,0,0-2.64-2.46,8.77,8.77,0,0,0-4.75-1.24,11.12,11.12,0,0,0-2.59.32,8.46,8.46,0,0,0-2.36,1,5.58,5.58,0,0,0-1.71,1.64,3.87,3.87,0,0,0-.68,2.27,2.92,2.92,0,0,0,.76,2,6.62,6.62,0,0,0,2.07,1.47,18,18,0,0,0,3,1.12c1.15.32,2.33.58,3.56.8a37.12,37.12,0,0,1,4.7,1.23,13.66,13.66,0,0,1,3.91,2,9,9,0,0,1,2.64,3.19,10.6,10.6,0,0,1,.95,4.71,10.73,10.73,0,0,1-1.27,5.42A10.54,10.54,0,0,1,406.76,58,14.82,14.82,0,0,1,402,60a23.85,23.85,0,0,1-5.47.64,21.13,21.13,0,0,1-8.26-1.48,14.25,14.25,0,0,1-5.68-4.68,1,1,0,0,1,.19-1.38Z"/><rect class="cls-3" x="364.56" y="71.64" width="7.72" height="8.84"/><path class="cls-4" d="M372.79,78.23a.15.15,0,0,0-.15-.14h-4.78a1.74,1.74,0,0,0-.56.11,1.59,1.59,0,0,0-.59.4c0,.05-.09.05-.11,0a5,5,0,0,1-.17-.55.81.81,0,0,1,0-.38,1.49,1.49,0,0,1,.89-1,3.9,3.9,0,0,1,1.22-.35,8.77,8.77,0,0,1,1.15-.07h2.94a.15.15,0,0,0,.15-.14V75a.15.15,0,0,0-.15-.15h-2.28c-.44,0-.89,0-1.33,0a3.73,3.73,0,0,0-.47,0,6.68,6.68,0,0,0-1.58.41,3.14,3.14,0,0,0-1.57,1.2,1.23,1.23,0,0,0-.16.39,2.59,2.59,0,0,0,.16,1.56,5.68,5.68,0,0,0,.7,1.22c.18.25.39.49.58.73a.19.19,0,0,0,.22,0,.16.16,0,0,0,.11-.15,1.16,1.16,0,0,1,.19-.44,1.12,1.12,0,0,1,.93-.43l1.55,0h3a.11.11,0,0,0,.11-.11Z"/><path class="cls-4" d="M366.67,73h6a.15.15,0,0,0,.15-.14V71.76a.15.15,0,0,0-.15-.14h-6a.23.23,0,0,0-.17.22v.89A.25.25,0,0,0,366.67,73Z"/><path class="cls-5" d="M336.57,71.45a3.8,3.8,0,0,1,2.11.53c.2.14.36.37.05.72a.57.57,0,0,1-.19.18,3.1,3.1,0,0,0-2-.63c-1.83,0-2.74,1.4-2.74,3.22s1,3.25,2.74,3.25a2.77,2.77,0,0,0,1.56-.43c.13-.08.27-.14.38.06l.19.29a.21.21,0,0,1-.06.34,3.56,3.56,0,0,1-2.07.54c-2.49,0-3.69-1.7-3.7-4S334.07,71.45,336.57,71.45Z"/><path class="cls-5" d="M341.57,72.18c0-.26-.12-.62.31-.62h.32c.33,0,.34.3.33.54,0,1.33,0,5.52,0,6.7,0,.25.12.61-.3.61h-.31c-.33,0-.34-.31-.33-.55C341.6,78.26,341.57,73.49,341.57,72.18Z"/><path class="cls-5" d="M344.93,71.93c-.09-.27,0-.37.21-.37h.28c.3,0,.35.2.41.36s2,5.88,2.28,6.75h.08c.25-.83,2.17-6.4,2.3-6.74s.13-.37.42-.37h.3c.18,0,.28.12.2.35-.17.53-2.32,6.62-2.43,7a.62.62,0,0,1-.64.47h-.4a.63.63,0,0,1-.66-.5C347.18,78.57,345,72.25,344.93,71.93Z"/><path class="cls-5" d="M353.78,72.18c0-.26-.12-.62.31-.62h.32c.33,0,.34.3.33.54-.05,1.33,0,5.52,0,6.7,0,.25.12.61-.3.61h-.32c-.32,0-.33-.31-.32-.55C353.81,78.26,353.78,73.49,353.78,72.18Z"/><path class="cls-5" d="M361.14,71.45a3.75,3.75,0,0,1,2.1.53c.21.14.37.37.06.72a.55.55,0,0,1-.2.18,3.05,3.05,0,0,0-2-.63c-1.84,0-2.75,1.4-2.75,3.22s1,3.25,2.75,3.25a2.77,2.77,0,0,0,1.56-.43c.12-.08.26-.14.38.06l.18.29a.21.21,0,0,1-.06.34,3.52,3.52,0,0,1-2.06.54c-2.49,0-3.69-1.7-3.71-4S358.64,71.45,361.14,71.45Z"/><path class="cls-5" d="M377.36,72a.5.5,0,0,1,.54-.41h.38c.38,0,.49.17.59.47s2.48,6.7,2.59,7,0,.34-.27.34H381c-.34,0-.36-.21-.4-.34s-.42-1.08-.65-1.65h-3.66c-.26.71-.56,1.44-.62,1.63s-.22.36-.39.36h-.35c-.18,0-.26-.13-.17-.37C374.87,78.54,377.23,72.37,377.36,72Zm2.32,4.73c-.63-1.72-1.38-3.81-1.57-4.37H378c-.17.54-.9,2.64-1.57,4.37Z"/><path class="cls-5" d="M386.91,71.45a4.41,4.41,0,0,1,2.35.54.43.43,0,0,1,.14.74,1.11,1.11,0,0,1-.23.19,3.65,3.65,0,0,0-2.23-.67c-1.57,0-2.71,1.17-2.71,3.2,0,2.25,1.15,3.27,2.52,3.27C389.13,78.72,389,76,389,76h-1.9c-.15,0-.18-.08-.18-.19v-.41c0-.12.07-.19.22-.19h2.49c.25,0,.3.07.3.31s-.09,3.15-.06,3.55,0,.39-.24.39h-.39c-.19,0-.27-.1-.27-.31s.06-.79.05-.94h-.11a2.42,2.42,0,0,1-2.27,1.36c-2.34,0-3.38-1.75-3.39-4S384.6,71.45,386.91,71.45Z"/><path class="cls-5" d="M392.6,77.74c0-1.29,0-3.47,0-4.75,0-.3,0-.59,0-.9s0-.53.27-.53h.35c.38,0,.3.39.3.67,0,.13,0,.27,0,.62,0,1.48,0,4.72,0,5.72,1,0,3.22,0,3.59,0a.27.27,0,0,1,.32.3v.27c0,.2-.06.3-.3.3H393c-.35,0-.41-.27-.41-.54Z"/><path class="cls-5" d="M399.84,72.18c0-.26-.07-.62.36-.62h4.37c.24,0,.29.14.29.31v.25c0,.2-.07.28-.29.28h-3.79v2.73h3.31c.12,0,.23,0,.23.25v.31c0,.17-.06.22-.22.22-.35,0-2.24,0-3.32,0,0,1,0,1.89,0,2.67,1,0,3.33,0,3.76,0,.19,0,.29.11.29.32v.31c0,.19-.05.24-.29.24h-4.34c-.31,0-.36-.31-.35-.55C399.9,78.26,399.84,72.37,399.84,72.18Z"/><path class="cls-6" d="M268.38,79.42a2.64,2.64,0,0,1-1.14-.23,2.06,2.06,0,0,1-.87-.71h-.08a8.19,8.19,0,0,1,.08,1.07v2.64h-1v-9.3h.79l.14.87h.05a2.31,2.31,0,0,1,.87-.76,2.73,2.73,0,0,1,1.14-.23,2.37,2.37,0,0,1,2,.87,4.63,4.63,0,0,1,0,4.91A2.38,2.38,0,0,1,268.38,79.42Zm-.14-5.83a1.72,1.72,0,0,0-1.42.55,2.7,2.7,0,0,0-.45,1.73v.22a3.24,3.24,0,0,0,.45,1.94,1.7,1.7,0,0,0,1.44.58,1.51,1.51,0,0,0,1.31-.67,3.24,3.24,0,0,0,.47-1.86,3.08,3.08,0,0,0-.47-1.84A1.57,1.57,0,0,0,268.24,73.59Z"/><path class="cls-6" d="M278.1,76.09a3.55,3.55,0,0,1-.79,2.45,2.79,2.79,0,0,1-2.19.88,2.91,2.91,0,0,1-1.53-.4,2.71,2.71,0,0,1-1-1.16,4.05,4.05,0,0,1-.36-1.77,3.57,3.57,0,0,1,.78-2.45,2.78,2.78,0,0,1,2.18-.87,2.71,2.71,0,0,1,2.14.9A3.5,3.5,0,0,1,278.1,76.09Zm-4.9,0a3.05,3.05,0,0,0,.5,1.88,1.69,1.69,0,0,0,1.44.64,1.71,1.71,0,0,0,1.45-.64,3,3,0,0,0,.5-1.88,3,3,0,0,0-.5-1.86,1.74,1.74,0,0,0-1.46-.64,1.7,1.7,0,0,0-1.44.63A3,3,0,0,0,273.2,76.09Z"/><path class="cls-6" d="M284.85,79.31l-1.17-3.77c-.08-.23-.22-.75-.42-1.57h-.05c-.15.68-.29,1.21-.41,1.58l-1.21,3.76h-1.12l-1.76-6.42h1c.42,1.61.73,2.84.95,3.68a13.82,13.82,0,0,1,.37,1.71h.05c0-.23.11-.51.21-.87s.18-.63.25-.84l1.17-3.68h1.06l1.15,3.68a12.57,12.57,0,0,1,.44,1.69h.05c0-.14.06-.35.12-.65s.48-1.86,1.23-4.72h1L286,79.31Z"/><path class="cls-6" d="M291.46,79.42a2.94,2.94,0,0,1-2.24-.86,3.36,3.36,0,0,1-.83-2.41,3.73,3.73,0,0,1,.77-2.47,2.53,2.53,0,0,1,2-.91,2.41,2.41,0,0,1,1.91.79,3.05,3.05,0,0,1,.71,2.1v.61H289.4A2.55,2.55,0,0,0,290,78a2,2,0,0,0,1.53.59,5.18,5.18,0,0,0,2.05-.44V79a5.48,5.48,0,0,1-1,.32A6,6,0,0,1,291.46,79.42Zm-.26-5.84a1.57,1.57,0,0,0-1.23.51,2.25,2.25,0,0,0-.54,1.39h3.35a2.12,2.12,0,0,0-.41-1.41A1.45,1.45,0,0,0,291.2,73.58Z"/><path class="cls-6" d="M298.22,72.77a3.61,3.61,0,0,1,.77.07l-.13.9a3.28,3.28,0,0,0-.71-.09,1.69,1.69,0,0,0-1.33.64,2.28,2.28,0,0,0-.55,1.57v3.45h-1V72.89h.81l.11,1.19h0a2.84,2.84,0,0,1,.87-1A1.88,1.88,0,0,1,298.22,72.77Z"/><path class="cls-6" d="M302.71,79.42a3,3,0,0,1-2.25-.86,3.4,3.4,0,0,1-.82-2.41,3.73,3.73,0,0,1,.77-2.47,2.53,2.53,0,0,1,2-.91,2.42,2.42,0,0,1,1.91.79,3,3,0,0,1,.7,2.1v.61h-4.42a2.55,2.55,0,0,0,.57,1.72,2,2,0,0,0,1.53.59,5.18,5.18,0,0,0,2.05-.44V79a5.57,5.57,0,0,1-1,.32A5.78,5.78,0,0,1,302.71,79.42Zm-.26-5.84a1.59,1.59,0,0,0-1.24.51,2.38,2.38,0,0,0-.54,1.39H304a2.17,2.17,0,0,0-.41-1.41A1.45,1.45,0,0,0,302.45,73.58Z"/><path class="cls-6" d="M310.91,78.45h-.05a2.29,2.29,0,0,1-2,1,2.37,2.37,0,0,1-2-.86,3.76,3.76,0,0,1-.7-2.45,3.89,3.89,0,0,1,.7-2.46,2.61,2.61,0,0,1,4,.07h.07l0-.46,0-.46V70.19h1v9.12H311Zm-2,.16a1.78,1.78,0,0,0,1.45-.54,2.74,2.74,0,0,0,.45-1.75v-.21a3.12,3.12,0,0,0-.46-1.94,1.71,1.71,0,0,0-1.45-.59,1.49,1.49,0,0,0-1.31.67,3.33,3.33,0,0,0-.45,1.88,3.13,3.13,0,0,0,.45,1.85A1.52,1.52,0,0,0,309,78.61Z"/><path class="cls-6" d="M319.61,72.78a2.41,2.41,0,0,1,2,.86,4.63,4.63,0,0,1,0,4.91,2.38,2.38,0,0,1-2,.87,2.67,2.67,0,0,1-1.14-.23,2.06,2.06,0,0,1-.87-.71h-.07l-.21.83h-.69V70.19h1v2.22c0,.49,0,.94-.05,1.33h.05A2.3,2.3,0,0,1,319.61,72.78Zm-.14.81a1.69,1.69,0,0,0-1.43.58,3.16,3.16,0,0,0-.44,1.92,3.24,3.24,0,0,0,.45,1.94,1.71,1.71,0,0,0,1.45.58,1.51,1.51,0,0,0,1.33-.65,3.31,3.31,0,0,0,.44-1.88,3.17,3.17,0,0,0-.44-1.87A1.55,1.55,0,0,0,319.47,73.59Z"/><path class="cls-6" d="M322.77,72.89h1l1.41,3.66a12.71,12.71,0,0,1,.57,1.81h0c.05-.2.16-.54.32-1s.69-2,1.59-4.45h1L326,80.2a3.64,3.64,0,0,1-1,1.54,2,2,0,0,1-1.34.45,3.71,3.71,0,0,1-.88-.1v-.78a3.26,3.26,0,0,0,.72.07A1.48,1.48,0,0,0,325,80.26l.36-.92Z"/></svg>