<?xml version="1.0" encoding="UTF-8"?><svg id="Layer_1" xmlns="http://www.w3.org/2000/svg" viewBox="0 0 125 125"><defs><style>.cls-1{fill:#ff8500;}.cls-1,.cls-2{fill-rule:evenodd;}.cls-2{fill:#005e5c;}</style></defs><path class="cls-1" d="m80.36,16.38c-6.36,0-12.41-1.36-17.86-3.8-5.45,2.44-11.5,3.8-17.86,3.8-5.86,0-11.46-1.16-16.57-3.25-6.37,7.16-11.06,15.57-13.55,24.74h95.96c-2.49-9.17-7.18-17.58-13.55-24.74-5.11,2.09-10.7,3.25-16.57,3.25"/><path class="cls-2" d="m81.21,103.06c0-8.89,6.48-16.1,13.94-16.1v7.86c10.81-11.23,17.34-25.84,17.34-41.8,0-2.88-.22-5.72-.63-8.51H13.13c-.41,2.78-.63,5.62-.63,8.51,0,18.24,8.53,34.7,22.22,46.4,2.43-4.96,7.07-8.32,12.16-8.32v16.69c3.28,1.79,6.68,3.34,10.19,4.63v-25.72c0-8.89,6.48-16.1,13.94-16.1h0v32.08c0,3.63-1.07,6.97-2.83,9.66,3.97-1.48,7.82-3.28,11.49-5.41l1.55-1.08v-2.78Zm13.94-52.61v11.96c0,8.89-6.48,18.68-13.94,18.68v-14.54c0-8.89,6.48-16.1,13.94-16.1Z"/></svg>