<svg xmlns="http://www.w3.org/2000/svg" xmlns:xlink="http://www.w3.org/1999/xlink" version="1.1" x="0px" y="0px" viewBox="0 0 512 640" enable-background="new 0 0 512 512" xml:space="preserve">
    <g fill="#999">
        <path d="M146.6,271.6c5.1,5.9,14,6.5,19.9,1.4l0,0c5.9-5.1,6.5-14,1.4-19.9c-21.3-24.6-33.1-56.8-33.1-90.6   c0-73,54.4-132.3,121.2-132.3c66.8,0,121.2,59.4,121.2,132.3c0,31.7-10.5,62.3-29.5,86.3l0,0c-4.8,6.1-3.8,15,2.3,19.8l0,0   c6.1,4.8,15,3.8,19.8-2.3l0,0c22.9-29,35.6-65.8,35.6-103.8C405.5,74,338.5,2,256.1,2c-82.4,0-149.4,72-149.4,160.6   C106.7,203.1,120.8,241.8,146.6,271.6L146.6,271.6z"/>
        <path d="M330.1,297.7c-6.7-1.1-11.5-6.7-11.5-13.3V250c20.6-25.9,34-63.8,34-105.4c0-3.9-1.5-13-15.2-14.4   c-43.9-4.5-78-23.2-95.8-52.6c-6.5-9.9-20.1-8.4-24.7,1.1c-11.8,23.8-29.4,42.8-49.6,53.6c-4.6,2.5-7.6,7.3-7.6,12.6   c0.1,41.4,13.4,79.3,34,105.1v34.9c0,6.6-4.8,12.1-11.5,13.3c-23.7,3.9-47.2,10-70.6,17.8c-41.3,14-68.9,52.5-68.8,96l0.5,84.1   c0,7.8,6.4,14,14.1,14h397.9c7.8,0,14.1-6.4,14.1-14.2l-0.4-85.7c-0.2-43.4-28.1-81.7-69.4-95.4C378,307.5,354.7,301.9,330.1,297.7   z M188,152.8c16.4-10.3,31.1-24.9,42.9-42.4c21.9,24.4,54,40.5,92.9,46.5c-4.2,53.4-34.6,99.3-67.8,99.3   C222.1,256.2,190.9,207.9,188,152.8z M71.3,481.8l-0.4-70.1c-0.1-31.3,19.8-59,49.6-69.1c4.2-1.4,8.5-2.8,13-4.2l36.2,143.4H71.3z    M198.8,481.8l-38-150.6c8.6-2,17.2-3.8,25.9-5.3c20.3-3.4,35.1-20.7,35.1-41.1v-10.1c10.7,6.1,22.3,9.7,34.3,9.7   c12,0,23.6-3.5,34.3-9.6v9.7c0,20.5,14.8,37.8,35.2,41.2c8.6,1.4,17.2,3.2,25.8,5.1l-38.2,151.1H198.8z M342.3,481.8l36.4-144   c4,1.2,8,2.4,12,3.7c29.9,9.9,50,37.5,50.1,68.7l0.4,71.6H342.3z"/>
    </g>
</svg>