<?xml version="1.0" encoding="UTF-8" standalone="no"?>
<svg
   xmlns:dc="http://purl.org/dc/elements/1.1/"
   xmlns:cc="http://creativecommons.org/ns#"
   xmlns:rdf="http://www.w3.org/1999/02/22-rdf-syntax-ns#"
   xmlns:svg="http://www.w3.org/2000/svg"
   xmlns="http://www.w3.org/2000/svg"
   xmlns:sodipodi="http://sodipodi.sourceforge.net/DTD/sodipodi-0.dtd"
   xmlns:inkscape="http://www.inkscape.org/namespaces/inkscape"
   inkscape:version="1.0 (4035a4f, 2020-05-01)"
   sodipodi:docname="person.svg"
   id="svg839"
   xml:space="preserve"
   enable-background="new 0 0 512 512"
   viewBox="0 0 512 640"
   y="0px"
   x="0px"
   version="1.1"><metadata
   id="metadata845"><rdf:RDF><cc:Work
       rdf:about=""><dc:format>image/svg+xml</dc:format><dc:type
         rdf:resource="http://purl.org/dc/dcmitype/StillImage" /></cc:Work></rdf:RDF></metadata><defs
   id="defs843" /><sodipodi:namedview
   inkscape:current-layer="svg839"
   inkscape:window-maximized="1"
   inkscape:window-y="23"
   inkscape:window-x="0"
   inkscape:cy="348.73469"
   inkscape:cx="277.76871"
   inkscape:zoom="1.1484375"
   showgrid="false"
   id="namedview841"
   inkscape:window-height="962"
   inkscape:window-width="1680"
   inkscape:pageshadow="2"
   inkscape:pageopacity="0"
   guidetolerance="10"
   gridtolerance="10"
   objecttolerance="10"
   borderopacity="1"
   bordercolor="#666666"
   pagecolor="#ffffff" />
    <rect
   y="-30.476192"
   x="-46.149658"
   height="600"
   width="600"
   id="rect847"
   style="fill:#dbe6f1;stroke-width:1.81017" /><g
   style="fill:#999999"
   transform="matrix(0.76322846,0,0,0.74636735,58.387637,101.0559)"
   id="g837"
   fill="#999999">
        <path
   style="fill:#999999"
   id="path833"
   d="m 146.6,271.6 c 5.1,5.9 14,6.5 19.9,1.4 v 0 c 5.9,-5.1 6.5,-14 1.4,-19.9 -21.3,-24.6 -33.1,-56.8 -33.1,-90.6 0,-73 54.4,-132.3 121.2,-132.3 66.8,0 121.2,59.4 121.2,132.3 0,31.7 -10.5,62.3 -29.5,86.3 v 0 c -4.8,6.1 -3.8,15 2.3,19.8 v 0 c 6.1,4.8 15,3.8 19.8,-2.3 v 0 c 22.9,-29 35.6,-65.8 35.6,-103.8 C 405.5,74 338.5,2 256.1,2 173.7,2 106.7,74 106.7,162.6 c 0,40.5 14.1,79.2 39.9,109 z" />
        <path
   style="fill:#999999"
   id="path835"
   d="m 330.1,297.7 c -6.7,-1.1 -11.5,-6.7 -11.5,-13.3 V 250 c 20.6,-25.9 34,-63.8 34,-105.4 0,-3.9 -1.5,-13 -15.2,-14.4 -43.9,-4.5 -78,-23.2 -95.8,-52.6 -6.5,-9.9 -20.1,-8.4 -24.7,1.1 -11.8,23.8 -29.4,42.8 -49.6,53.6 -4.6,2.5 -7.6,7.3 -7.6,12.6 0.1,41.4 13.4,79.3 34,105.1 v 34.9 c 0,6.6 -4.8,12.1 -11.5,13.3 -23.7,3.9 -47.2,10 -70.6,17.8 -41.3,14 -68.9,52.5 -68.8,96 l 0.5,84.1 c 0,7.8 6.4,14 14.1,14 h 397.9 c 7.8,0 14.1,-6.4 14.1,-14.2 L 469,410.2 C 468.8,366.8 440.9,328.5 399.6,314.8 378,307.5 354.7,301.9 330.1,297.7 Z M 188,152.8 c 16.4,-10.3 31.1,-24.9 42.9,-42.4 21.9,24.4 54,40.5 92.9,46.5 -4.2,53.4 -34.6,99.3 -67.8,99.3 -33.9,0 -65.1,-48.3 -68,-103.4 z m -116.7,329 -0.4,-70.1 c -0.1,-31.3 19.8,-59 49.6,-69.1 4.2,-1.4 8.5,-2.8 13,-4.2 l 36.2,143.4 z m 127.5,0 -38,-150.6 c 8.6,-2 17.2,-3.8 25.9,-5.3 20.3,-3.4 35.1,-20.7 35.1,-41.1 v -10.1 c 10.7,6.1 22.3,9.7 34.3,9.7 12,0 23.6,-3.5 34.3,-9.6 v 9.7 c 0,20.5 14.8,37.8 35.2,41.2 8.6,1.4 17.2,3.2 25.8,5.1 L 313.2,481.9 H 198.8 Z m 143.5,0 36.4,-144 c 4,1.2 8,2.4 12,3.7 29.9,9.9 50,37.5 50.1,68.7 l 0.4,71.6 z" />
    </g>
</svg>
