<svg height='100px' width='100px'  fill="#000000" xmlns="http://www.w3.org/2000/svg" xmlns:xlink="http://www.w3.org/1999/xlink" version="1.1" x="0px" y="0px" viewBox="0 0 300 300" style="enable-background:new 0 0 300 300;" xml:space="preserve"><path d="M260.5,64.3c-17,0-30.8,13.8-30.8,30.8c0,2.4,0.3,4.8,0.8,7l-48.4,20c-4.4-8-11.3-14.5-19.5-18.5l16.7-47.3  c0.6,0.1,1.2,0.1,1.8,0.1c11.1,0,20.2-9.1,20.2-20.2s-9.1-20.2-20.2-20.2s-20.2,9.1-20.2,20.2c0,7,3.6,13.2,9,16.8l-16.8,47.3  c-3.2-0.7-6.6-1.1-10-1.1c-7.1,0-13.8,1.7-19.8,4.6L108,80c5.5-5.1,9-12.5,9-20.6c0-15.5-12.6-28.2-28.2-28.2S60.6,43.9,60.6,59.4  s12.6,28.2,28.2,28.2c3.8,0,7.5-0.8,10.8-2.2l15.3,23.8c-7.4,6-12.8,14.3-15.1,23.9l-59-7.6c-1.4-7.4-8-13.1-15.8-13.1  c-8.9,0-16.1,7.2-16.1,16.1s7.2,16.1,16.1,16.1c6.4,0,11.9-3.8,14.5-9.2l59,7.6c0,0.2,0,0.5,0,0.7c0,10.9,3.9,20.8,10.4,28.6  l-42.7,44.8c-5.5-3.9-12.1-6.1-19.3-6.1c-18.5,0-33.6,15.1-33.6,33.6c0,18.5,15.1,33.6,33.6,33.6s33.6-15.1,33.6-33.6  c0-7.8-2.6-14.9-7.1-20.6l42.7-44.8c6.2,4.7,13.6,7.8,21.7,8.8l-1.5,26.7c-6.6,2-11.3,8.2-11.3,15.4c0,8.9,7.2,16.1,16.1,16.1  c8.9,0,16.1-7.2,16.1-16.1c0-7-4.5-13-10.9-15.2l1.5-26.8c5.4-0.6,10.5-2.1,15.2-4.5l43.2,66.6c-3.3,3.6-5.4,8.4-5.4,13.7  c0,11.1,9.1,20.2,20.2,20.2s20.2-9.1,20.2-20.2c0-11.1-9.1-20.2-20.2-20.2c-2.3,0-4.4,0.4-6.5,1.1l-43.2-66.6  c4.1-3.4,7.7-7.6,10.3-12.3l36.9,16c0,0.5-0.1,1-0.1,1.5c0,8.9,7.2,16.1,16.1,16.1s16.1-7.2,16.1-16.1s-7.2-16.1-16.1-16.1  c-4.8,0-9.1,2.1-12,5.4l-36.9-16c1.3-4.1,1.9-8.5,1.9-13c0-4.3-0.6-8.4-1.7-12.3l48.4-20.1c5.4,8.7,15.1,14.5,26.1,14.5  c17,0,30.8-13.8,30.8-30.8S277.4,64.3,260.5,64.3z M181,26c5.6,0,10.2,4.6,10.2,10.2c0,5.6-4.6,10.2-10.2,10.2s-10.2-4.6-10.2-10.2  S175.4,26,181,26z M70.6,59.4c0-10,8.2-18.2,18.2-18.2S107,49.4,107,59.4s-8.2,18.2-18.2,18.2S70.6,69.4,70.6,59.4z M25,134.6  c-3.4,0-6.1-2.7-6.1-6.1s2.7-6.1,6.1-6.1c3.4,0,6.1,2.7,6.1,6.1S28.4,134.6,25,134.6z M231.3,263.8c0,5.6-4.6,10.2-10.2,10.2  c-5.6,0-10.2-4.6-10.2-10.2s4.6-10.2,10.2-10.2C226.7,253.6,231.3,258,231.3,263.8z M234.7,177.2c3.4,0,6.1,2.7,6.1,6.1  s-2.7,6.1-6.1,6.1s-6.1-2.7-6.1-6.1S231.3,177.2,234.7,177.2z M46.9,268.1c-13,0-23.6-10.6-23.6-23.6c0-13,10.6-23.6,23.6-23.6  s23.6,10.6,23.6,23.6C70.5,257.5,59.9,268.1,46.9,268.1z M141.1,236.1c-3.4,0-6.1-2.7-6.1-6.1s2.7-6.1,6.1-6.1s6.1,2.7,6.1,6.1  S144.5,236.1,141.1,236.1z M143.1,178.3c-19.1,0-34.6-15.5-34.6-34.6s15.5-34.6,34.6-34.6s34.6,15.5,34.6,34.6  S162.2,178.3,143.1,178.3z M260.5,115.8c-11.5,0-20.8-9.3-20.8-20.8s9.3-20.8,20.8-20.8s20.8,9.3,20.8,20.8S271.9,115.8,260.5,115.8  z"></path></svg>