<svg height='100px' width='100px'  fill="#000000" xmlns="http://www.w3.org/2000/svg" viewBox="0 0 64 64" x="0px" y="0px"><title>27_a woman in the mittle of two mens (the woman is bigger)_black</title><g data-name="a woman in the mittle of two mens (the woman is bigger)"><path d="M62.4073,35.499l-7.0539-1.5605-.215-1.9093a5.7933,5.7933,0,0,0,2.8209-4.9654V23.0313a5.7967,5.7967,0,0,0-11.5934,0v4.0325a5.7933,5.7933,0,0,0,2.8209,4.9654l-.215,1.9093L41.9179,35.499a.7414.7414,0,0,0-.3016.1539,5.812,5.812,0,0,0-1.9224-.5595l-4.04-.4439-.3446-1.68a5.6845,5.6845,0,0,0,.8871-.78l.527.4036a3.7592,3.7592,0,0,0,1.9464.6306,3.8686,3.8686,0,0,0,1.7308-.4716.7549.7549,0,0,0,.42-.6773V21.1765a3.7169,3.7169,0,0,0-3.1238-3.6889A5.8311,5.8311,0,0,0,35.81,15.0391a7.53,7.53,0,0,0-5.591-.8786,8.4716,8.4716,0,0,0-7.04,8.0138v9.9a.7549.7549,0,0,0,.42.6773,3.4007,3.4007,0,0,0,3.751-.2092l.4291-.33c.0443.0485.0771.091.1262.1438a6.2507,6.2507,0,0,0,.78.6363l-.34,1.6576-4.0378.443a5.8169,5.8169,0,0,0-1.9244.5605.74.74,0,0,0-.3016-.1539l-7.0539-1.5605-.215-1.9093a5.7933,5.7933,0,0,0,2.8209-4.9654V23.0313a5.7967,5.7967,0,0,0-11.5934,0v4.0325a5.7933,5.7933,0,0,0,2.8209,4.9654l-.215,1.9093L1.5927,35.499A.7562.7562,0,0,0,1,36.2374v9.9809a.7563.7563,0,0,0,.7561.7561h17.39v2.2683a.7563.7563,0,0,0,.7561.7561H44.0976a.7563.7563,0,0,0,.7561-.7561V46.9744h17.39A.7563.7563,0,0,0,63,46.2183V36.2374A.7562.7562,0,0,0,62.4073,35.499ZM49.403,35.3917l1.4635,1.4519-1.6476.782-.3976-2.1051Zm5.5192,0,.5817.1288-.3976,2.1051-1.6476-.782Zm-2.76-16.6449a4.2893,4.2893,0,0,1,4.2846,4.2845v.45a3.0059,3.0059,0,0,1-2.7045-.9439.756.756,0,0,0-.9914-.1349A8.0693,8.0693,0,0,1,47.878,23.74v-.7086A4.2893,4.2893,0,0,1,52.1626,18.7468Zm-4.2846,8.317V25.2557c.1311.0063.2651.0124.4194.0124a9.5436,9.5436,0,0,0,4.7739-1.2848,4.4254,4.4254,0,0,0,3.3759,1.0388v2.0417a4.2846,4.2846,0,0,1-8.5692,0Zm4.2846,5.7968a5.77,5.77,0,0,0,1.5241-.21l.184,1.6366-1.7081,1.7081-1.7081-1.7081.184-1.6366A5.77,5.77,0,0,0,52.1626,32.8606ZM36.1113,39.4134H33.9857a.7556.7556,0,0,0-.5345.2215L32,41.0861l-1.4512-1.4512a.7556.7556,0,0,0-.5345-.2215H27.8887L28.3,36.1756l.3329-.0366,1.9757,2.59a1.741,1.741,0,0,0,2.7792.0039l1.9787-2.5941.3329.0366Zm-2.1949-5.7116.2977,1.4536L32.1821,37.82c-.1181.16-.2431.1634-.3672-.0039l-2.029-2.66.2977-1.4536a5.5987,5.5987,0,0,0,3.8328,0Zm.215-1.7391-.0246.0128a4.3092,4.3092,0,0,1-4.2136,0l-.0306-.0157a4.273,4.273,0,0,1-.8762-.6611c-.1073-.1157-.2146-.23-.2815-.3136l-.064-.0857c-.0109-.0152-.1172-.157-.129-.1717a4.4038,4.4038,0,0,1-.2441-.3963,2.1441,2.1441,0,0,1-.1674-.3269,4.0433,4.0433,0,0,1-.2373-.663,3.1192,3.1192,0,0,1-.123-.7,3.0784,3.0784,0,0,1-.0247-.3982V25.22a3.9418,3.9418,0,0,1,3.9469-.3332c1.524.7615,3.4212.1516,4.6223-.41v3.7658a4.1438,4.1438,0,0,1-.8024,2.4666,1.2892,1.2892,0,0,0-.1.1428c-.0089.01-.06.0723-.068.0827A4.1333,4.1333,0,0,1,34.1314,31.9627Zm-7.6308-.669a1.8136,1.8136,0,0,1-1.8095.2885V22.1743A7.0155,7.0155,0,0,1,30.474,15.651a6.0665,6.0665,0,0,1,4.448.6123,4.41,4.41,0,0,1,1.4994,2.1335.7554.7554,0,0,0,.73.5616,2.1906,2.1906,0,0,1,2.157,2.2181V31.5827a1.7345,1.7345,0,0,1-1.7356-.2383l-.4726-.3647c.0175-.032.0295-.0665.0464-.0988.0393-.075.0716-.1525.1074-.2291a5.5819,5.5819,0,0,0,.2145-.5214c.0312-.089.06-.1781.0869-.2687.0532-.1807.0955-.3642.1306-.55.0157-.0834.0351-.1654.0472-.25a5.7864,5.7864,0,0,0,.063-.8185V23.2026a.7562.7562,0,0,0-1.1745-.63c-.7423.4918-2.9574,1.624-4.2845.9614a5.5679,5.5679,0,0,0-5.8667.7241.7573.7573,0,0,0-.2677.5774v3.4074a4.1827,4.1827,0,0,0,.0324.5469,4.2381,4.2381,0,0,0,.1684.9456,6.0394,6.0394,0,0,0,.3131.8752,2.8125,2.8125,0,0,0,.1811.3736ZM9.0778,35.3917l1.4635,1.4519-1.6476.782-.3976-2.1051Zm5.5192,0,.5817.1288-.3976,2.1051-1.6476-.782Zm-2.76-16.6449a4.2893,4.2893,0,0,1,4.2846,4.2845v.45a3.0074,3.0074,0,0,1-2.7045-.944.756.756,0,0,0-.9914-.1349A8.0693,8.0693,0,0,1,7.5528,23.74v-.7086A4.2893,4.2893,0,0,1,11.8374,18.7468Zm-4.2846,8.317V25.2557c.1311.0063.2651.0124.4194.0124a9.5436,9.5436,0,0,0,4.7739-1.2848,4.424,4.424,0,0,0,3.3759,1.0388v2.0417a4.2846,4.2846,0,0,1-8.5692,0Zm4.2846,5.7968a5.77,5.77,0,0,0,1.5241-.21l.184,1.6366-1.7081,1.7081-1.7081-1.7081.184-1.6366A5.77,5.77,0,0,0,11.8374,32.8606Zm7.3089,7.9242v4.6774H6.5447V41.1776H5.0325v4.2846h-2.52V36.8449l4.506-.9973L7.5893,38.87a.7561.7561,0,0,0,1.0672.5424l3.1809-1.51,3.1809,1.51a.7561.7561,0,0,0,1.0672-.5424l.5711-3.0225,4.17.9229A5.6639,5.6639,0,0,0,19.1463,40.7848Zm24.1952,7.7018h-2.52V43.1939H39.3089v5.2927H24.6911V43.1939H23.1789v5.2927h-2.52V40.7848a4.23,4.23,0,0,1,3.813-4.189l2.2826-.25L26.28,40.074a.7565.7565,0,0,0,.75.8516h2.671L31.4654,42.69a.7556.7556,0,0,0,1.0692,0l1.7642-1.7642H36.97a.7565.7565,0,0,0,.75-.8516l-.474-3.7283,2.2845.2511a4.2279,4.2279,0,0,1,3.811,4.188Zm18.1463-3.0244h-2.52V41.1776H57.4553v4.2846H44.8537V40.7848A5.6647,5.6647,0,0,0,43.1731,36.77l4.17-.9228.5711,3.0225a.7561.7561,0,0,0,1.0672.5424l3.1809-1.51,3.1809,1.51a.7561.7561,0,0,0,1.0672-.5424l.5711-3.0224,4.506.9973Z"></path></g></svg>