<svg height='100px' width='100px'  fill="#000000" xmlns="http://www.w3.org/2000/svg" xmlns:xlink="http://www.w3.org/1999/xlink" version="1.1" x="0px" y="0px" viewBox="0 0 100 100" style="enable-background:new 0 0 100 100;" xml:space="preserve"><path d="M42.7197266,80.8681641H82.012207c0.5522461,0,1-0.4472656,1-1V74.5c0-0.5527344-0.4477539-1-1-1h-0.5004883V59.3486328  h0.5004883c0.5522461,0,1-0.4472656,1-1v-3.671875c0-0.3789062-0.2143555-0.7255859-0.5541992-0.8955078l-6.7045898-3.3408203  c-0.1381836-0.0683594-0.2910156-0.1044922-0.4458008-0.1044922h-2.2832031v-7.1035156h0.4985352c0.5522461,0,1-0.5,1-1.0527344  c0-6.3656006-4.9207764-11.5950317-11.1567383-12.1065674v-1.5350342c0-0.5527344-0.4477539-1-1-1s-1,0.4472656-1,1v1.5350952  c-6.2359619,0.5116577-11.1567383,5.7435913-11.1567383,12.1592407c0,0.5527344,0.4477539,1,1,1h0.4980469v7.1035156h-2.2832031  c-0.1547852,0-0.3076172,0.0361328-0.4458008,0.1044922L42.2739258,53.78125  c-0.3398438,0.1699219-0.5541992,0.5166016-0.5541992,0.8955078v3.671875c0,0.5527344,0.4477539,1,1,1h0.5009766V73.5h-0.5009766  c-0.5522461,0-1,0.4472656-1,1v5.3681641C41.7197266,80.4208984,42.1674805,80.8681641,42.7197266,80.8681641z   M81.012207,78.8681641H43.7197266V75.5H81.012207V78.8681641z M66.8598633,73.5V61.8183594h4.9873047V73.5H66.8598633z   M64.8598633,61.8183594V73.5h-4.9873047V61.8183594H64.8598633z M73.5375977,59.8183594H51.1948242v-1.6035156  l11.1713867-2.2294922l11.1713867,2.2294922V59.8183594z M57.8725586,61.8183594V73.5h-4.9873047V61.8183594H57.8725586z   M79.5117188,73.5H73.847168V61.8183594h0.6904297c0.5522461,0,1-0.4472656,1-1v-1.4697266h3.9741211V73.5z M71.0244141,50.3359375  h-4.4389648v-7.1035156h4.4389648V50.3359375z M64.5854492,43.2324219v7.1035156h-4.4389648v-7.1035156H64.5854492z   M62.3662109,32.0224609c5.28125,0,9.6337891,4.0517578,10.112793,9.2099609H52.253418  C52.7324219,36.0742188,57.0849609,32.0224609,62.3662109,32.0224609z M53.7075195,43.2324219h4.4389648v7.1035156h-4.4389648  V43.2324219z M43.7197266,55.2958984l5.9399414-2.9599609h25.4125977l5.9399414,2.9599609v2.0527344h-5.482666  c-0.0217285-0.4560547-0.3445435-0.8449097-0.7961426-0.9345703l-12.1713867-2.4287109  c-0.1298828-0.0253906-0.2617188-0.0253906-0.3916016,0l-12.1713867,2.4287109  c-0.4515991,0.0896606-0.7744141,0.4785156-0.7961426,0.9345703h-5.4831543V55.2958984z M45.2207031,59.3486328h3.9741211v1.4697266  c0,0.5527344,0.4477539,1,1,1h0.6904297V73.5h-5.6645508V59.3486328z"></path><path d="M90,19.40625c0-0.5527344-0.4477539-1-1-1H65.2666016V11c0-0.5527344-0.4477539-1-1-1H10.9990234  c-0.5522461,0-1,0.4472656-1,1v69.59375c0,0.5527344,0.4477539,1,1,1h23.7329102V89c0,0.5527344,0.4477539,1,1,1H89  c0.5522461,0,1-0.4472656,1-1V19.40625z M11.9990234,79.59375V12h51.2675781v6.40625h-27.534668c-0.5522461,0-1,0.4472656-1,1  v2.4179688H20.3945312c-0.5522461,0-1,0.4472656-1,1s0.4477539,1,1,1h14.3374023v4.7519531H20.3945312c-0.5522461,0-1,0.4472656-1,1  s0.4477539,1,1,1h14.3374023v4.7519531H20.3945312c-0.5522461,0-1,0.4472656-1,1s0.4477539,1,1,1h14.3374023v4.7529297H20.3945312  c-0.5522461,0-1,0.4472656-1,1s0.4477539,1,1,1h14.3374023V79.59375H11.9990234z M88,88H36.7319336V20.40625H88V88z"></path><path d="M20.3945312,63.1953125h6.8540039c0.5522461,0,1-0.4472656,1-1s-0.4477539-1-1-1h-6.8540039c-0.5522461,0-1,0.4472656-1,1  S19.8422852,63.1953125,20.3945312,63.1953125z"></path><path d="M27.2485352,67.9472656h-6.8540039c-0.5522461,0-1,0.4472656-1,1s0.4477539,1,1,1h6.8540039c0.5522461,0,1-0.4472656,1-1  S27.8007812,67.9472656,27.2485352,67.9472656z"></path></svg>