<svg xmlns="http://www.w3.org/2000/svg" xmlns:xlink="http://www.w3.org/1999/xlink" version="1.1" x="0px" y="0px" viewBox="0 0 100 125" enable-background="new 0 0 100 100" xml:space="preserve"><g><g><path d="M79.278,11.793c-0.833-1.744-2.337-2.931-4.156-3.312C74.104,6.328,72.064,5,69.676,5H23.009    c-3.822,0-7.176,3.115-7.176,6.667v70c0,2.781,2.078,5.361,4.977,6.291c0.859,1.525,2.349,2.749,4.163,3.331    C26.189,93.448,28.644,95,31.338,95h40.329c0.349,0,0.646-0.215,0.77-0.518L83.88,81.519c0.054-0.062,0.098-0.13,0.131-0.2    c0.022-0.031,0.035-0.07,0.053-0.104c0.016-0.029,0.032-0.056,0.044-0.087c0.035-0.092,0.06-0.189,0.06-0.294v-62.5    C84.167,14.947,82.175,12.376,79.278,11.793z M20.078,85.823c-1.552-0.927-2.578-2.498-2.578-4.156v-70c0-2.617,2.625-5,5.509-5    h46.667c1.411,0,2.627,0.605,3.438,1.666H27.176C23.353,8.333,20,11.448,20,15v70C20,85.277,20.038,85.551,20.078,85.823z     M24.232,89.149c-1.545-0.927-2.565-2.495-2.565-4.149V15c0-2.617,2.625-5,5.509-5h46.666c0.233,0,0.461,0.017,0.683,0.049    c0,0,0,0,0.001,0c1.119,0.164,2.079,0.732,2.755,1.618H31.338c-3.82,0-7.171,3.115-7.171,6.666v70    C24.167,88.608,24.193,88.881,24.232,89.149z M72.5,91.891v-4.725c0-2.775,2.727-5.499,5.505-5.499h3.521L72.5,91.891z M82.5,80    h-4.495c-1.995,0-3.926,1.024-5.283,2.545C72.649,82.524,72.579,82.5,72.5,82.5H60c-0.461,0-0.833,0.373-0.833,0.833    c0,0.461,0.372,0.834,0.833,0.834h11.603c-0.483,0.936-0.77,1.958-0.77,2.999v6.167H31.338c-2.881,0-5.505-2.383-5.505-5v-70    c0-2.617,2.624-5,5.505-5h46.667c2.604,0,4.495,2.104,4.495,5V80z M75.833,24.167H60c-0.461,0-0.833,0.372-0.833,0.833    s0.372,0.833,0.833,0.833h15.833c0.461,0,0.834-0.372,0.834-0.833S76.294,24.167,75.833,24.167z M30.833,25.833h25    c0.461,0,0.834-0.372,0.834-0.833s-0.373-0.833-0.834-0.833h-25C30.373,24.167,30,24.539,30,25S30.373,25.833,30.833,25.833z     M75.833,28.333H60c-0.461,0-0.833,0.373-0.833,0.834C59.167,29.627,59.539,30,60,30h15.833c0.461,0,0.834-0.373,0.834-0.833    C76.667,28.706,76.294,28.333,75.833,28.333z M30.833,30h25c0.461,0,0.834-0.373,0.834-0.833c0-0.461-0.373-0.834-0.834-0.834h-25    c-0.46,0-0.833,0.373-0.833,0.834C30,29.627,30.373,30,30.833,30z M75.833,40.833H60c-0.461,0-0.833,0.373-0.833,0.834    c0,0.46,0.372,0.833,0.833,0.833h15.833c0.461,0,0.834-0.373,0.834-0.833C76.667,41.206,76.294,40.833,75.833,40.833z M75.833,70    H60c-0.461,0-0.833,0.373-0.833,0.833c0,0.461,0.372,0.834,0.833,0.834h15.833c0.461,0,0.834-0.373,0.834-0.834    C76.667,70.373,76.294,70,75.833,70z M76.667,33.333c0-0.46-0.373-0.833-0.834-0.833H60c-0.461,0-0.833,0.373-0.833,0.833    c0,0.089,0.024,0.17,0.05,0.25c-0.439-0.048-0.89-0.075-1.351-0.075c-0.428,0-0.842,0.016-1.243,0.045    c0.02-0.071,0.044-0.142,0.044-0.22c0-0.46-0.373-0.833-0.834-0.833h-25c-0.46,0-0.833,0.373-0.833,0.833    c0,0.461,0.373,0.834,0.833,0.834h22.674c-0.082,0.028-0.172,0.049-0.253,0.079c-1.325,0.492-2.438,1.158-3.337,2    c-0.145,0.135-0.273,0.279-0.406,0.421H30.833c-0.46,0-0.833,0.372-0.833,0.833s0.373,0.833,0.833,0.833h17.453    c-0.146,0.267-0.278,0.541-0.395,0.825c-0.223,0.544-0.389,1.103-0.501,1.675H30.833c-0.46,0-0.833,0.373-0.833,0.834    c0,0.46,0.373,0.833,0.833,0.833h16.39c0,0.045-0.006,0.089-0.006,0.134c0,0.897,0.127,1.683,0.366,2.366h-16.75    C30.373,45,30,45.373,30,45.833c0,0.461,0.373,0.834,0.833,0.834h17.629c0.153,0.219,0.303,0.442,0.479,0.642    c-1.071,0.495-1.941,1.118-2.631,1.858H30.833C30.373,49.167,30,49.539,30,50s0.373,0.833,0.833,0.833h14.343    c-0.376,0.772-0.612,1.605-0.704,2.5H30.833c-0.46,0-0.833,0.373-0.833,0.834C30,54.627,30.373,55,30.833,55h13.626    c0.091,0.949,0.344,1.765,0.771,2.434c0.016,0.024,0.036,0.043,0.052,0.066H30.833c-0.46,0-0.833,0.373-0.833,0.833    c0,0.461,0.373,0.834,0.833,0.834h15.964c0.159,0.133,0.299,0.284,0.47,0.404c0.816,0.574,1.7,1.059,2.65,1.45    c0.525,0.217,1.025,0.432,1.51,0.646H30.833c-0.46,0-0.833,0.372-0.833,0.833s0.373,0.833,0.833,0.833h23.57    c0.062,0.052,0.142,0.098,0.201,0.151c0.54,0.482,0.812,1.091,0.812,1.824c0,0.186-0.021,0.356-0.045,0.524H30.833    c-0.46,0-0.833,0.373-0.833,0.834c0,0.46,0.373,0.833,0.833,0.833h13.632L42.573,70h-11.74C30.373,70,30,70.373,30,70.833    c0,0.461,0.373,0.834,0.833,0.834h13.973c0.404,0.214,0.823,0.415,1.273,0.591c0.725,0.283,1.491,0.505,2.3,0.663    s1.621,0.237,2.438,0.237c1.816,0,3.425-0.241,4.825-0.725c1.399-0.483,2.578-1.154,3.537-2.013    c0.925-0.829,1.632-1.805,2.13-2.921h14.524c0.461,0,0.834-0.373,0.834-0.833c0-0.461-0.373-0.834-0.834-0.834H61.86    c0.164-0.718,0.256-1.466,0.256-2.25c0-0.086-0.008-0.166-0.011-0.25h13.728c0.461,0,0.834-0.372,0.834-0.833    s-0.373-0.833-0.834-0.833H61.83c-0.053-0.161-0.109-0.319-0.177-0.471c-0.309-0.691-0.712-1.305-1.212-1.838    c0.12-0.06,0.221-0.129,0.335-0.191h15.057c0.461,0,0.834-0.373,0.834-0.834c0-0.46-0.373-0.833-0.834-0.833H62.979    c0.341-0.37,0.649-0.756,0.888-1.179c0.24-0.426,0.424-0.869,0.581-1.321h11.386c0.461,0,0.834-0.373,0.834-0.833    c0-0.461-0.373-0.834-0.834-0.834H64.852c0.043-0.352,0.065-0.71,0.065-1.075c0-0.51-0.061-0.98-0.161-1.425h11.077    c0.461,0,0.834-0.372,0.834-0.833s-0.373-0.833-0.834-0.833H64.052c-0.534-0.803-1.192-1.505-1.985-2.096    c-0.193-0.145-0.403-0.269-0.604-0.404h14.371c0.461,0,0.834-0.373,0.834-0.834c0-0.46-0.373-0.833-0.834-0.833H60    c-0.309,0-0.565,0.175-0.71,0.423c-0.9-0.428-1.744-0.837-2.524-1.227c-0.816-0.408-1.495-0.82-2.037-1.238    c-0.186-0.143-0.327-0.298-0.449-0.458h1.554c0.461,0,0.834-0.373,0.834-0.833c0-0.461-0.373-0.834-0.834-0.834h-1.828    c0.033-0.135,0.069-0.27,0.124-0.399c0.142-0.334,0.351-0.625,0.625-0.875c0.275-0.25,0.625-0.445,1.05-0.587    s0.93-0.213,1.513-0.213c0.616,0,1.15,0.079,1.6,0.237c0.451,0.158,0.862,0.338,1.237,0.537c0.376,0.201,0.726,0.38,1.051,0.538    c0.324,0.158,0.663,0.237,1.013,0.237c0.333,0,0.616-0.066,0.85-0.2c0.232-0.133,0.466-0.358,0.7-0.675l0.839-1.101h11.228    c0.461,0,0.834-0.372,0.834-0.833s-0.373-0.833-0.834-0.833H65.634c-0.358-0.412-0.771-0.805-1.255-1.171    c-0.542-0.408-1.149-0.758-1.825-1.05c-0.241-0.104-0.498-0.191-0.755-0.279h14.034C76.294,34.167,76.667,33.794,76.667,33.333z     M52.116,68.134c-0.834,0-1.509-0.1-2.025-0.3c-0.274-0.106-0.524-0.218-0.756-0.334h5.051    C53.816,67.916,53.066,68.134,52.116,68.134z M54.613,50.833c0.009,0.004,0.02,0.01,0.028,0.014    c0.666,0.308,1.262,0.629,1.787,0.962s0.946,0.704,1.263,1.112s0.475,0.888,0.475,1.438c0,0.5-0.1,0.967-0.3,1.4    s-0.542,0.816-1.025,1.149c-0.7-0.35-1.384-0.683-2.049-1c-0.615-0.291-1.166-0.595-1.667-0.908h2.708    c0.461,0,0.834-0.373,0.834-0.833c0-0.461-0.373-0.834-0.834-0.834h-4.407c-0.135-0.291-0.21-0.605-0.21-0.949    c0-0.533,0.104-1.005,0.312-1.413c0.024-0.048,0.071-0.091,0.1-0.138H54.613z M75.833,74.167H60c-0.461,0-0.833,0.372-0.833,0.833    s0.372,0.833,0.833,0.833h15.833c0.461,0,0.834-0.372,0.834-0.833S76.294,74.167,75.833,74.167z M55.833,74.167h-25    C30.373,74.167,30,74.539,30,75s0.373,0.833,0.833,0.833h25c0.461,0,0.834-0.372,0.834-0.833S56.294,74.167,55.833,74.167z     M75.833,78.333H60c-0.461,0-0.833,0.373-0.833,0.834C59.167,79.627,59.539,80,60,80h15.833c0.461,0,0.834-0.373,0.834-0.833    C76.667,78.706,76.294,78.333,75.833,78.333z M55.833,78.333h-25c-0.46,0-0.833,0.373-0.833,0.834C30,79.627,30.373,80,30.833,80    h25c0.461,0,0.834-0.373,0.834-0.833C56.667,78.706,56.294,78.333,55.833,78.333z M55.833,82.5h-25    c-0.46,0-0.833,0.373-0.833,0.833c0,0.461,0.373,0.834,0.833,0.834h25c0.461,0,0.834-0.373,0.834-0.834    C56.667,82.873,56.294,82.5,55.833,82.5z"/></g></g><text x="0" y="115" fill="#000000" font-size="5px" font-weight="bold" font-family="'Helvetica Neue', Helvetica, Arial-Unicode, Arial, Sans-serif">Created by Anna Bearne</text><text x="0" y="120" fill="#000000" font-size="5px" font-weight="bold" font-family="'Helvetica Neue', Helvetica, Arial-Unicode, Arial, Sans-serif">from the Noun Project</text></svg>