<svg xmlns="http://www.w3.org/2000/svg" xmlns:xlink="http://www.w3.org/1999/xlink" version="1.1" x="0px" y="0px" viewBox="0 0 841.891 744.09875" enable-background="new 0 0 841.891 595.279" xml:space="preserve"><path fill="#000000" d="M735.795,440.877c0-4.906-1.47-7.995-4.625-9.726l-11.131-4.703v-8.107c0-3.815-3.104-6.919-6.919-6.919  h-32.034c-0.449-41.854-1.363-101.401-3.976-150.034h12.123c3.035,0,5.688-1.945,6.599-4.838l6.661-21.098  c0.668-2.099,0.289-4.41-1.012-6.18c-1.3-1.773-3.386-2.833-5.584-2.833h-153.06v-23.638c0-3.815-3.105-6.92-6.92-6.92h-2.98  c-18.027-36.938-45.143-58.087-82.771-64.619c-19.668-3.979-41.655-4.005-61.187-0.124c-38.046,6.424-65.374,27.61-83.497,64.743  h-2.319c-3.815,0-6.919,3.104-6.919,6.92v23.638H143.735c-2.198,0-4.284,1.058-5.581,2.83c-1.302,1.776-1.681,4.088-1.015,6.17  l6.662,21.106c0.912,2.896,3.563,4.84,6.599,4.84h12.125c-2.158,40.211-3.39,93.232-3.481,150.034h-31.975  c-3.814,0-6.919,3.104-6.919,6.919v8.023l-9.062,4.733c-3.154,1.647-4.754,5.013-4.754,9.994l0.008,17.687  c0,3.816,3.105,6.92,6.919,6.92h615.626c3.814,0,6.918-3.104,6.918-6.922L735.795,440.877z M525.625,199.832h-21.803  c-12.404-26.521-30.633-47.758-50.938-59.641C485.663,147.099,509.531,166.69,525.625,199.832z M496.293,199.827l-32.859-0.078  c-3.157-15.75-13.171-45.953-31.039-61.639C460.731,145.469,484.031,174.887,496.293,199.827z M422.69,138.683  c18.673,11.582,29.994,42.757,34.121,61.063H422.69V138.683z M415.733,138.683v61.063h-34.121  C385.738,181.44,397.058,150.264,415.733,138.683z M406.027,138.111C388.159,153.797,378.144,184,374.99,199.75l-32.86,0.078  C354.391,174.887,377.693,145.469,406.027,138.111z M385.538,140.191c-20.308,11.883-38.533,33.121-50.938,59.641h-21.805  C328.889,166.69,352.759,147.099,385.538,140.191z M304.547,204.185h229.987v27.79h-5.567v-20.282c0-0.765-0.619-1.384-1.384-1.384  h-10.553c-0.766,0-1.384,0.619-1.384,1.384v20.282h-12.232v-20.282c0-0.765-0.619-1.384-1.384-1.384h-11.112  c-0.767,0-1.386,0.619-1.386,1.384v20.282h-11.676v-20.282c0-0.765-0.619-1.384-1.383-1.384h-11.104  c-0.765,0-1.383,0.619-1.383,1.384v20.282h-12.233v-20.282c0-0.765-0.618-1.384-1.384-1.384h-10.557  c-0.766,0-1.385,0.619-1.385,1.384v20.282h-12.232v-20.282c0-0.765-0.619-1.384-1.383-1.384h-10.552  c-0.766,0-1.384,0.619-1.384,1.384v20.282h-12.229v-20.282c0-0.765-0.619-1.384-1.384-1.384h-10.557  c-0.766,0-1.384,0.619-1.384,1.384v20.282h-12.233v-20.282c0-0.765-0.619-1.384-1.384-1.384h-10.551  c-0.766,0-1.385,0.619-1.385,1.384v20.282H349.54v-20.282c0-0.765-0.619-1.384-1.384-1.384h-10.552  c-0.765,0-1.384,0.619-1.384,1.384v20.282H323.99v-20.282c0-0.765-0.618-1.384-1.383-1.384H312.05c-0.765,0-1.383,0.619-1.383,1.384  v20.282h-6.119L304.547,204.185L304.547,204.185z M151.412,253.084l-5.79-18.341H694.01l-5.789,18.341H151.412z M672.842,416.956  h-27.22c0.015-42.907,0.697-104.59,3.812-158.337h19.055C671.442,309.695,672.391,373.069,672.842,416.956z M236.827,356.719  c0.084-5.429,0.181-10.832,0.287-16.211l0.188-8.888c0.124-5.455,0.261-10.858,0.412-16.211c0.087-3.064,0.179-6.107,0.272-9.131  c0.174-5.483,0.361-10.894,0.564-16.206c0.115-3.003,0.234-5.979,0.36-8.917c0.233-5.528,0.487-11.54,0.759-16.804  c0.095-1.825,0.189-2.879,0.29-3.957c0.047-0.53,0.096-1.063,0.146-1.69h17.792c0.05,0.627,0.1,1.161,0.146,1.69  c0.098,1.078,0.193,2.132,0.289,3.957c0.272,5.265,0.528,11.275,0.764,16.806c0.125,2.938,0.247,5.912,0.363,8.916  c0.208,5.315,0.399,10.725,0.579,16.211c0.1,3.021,0.195,6.061,0.286,9.127c0.159,5.355,0.308,10.761,0.444,16.212l0.212,8.891  c0.123,5.378,0.238,10.786,0.343,16.213l0.167,8.922c0.095,5.405,0.18,10.816,0.26,16.217l0.13,9.129  c0.073,5.435,0.141,10.848,0.2,16.221l0.097,9.743h-25.817c0.004-3.009,0.008-6.725,0.018-9.763  c0.014-5.37,0.041-10.784,0.077-16.214l0.069-9.133c0.048-5.396,0.104-10.806,0.175-16.211L236.827,356.719z M265.476,356.685  h35.521l-0.127,8.896c0,0.009,0,0.02,0,0.026h-35.226c0-0.011,0-0.023,0-0.037L265.476,356.685z M265.135,340.464  c0-0.017-0.001-0.032-0.001-0.049l-0.211-8.844h36.548l-0.187,8.85c0,0.017,0,0.029,0,0.043H265.135z M264.476,315.348  c0-0.021,0-0.04-0.001-0.06c-0.09-3.049-0.185-6.069-0.285-9.076h37.972c-0.097,3.007-0.188,6.029-0.273,9.076  c0,0.021-0.001,0.041-0.001,0.06H264.476z M263.613,289.992c-0.001-0.027-0.001-0.054-0.002-0.08  c-0.114-2.979-0.234-5.93-0.36-8.845h39.833c-0.124,2.917-0.241,5.866-0.355,8.845c-0.001,0.025-0.001,0.053-0.002,0.08H263.613z   M265.903,381.832h34.791l-0.069,9.121c0,0.006,0,0.01,0,0.015h-34.591c0-0.012,0-0.018,0-0.026L265.903,381.832z M305.147,356.719  c0.084-5.429,0.182-10.832,0.289-16.211l0.188-8.888c0.124-5.455,0.262-10.858,0.412-16.211c0.086-3.064,0.178-6.104,0.273-9.131  c0.173-5.483,0.36-10.892,0.565-16.206c0.113-3.003,0.232-5.979,0.358-8.917c0.234-5.528,0.487-11.54,0.762-16.804  c0.095-1.83,0.189-2.885,0.291-3.966c0.047-0.526,0.096-1.058,0.145-1.682h17.795c0.049,0.623,0.097,1.155,0.146,1.682  c0.1,1.081,0.195,2.136,0.291,3.966c0.272,5.265,0.526,11.276,0.764,16.806c0.127,2.938,0.249,5.914,0.365,8.916  c0.206,5.315,0.397,10.725,0.578,16.209l0.285,9.127c0.158,5.357,0.308,10.763,0.442,16.218l0.213,8.887  c0.122,5.378,0.236,10.786,0.341,16.21l0.167,8.925c0.096,5.405,0.181,10.816,0.261,16.217l0.129,9.129  c0.071,5.435,0.141,10.848,0.199,16.221l0.098,9.699h-25.822c0.002-3.008,0.007-6.681,0.016-9.719  c0.015-5.37,0.041-10.784,0.077-16.214l0.07-9.133c0.047-5.396,0.104-10.806,0.175-16.211L305.147,356.719z M333.804,356.685h35.522  l-0.128,8.896c0,0.009,0,0.02,0,0.026h-35.229c0-0.011,0-0.023,0-0.037L333.804,356.685z M333.463,340.464  c-0.001-0.017-0.001-0.032-0.001-0.049l-0.212-8.844h36.553l-0.187,8.85c0,0.017,0,0.029,0,0.043H333.463z M332.804,315.348  c0-0.021,0-0.043-0.001-0.062l-0.285-9.074h37.973c-0.096,3.007-0.186,6.029-0.271,9.076c0,0.021-0.001,0.041-0.001,0.06H332.804  L332.804,315.348z M331.941,289.992c-0.002-0.027-0.002-0.054-0.003-0.08c-0.114-2.979-0.234-5.93-0.36-8.845h39.835  c-0.124,2.917-0.242,5.866-0.355,8.845c-0.001,0.025-0.001,0.053-0.003,0.08H331.941z M334.356,390.793l-0.127-8.961h34.796  l-0.069,9.121c0,0.006,0,0.01,0,0.015h-34.598C334.357,390.907,334.356,390.85,334.356,390.793z M373.478,356.719  c0.083-5.429,0.182-10.832,0.289-16.211l0.188-8.888c0.125-5.455,0.262-10.858,0.412-16.211c0.087-3.064,0.179-6.104,0.273-9.131  c0.173-5.483,0.359-10.892,0.565-16.206c0.113-3.003,0.232-5.979,0.358-8.917c0.234-5.528,0.488-11.66,0.762-16.924  c0.095-1.83,0.19-2.884,0.29-3.967c0.048-0.525,0.097-1.058,0.146-1.682h17.79c0.048,0.624,0.097,1.155,0.145,1.683  c0.101,1.081,0.196,2.135,0.29,3.965c0.273,5.265,0.529,11.396,0.766,16.926c0.125,2.938,0.248,5.912,0.363,8.916  c0.208,5.315,0.4,10.725,0.578,16.211c0.101,3.021,0.196,6.061,0.287,9.127c0.159,5.355,0.308,10.761,0.444,16.212l0.212,8.891  c0.123,5.378,0.237,10.786,0.342,16.213l0.168,8.922c0.094,5.405,0.181,10.816,0.261,16.214l0.128,9.132  c0.073,5.435,0.143,10.848,0.203,16.218l0.098,9.702h-25.822c0.003-3.008,0.007-6.681,0.016-9.719  c0.015-5.37,0.041-10.784,0.077-16.214l0.07-9.133c0.047-5.396,0.104-10.807,0.174-16.211L373.478,356.719z M402.13,356.685h35.519  l-0.129,8.896c0,0.009,0,0.02,0,0.026h-35.222c0-0.011,0-0.023,0-0.037L402.13,356.685z M401.788,340.464  c0-0.017-0.001-0.032-0.001-0.049l-0.211-8.844h36.549l-0.188,8.85c0,0.017,0,0.029,0,0.043H401.788z M401.13,315.348  c0-0.021,0-0.04-0.001-0.06c-0.092-3.049-0.187-6.069-0.286-9.076h37.971c-0.095,3.01-0.187,6.027-0.272,9.076  c0,0.021,0,0.041,0,0.06H401.13z M400.266,289.992c-0.001-0.027-0.001-0.054-0.003-0.08c-0.115-2.979-0.235-5.93-0.361-8.845h39.836  c-0.125,2.915-0.244,5.866-0.355,8.845c-0.003,0.025-0.003,0.053-0.003,0.08H400.266z M402.559,381.832h34.787l-0.07,9.121  c0,0.006,0,0.01,0,0.015h-34.589c0-0.012,0-0.018,0-0.026L402.559,381.832z M441.801,356.719c0.083-5.429,0.18-10.832,0.289-16.211  l0.187-8.888c0.124-5.455,0.266-10.858,0.416-16.211c0.087-3.064,0.179-6.107,0.271-9.131c0.176-5.483,0.36-10.892,0.566-16.206  c0.114-3.003,0.231-5.978,0.362-8.917c0.231-5.528,0.486-11.644,0.76-16.909c0.094-1.829,0.191-2.884,0.289-3.966  c0.048-0.525,0.098-1.058,0.146-1.681h17.791c0.048,0.623,0.098,1.154,0.145,1.681c0.098,1.083,0.195,2.137,0.29,3.966  c0.272,5.266,0.527,11.381,0.765,16.91c0.125,2.938,0.246,5.914,0.363,8.916c0.207,5.315,0.398,10.725,0.577,16.211  c0.103,3.021,0.194,6.062,0.287,9.127c0.161,5.355,0.308,10.761,0.445,16.216l0.211,8.887c0.121,5.378,0.236,10.789,0.343,16.21  l0.168,8.925c0.096,5.405,0.178,10.816,0.26,16.217l0.129,9.129c0.074,5.435,0.142,10.851,0.203,16.218l0.098,9.702h-25.826  c0.003-3.008,0.009-6.681,0.017-9.719c0.013-5.37,0.039-10.784,0.078-16.214l0.07-9.133c0.049-5.396,0.102-10.806,0.172-16.211  L441.801,356.719z M470.115,340.464c-0.003-0.017-0.003-0.032-0.003-0.049l-0.211-8.844h36.555l-0.188,8.85c0,0.017,0,0.029,0,0.043  H470.115z M505.98,356.685l-0.13,8.896c0,0.009,0,0.02,0,0.026h-35.228c0-0.011,0-0.023,0-0.037l-0.168-8.887L505.98,356.685  L505.98,356.685z M469.454,315.348c0-0.021,0-0.043,0-0.062c-0.092-3.047-0.188-6.067-0.286-9.074h37.975  c-0.096,3.007-0.186,6.029-0.271,9.076c0,0.021,0,0.041,0,0.06H469.454L469.454,315.348z M468.59,289.992c0-0.027,0-0.054,0-0.081  c-0.119-2.978-0.238-5.928-0.362-8.843h39.839c-0.124,2.917-0.244,5.866-0.357,8.845c0,0.025,0,0.053-0.002,0.08L468.59,289.992  L468.59,289.992z M470.882,381.832h34.796l-0.07,9.121c0,0.006,0,0.01,0,0.015h-34.596c0-0.012,0-0.018,0-0.026L470.882,381.832z   M510.131,356.719c0.084-5.429,0.179-10.832,0.287-16.211l0.188-8.888c0.124-5.455,0.262-10.858,0.412-16.211  c0.088-3.064,0.176-6.104,0.272-9.131c0.175-5.483,0.363-10.892,0.564-16.206c0.117-3.003,0.236-5.979,0.359-8.915  c0.235-5.53,0.489-11.541,0.764-16.806c0.092-1.825,0.188-2.879,0.285-3.957c0.05-0.53,0.098-1.063,0.146-1.69h17.789  c0.049,0.624,0.099,1.155,0.146,1.683c0.098,1.08,0.194,2.135,0.289,3.965c0.272,5.265,0.526,11.276,0.766,16.806  c0.123,2.938,0.248,5.912,0.361,8.916c0.211,5.315,0.399,10.725,0.582,16.209l0.284,9.129c0.16,5.355,0.31,10.761,0.444,16.216  l0.214,8.887c0.123,5.378,0.237,10.789,0.343,16.21l0.165,8.925c0.099,5.405,0.182,10.816,0.263,16.214l0.127,9.132  c0.076,5.435,0.144,10.848,0.203,16.221l0.098,9.699h-25.822c0.002-3.008,0.009-6.681,0.017-9.719  c0.014-5.37,0.041-10.784,0.078-16.214l0.069-9.133c0.049-5.396,0.104-10.807,0.174-16.211L510.131,356.719z M538.782,356.685  h35.521l-0.127,8.896c0,0.009,0,0.02,0,0.026h-35.229c0-0.011,0-0.023,0-0.035L538.782,356.685z M538.44,340.464  c0-0.017,0-0.032,0-0.049l-0.211-8.844h36.549l-0.186,8.85c0,0.017,0,0.029,0,0.043H538.44z M537.781,315.348  c0-0.021,0-0.043,0-0.062l-0.285-9.074h37.972c-0.099,3.007-0.187,6.029-0.273,9.076c0,0.021-0.002,0.041-0.002,0.06H537.781  L537.781,315.348z M536.916,289.992c0-0.027,0-0.054,0-0.08c-0.117-2.979-0.238-5.93-0.363-8.845h39.836  c-0.123,2.917-0.24,5.866-0.354,8.845c-0.004,0.025-0.004,0.053-0.006,0.08H536.916z M539.211,381.832h34.791l-0.07,9.121  c0,0.006,0,0.01,0,0.015h-34.595c0-0.012,0-0.018,0-0.026L539.211,381.832z M577.989,416.913c0.004-3.008,0.009-6.681,0.019-9.719  c0.014-5.37,0.039-10.784,0.078-16.214l0.069-9.133c0.045-5.396,0.103-10.807,0.172-16.211l0.128-8.919  c0.083-5.429,0.182-10.832,0.29-16.211l0.188-8.888c0.125-5.455,0.26-10.858,0.412-16.211c0.086-3.064,0.178-6.104,0.274-9.131  c0.172-5.483,0.355-10.892,0.562-16.206c0.115-3.003,0.234-5.979,0.361-8.917c0.231-5.528,0.485-11.644,0.76-16.909  c0.094-1.829,0.19-2.884,0.289-3.966c0.049-0.525,0.098-1.056,0.146-1.681h17.789c0.049,0.625,0.099,1.154,0.146,1.682  c0.097,1.081,0.192,2.136,0.289,3.965c0.272,5.266,0.526,11.381,0.764,16.91c0.128,2.938,0.25,5.914,0.365,8.916  c0.208,5.315,0.397,10.725,0.582,16.209c0.098,3.023,0.193,6.062,0.282,9.129c0.16,5.355,0.312,10.761,0.445,16.216l0.211,8.887  c0.125,5.378,0.238,10.786,0.344,16.213l0.168,8.922c0.095,5.405,0.183,10.816,0.261,16.217l0.129,9.129  c0.072,5.435,0.141,10.848,0.2,16.221l0.097,9.699L577.989,416.913L577.989,416.913z M577.727,257.112  c-0.092,1.562-0.181,2.543-0.271,3.502c-0.104,1.127-0.2,2.225-0.301,4.13c-0.002,0.035-0.002,0.072-0.006,0.106h-41.361  c-0.004-0.035-0.004-0.071-0.006-0.106c-0.1-1.905-0.196-3.003-0.301-4.13c-0.089-0.959-0.178-1.94-0.271-3.502  c-0.029-0.492-0.247-0.92-0.557-1.261h43.627C577.977,256.192,577.757,256.62,577.727,257.112z M509.402,257.113  c-0.091,1.566-0.181,2.549-0.271,3.511c-0.101,1.123-0.199,2.221-0.297,4.12c-0.002,0.035-0.007,0.072-0.007,0.106h-41.364  c-0.003-0.035-0.003-0.071-0.007-0.106c-0.1-1.905-0.196-3.003-0.299-4.13c-0.09-0.959-0.179-1.94-0.271-3.502  c-0.029-0.492-0.248-0.92-0.558-1.261h43.628C509.648,256.192,509.432,256.621,509.402,257.113z M441.075,257.112  c-0.092,1.562-0.182,2.543-0.271,3.502c-0.104,1.127-0.2,2.225-0.3,4.13c-0.002,0.035-0.002,0.072-0.007,0.106h-41.362  c-0.002-0.035-0.002-0.071-0.005-0.106c-0.1-1.905-0.199-3.003-0.302-4.13c-0.088-0.959-0.177-1.94-0.271-3.502  c-0.028-0.492-0.246-0.92-0.555-1.261h43.627C441.323,256.192,441.106,256.62,441.075,257.112z M372.752,257.112  c-0.093,1.562-0.183,2.543-0.271,3.502c-0.103,1.127-0.203,2.225-0.302,4.13c-0.002,0.035-0.002,0.072-0.005,0.106h-41.363  c-0.002-0.035-0.002-0.071-0.005-0.106c-0.099-1.905-0.199-3.004-0.302-4.13c-0.088-0.959-0.177-1.94-0.271-3.502  c-0.028-0.492-0.246-0.92-0.556-1.261h43.628C372.998,256.192,372.781,256.62,372.752,257.112z M304.422,257.112  c-0.093,1.562-0.184,2.543-0.271,3.502c-0.103,1.127-0.203,2.225-0.302,4.13c-0.002,0.035-0.002,0.072-0.005,0.106h-41.359  c-0.001-0.035-0.004-0.071-0.005-0.106c-0.099-1.899-0.198-2.998-0.3-4.12c-0.088-0.962-0.179-1.944-0.271-3.511  c-0.028-0.492-0.245-0.921-0.557-1.262h43.623C304.667,256.192,304.45,256.62,304.422,257.112z M236.096,257.113  c-0.092,1.566-0.183,2.549-0.271,3.511c-0.103,1.123-0.201,2.221-0.301,4.12c-0.001,0.035-0.004,0.072-0.005,0.106h-21.223v16.217  h20.462c-0.125,2.917-0.242,5.866-0.355,8.845c-0.001,0.025-0.001,0.053-0.003,0.08h-20.104v16.222h19.541  c-0.094,3.01-0.188,6.027-0.271,9.076c-0.001,0.021-0.001,0.041-0.001,0.06h-19.268v16.223h18.853l-0.187,8.853  c0,0.014,0,0.026-0.001,0.04h-18.665v16.223h18.378c0,0,0,0.002,0,0.005l-0.127,8.894c0,0.008,0,0.019,0,0.025h-18.251v16.223  h18.077l-0.07,9.121c0,0.006,0,0.01,0,0.015h-18.007v16.222h17.93c-0.01,3.275-0.014,6.527-0.014,9.768h-26.325V255.851h30.762  C236.341,256.192,236.124,256.621,236.096,257.113z M266.337,416.956l-0.104-9.768h34.314c-0.009,3.275-0.014,6.527-0.014,9.768  H266.337z M334.663,416.956l-0.104-9.768h34.319c-0.009,3.275-0.014,6.527-0.014,9.768H334.663z M402.992,416.956l-0.104-9.768  h34.308c-0.008,3.275-0.014,6.527-0.014,9.768H402.992z M471.321,416.956l-0.104-9.768h34.312c-0.009,3.275-0.013,6.527-0.013,9.768  H471.321z M539.645,416.956l-0.105-9.768h34.314c-0.008,3.275-0.014,6.527-0.014,9.768H539.645z M607.971,416.956l-0.105-9.768  h15.66v-16.222h-15.859c0-0.012,0-0.018,0-0.026l-0.131-9.108h15.99v-16.223h-16.249c0-0.013,0-0.023,0-0.037l-0.167-8.887h16.416  v-16.223h-16.76c0-0.017,0-0.032,0-0.049l-0.211-8.844h16.971v-16.223h-17.42c0-0.021,0-0.04,0-0.06  c-0.089-3.049-0.184-6.066-0.283-9.076h17.703V289.99h-18.282c0-0.027-0.003-0.054-0.003-0.081c-0.114-2.978-0.233-5.928-0.36-8.843  h18.646v-16.217h-19.412c-0.002-0.035-0.002-0.071-0.004-0.106c-0.102-1.905-0.199-3.003-0.301-4.13  c-0.09-0.959-0.178-1.94-0.271-3.502c-0.029-0.492-0.249-0.92-0.557-1.261h29.392v161.104L607.971,416.956L607.971,416.956z   M171.148,258.619h19.055c2.968,51.223,3.907,114.521,4.352,158.337H167.34C167.354,374.006,168.037,312.297,171.148,258.619z   M169.764,255.866c0-0.004,0.001-0.01,0.001-0.015h0.077C169.815,255.851,169.791,255.865,169.764,255.866z M191.508,255.851h0.077  c0,0.005,0.001,0.011,0.001,0.015C191.559,255.865,191.534,255.851,191.508,255.851z M128.452,419.724h37.503h29.995h9.938h426.483  h11.865h30.002h37.497v9.448H128.452V419.724z M127.408,431.94h585.359l9.662,3.903H119.935L127.408,431.94z M726.346,456.237  H115.634v-17.221h610.712V456.237L726.346,456.237z"/><text x="0" y="610.279" fill="#000000" font-size="5px" font-weight="bold" font-family="'Helvetica Neue', Helvetica, Arial-Unicode, Arial, Sans-serif">Created by JHgram</text><text x="0" y="615.279" fill="#000000" font-size="5px" font-weight="bold" font-family="'Helvetica Neue', Helvetica, Arial-Unicode, Arial, Sans-serif">from the Noun Project</text></svg>