<?xml version="1.0" encoding="utf-8"?>
<svg viewBox="0 0 251.468 255.56" width="251.468" height="255.56" xmlns="http://www.w3.org/2000/svg">
  <g transform="matrix(1, 0, 0, 1, 0, 80.105003)" fill="none" fill-rule="evenodd">
    <mask id="b" fill="#fff">
      <path d="M 0 171.402 L 0 0.217 L 251.468 0.217 L 251.468 171.402 Z"/>
    </mask>
    <path d="M251.468 21.61c0-7.254-.545-14.393-1.583-21.393H1.583C.545 7.217 0 14.357 0 21.61c0 46.6 22.123 88.583 57.502 118.062V78.196h25.065v78.964a189.225 189.225 0 0 0 30.635 14.242V55.916h25.065v115.486a189.225 189.225 0 0 0 30.635-14.242V33.636h25.064v106.036c35.379-29.48 57.502-71.461 57.502-118.062" fill="#233240" mask="url(#b)"/>
  </g>
  <path d="M 57.502 158.301 L 57.502 219.777 C 65.348 226.304 73.733 232.155 82.567 237.265 L 82.567 158.301 L 57.502 158.301 Z M 113.202 136.021 L 113.202 251.507 C 117.332 252.999 121.512 254.351 125.734 255.56 C 129.956 254.351 134.136 252.999 138.267 251.507 L 138.267 136.02 L 113.202 136.02 Z M 168.902 113.742 L 168.902 237.265 C 177.736 232.154 186.121 226.304 193.967 219.777 L 193.967 113.742 L 168.902 113.742 Z" fill="#FFF" fill-rule="evenodd"/>
  <path d="M 170.658 9.565 C 154.655 9.565 139.452 6.145 125.734 0 C 112.017 6.144 96.814 9.565 80.81 9.565 C 66.064 9.565 51.999 6.656 39.148 1.393 C 23.128 19.407 11.332 40.543 5.079 63.612 L 246.389 63.612 C 240.136 40.543 228.341 19.407 212.321 1.393 C 199.47 6.656 185.405 9.565 170.658 9.565" fill="#EB8552" fill-rule="evenodd"/>
</svg>