<svg xmlns="http://www.w3.org/2000/svg" xmlns:xlink="http://www.w3.org/1999/xlink">
    <title>Open States Logo</title>
    <defs>
        <path id="a" d="M0 171.402V.217h251.468v171.185z"/>
    </defs>
    <g fill="none" fill-rule="evenodd">
        <g transform="translate(0 80.105)">
            <mask id="b" fill="#fff">
                <use xlink:href="#a"/>
            </mask>
            <path d="M251.468 21.61c0-7.254-.545-14.393-1.583-21.393H1.583C.545 7.217 0 14.357 0 21.61c0 46.6 22.123 88.583 57.502 118.062V78.196h25.065v78.964a189.225 189.225 0 0 0 30.635 14.242V55.916h25.065v115.486a189.225 189.225 0 0 0 30.635-14.242V33.636h25.064v106.036c35.379-29.48 57.502-71.461 57.502-118.062" fill="#233240" mask="url(#b)"/>
        </g>
        <path d="M57.502 158.301v61.476a180.544 180.544 0 0 0 25.065 17.488v-78.964H57.502zM113.202 136.021v115.486a194.286 194.286 0 0 0 12.532 4.053 194.286 194.286 0 0 0 12.533-4.053V136.02h-25.065zM168.902 113.742v123.523a180.589 180.589 0 0 0 25.065-17.488V113.742h-25.065z" fill="#FFF"/>
        <path d="M170.658 9.565c-16.003 0-31.206-3.42-44.924-9.565-13.717 6.144-28.92 9.565-44.924 9.565-14.746 0-28.811-2.909-41.662-8.172-16.02 18.014-27.816 39.15-34.069 62.219h241.31c-6.253-23.069-18.048-44.205-34.068-62.219-12.851 5.263-26.916 8.172-41.663 8.172" fill="#EB8552"/>
        <path d="M383.496 181.628c6.35 0 12.08-1.277 17.197-3.836 5.114-2.555 9.434-5.908 12.964-10.054 3.527-4.143 6.218-8.905 8.07-14.287a50.444 50.444 0 0 0 2.778-16.536c0-5.465-.926-10.89-2.778-16.271-1.852-5.379-4.589-10.186-8.202-14.42-3.617-4.233-7.937-7.627-12.964-10.186-5.027-2.555-10.715-3.837-17.065-3.837-6.35 0-12.084 1.282-17.198 3.837-5.117 2.559-9.437 5.912-12.964 10.054-3.53 4.146-6.218 8.909-8.07 14.287a50.493 50.493 0 0 0-2.777 16.536c0 5.646.926 11.112 2.777 16.404a44.34 44.34 0 0 0 8.202 14.286c3.613 4.234 7.937 7.632 12.964 10.187 5.027 2.559 10.716 3.836 17.066 3.836m0 20.637c-9.525 0-18.256-1.72-26.193-5.16-7.937-3.439-14.775-8.155-20.504-14.154-5.735-5.995-10.233-12.919-13.494-20.77-3.266-7.846-4.895-16.27-4.895-25.266 0-8.996 1.629-17.417 4.895-25.267 3.261-7.846 7.76-14.77 13.494-20.77 5.729-5.994 12.567-10.714 20.504-14.154 7.937-3.44 16.668-5.16 26.193-5.16 9.347 0 17.99 1.72 25.928 5.16 7.937 3.44 14.816 8.16 20.637 14.155 5.82 5.998 10.36 12.923 13.626 20.769 3.261 7.85 4.894 16.271 4.894 25.267 0 8.995-1.633 17.42-4.894 25.267-3.266 7.85-7.805 14.774-13.626 20.769-5.82 5.999-12.7 10.715-20.637 14.155-7.937 3.44-16.581 5.16-25.928 5.16M488.53 171.839c2.82 2.294 6.879 4.497 12.17 6.614 5.292 2.117 11.906 3.175 19.843 3.175 5.995 0 11.509-1.1 16.536-3.307 5.027-2.203 9.347-5.292 12.965-9.26 3.612-3.969 6.39-8.6 8.333-13.89 1.94-5.292 2.91-11.112 2.91-17.462 0-5.995-.661-11.642-1.983-16.934-1.323-5.291-3.44-9.963-6.35-14.022-2.91-4.055-6.66-7.276-11.245-9.657-4.588-2.38-10.231-3.572-16.933-3.572-8.466 0-15.7 2.34-21.695 7.012-5.998 4.675-10.231 11.508-12.7 20.505-.884 2.823-1.413 5.865-1.587 9.127-.177 3.266-.264 6.66-.264 10.187v31.484zm-23.548 79.637V83.338c0-1.674-.09-4.274-.264-7.804h22.753l.794 17.462c1.232-1.588 2.997-3.527 5.292-5.821 2.29-2.29 5.159-4.498 8.598-6.614 3.44-2.117 7.45-3.924 12.038-5.424 4.585-1.497 9.877-2.249 15.875-2.249 9.525 0 17.768 1.765 24.737 5.291 6.966 3.53 12.742 8.293 17.33 14.288 4.585 5.998 7.979 12.877 10.186 20.636 2.204 7.764 3.308 15.966 3.308 24.606 0 11.112-1.898 20.727-5.69 28.838-3.794 8.115-8.73 14.817-14.815 20.108-6.085 5.292-12.878 9.218-20.372 11.773-7.5 2.555-14.862 3.837-22.092 3.837-8.293 0-14.948-.84-19.975-2.514-5.028-1.674-9.748-3.48-14.155-5.423v57.148h-23.548zM692.78 126.332c-.706-9.525-4.058-17.636-10.053-24.34-5.998-6.702-14.465-10.055-25.4-10.055-5.646 0-10.715.972-15.212 2.91-4.498 1.943-8.334 4.498-11.51 7.673a34.458 34.458 0 0 0-7.407 10.98c-1.765 4.146-2.737 8.425-2.91 12.832h72.493zm21.431 54.238c-1.413 1.587-3.53 3.617-6.35 6.085-2.823 2.472-6.481 4.853-10.98 7.144-4.497 2.294-9.789 4.278-15.874 5.952-6.085 1.675-13.01 2.514-20.769 2.514-9.524 0-18.255-1.588-26.193-4.763-7.937-3.174-14.729-7.672-20.372-13.493-5.647-5.82-10.013-12.786-13.097-20.902-3.088-8.11-4.63-17.106-4.63-26.986 0-8.995 1.497-17.416 4.498-25.267 2.998-7.846 7.23-14.638 12.7-20.372 5.465-5.73 11.947-10.273 19.446-13.626 7.495-3.348 15.742-5.026 24.738-5.026 10.583 0 19.665 2.03 27.251 6.085 7.582 4.06 13.8 9.438 18.653 16.139 4.85 6.705 8.42 14.378 10.715 23.018 2.29 8.644 3.44 17.64 3.44 26.986h-97.1c.174 5.47 1.365 10.497 3.572 15.08 2.203 4.59 5.16 8.558 8.863 11.907 3.704 3.353 7.938 5.998 12.7 7.937 4.762 1.943 9.79 2.91 15.08 2.91 10.406 0 18.96-1.76 25.665-5.29 6.7-3.527 11.55-6.967 14.551-10.32l13.493 14.288zM733.26 198.56V83.34c0-1.675-.091-4.275-.265-7.806h22.754l.793 18.52c1.587-2.116 3.527-4.451 5.82-7.01 2.29-2.555 5.115-4.895 8.467-7.012 3.349-2.116 7.276-3.878 11.774-5.291 4.497-1.41 9.566-2.117 15.212-2.117 16.05 0 27.955 4.676 35.718 14.023 7.76 9.35 11.642 22.05 11.642 38.098v73.817h-23.812v-71.965c0-11.463-2.472-19.884-7.408-25.266-4.94-5.379-11.906-8.07-20.901-8.07-6.88 0-12.613 1.414-17.198 4.233-4.589 2.824-8.247 6.483-10.98 10.98-2.736 4.498-4.721 9.615-5.953 15.346a83.227 83.227 0 0 0-1.852 17.594v57.148H733.26zM874.54 167.605c4.407 4.411 9.698 7.938 15.875 10.583 6.172 2.646 13.315 3.969 21.43 3.969 7.937 0 14.552-1.277 19.843-3.837 5.292-2.554 7.938-6.568 7.938-12.037 0-2.82-.575-5.246-1.72-7.277-1.15-2.025-3.088-3.836-5.82-5.423-2.738-1.587-6.35-3.043-10.849-4.366-4.497-1.323-10.099-2.778-16.8-4.365a103.49 103.49 0 0 1-14.154-4.233c-4.676-1.76-8.864-4.101-12.568-7.011a34.6 34.6 0 0 1-8.995-10.583c-2.295-4.143-3.44-9.128-3.44-14.949 0-5.994 1.364-11.245 4.1-15.742 2.734-4.498 6.392-8.289 10.98-11.377 4.585-3.084 9.744-5.424 15.478-7.011 5.73-1.588 11.683-2.381 17.86-2.381 10.404 0 19.354 1.368 26.854 4.1 7.494 2.737 14.064 6.574 19.71 11.51l-12.964 16.403c-3.704-3.348-8.334-6.172-13.89-8.466-5.556-2.29-12.038-3.44-19.447-3.44-7.586 0-13.67 1.237-18.255 3.704-4.588 2.473-6.88 6.528-6.88 12.17 0 5.292 3.044 9.22 9.129 11.774 6.085 2.56 14.063 4.986 23.943 7.276 5.822 1.414 11.245 3.043 16.272 4.895 5.028 1.852 9.434 4.233 13.229 7.143a32.018 32.018 0 0 1 8.996 10.716c2.203 4.233 3.307 9.351 3.307 15.345 0 6.176-1.414 11.6-4.233 16.271-2.824 4.676-6.615 8.6-11.377 11.774-4.762 3.175-10.232 5.557-16.404 7.144-6.176 1.587-12.612 2.381-19.314 2.381-23.282 0-40.745-6.26-52.385-18.785l14.551-15.875zM991.479 95.377h-22.225V75.533h22.225V35.318h23.811v40.215h35.982v19.844h-35.982v60.587c0 9.88 1.543 16.668 4.63 20.373 3.084 3.704 7.45 5.556 13.097 5.556 4.584 0 8.375-.703 11.376-2.117 2.998-1.41 5.995-3.526 8.995-6.35l10.849 14.552c-5.118 4.94-10.364 8.511-15.743 10.715-5.382 2.203-11.773 3.307-19.181 3.307-13.056 0-22.622-3.526-28.706-10.583-6.086-7.052-9.128-18.078-9.128-33.072V95.377zM1148.633 140.354c-.707-.173-2.075-.397-4.1-.66-2.031-.265-4.366-.485-7.012-.663-2.646-.173-5.47-.351-8.467-.529a151.212 151.212 0 0 0-8.73-.264c-6.706 0-12.13.793-16.272 2.38-4.146 1.588-7.408 3.573-9.789 5.954-2.382 2.381-4.014 5.026-4.895 7.937-.884 2.91-1.323 5.688-1.323 8.334 0 6.705 2.29 11.774 6.88 15.214 4.584 3.438 10.934 5.158 19.048 5.158 4.585 0 8.95-.793 13.097-2.38 4.142-1.588 7.805-3.705 10.98-6.35 3.175-2.646 5.73-5.73 7.672-9.26 1.94-3.527 2.91-7.144 2.91-10.848v-14.023zm.265 43.39c-4.59 6.177-10.629 10.761-18.124 13.758-7.499 2.997-15.213 4.498-23.15 4.498a59.53 59.53 0 0 1-15.213-1.984 39.718 39.718 0 0 1-13.758-6.615c-4.147-3.083-7.5-7.052-10.054-11.906-2.56-4.849-3.836-10.801-3.836-17.858 0-13.229 4.63-23.812 13.89-31.75 9.26-7.936 22.621-11.905 40.083-11.905 2.82 0 5.82.09 8.996.265 3.174.177 6.172.355 8.995.529 2.82.177 5.292.355 7.408.529 2.117.178 3.613.355 4.498.53v-4.499c0-9.169-2.778-15.742-8.334-19.71-5.556-3.969-13.097-5.953-22.621-5.953-9.351 0-16.76 1.281-22.225 3.836-5.469 2.559-10.053 5.16-13.757 7.805l-11.113-16.14c2.117-1.76 4.672-3.526 7.672-5.29 2.998-1.762 6.524-3.395 10.583-4.896 4.057-1.496 8.64-2.732 13.759-3.704 5.113-.967 11.021-1.455 17.726-1.455 15.875 0 28.351 3.837 37.438 11.51 9.082 7.672 13.625 18.565 13.625 32.674v76.33c0 1.679.087 3.75.265 6.218h-22.224l-.53-14.816zM1203.927 95.377h-22.224V75.533h22.224V35.318h23.812v40.215h35.982v19.844h-35.982v60.587c0 9.88 1.542 16.668 4.63 20.373 3.084 3.704 7.45 5.556 13.096 5.556 4.585 0 8.375-.703 11.377-2.117 2.997-1.41 5.994-3.526 8.995-6.35l10.848 14.552c-5.118 4.94-10.363 8.511-15.742 10.715-5.383 2.203-11.774 3.307-19.182 3.307-13.055 0-22.621-3.526-28.706-10.583-6.086-7.052-9.128-18.078-9.128-33.072V95.377z" fill="#233240"/>
        <path d="M1367.167 126.332c-.708-9.525-4.06-17.636-10.054-24.34-5.999-6.702-14.466-10.055-25.4-10.055-5.646 0-10.715.972-15.213 2.91-4.497 1.943-8.334 4.498-11.508 7.673a34.45 34.45 0 0 0-7.409 10.98c-1.765 4.146-2.736 8.425-2.91 12.832h72.494zm21.43 54.238c-1.413 1.587-3.53 3.617-6.35 6.085-2.823 2.472-6.481 4.853-10.98 7.144-4.498 2.294-9.789 4.278-15.874 5.952-6.085 1.675-13.01 2.514-20.77 2.514-9.524 0-18.255-1.588-26.192-4.763-7.937-3.174-14.73-7.672-20.372-13.493-5.647-5.82-10.013-12.786-13.096-20.902-3.089-8.11-4.63-17.106-4.63-26.986 0-8.995 1.496-17.416 4.497-25.267 2.997-7.846 7.23-14.638 12.7-20.372 5.465-5.73 11.947-10.273 19.446-13.626 7.495-3.348 15.742-5.026 24.738-5.026 10.583 0 19.665 2.03 27.25 6.085 7.583 4.06 13.8 9.438 18.654 16.139 4.849 6.705 8.42 14.378 10.715 23.018 2.29 8.644 3.44 17.64 3.44 26.986h-97.1c.174 5.47 1.364 10.497 3.572 15.08 2.204 4.59 5.16 8.558 8.863 11.907 3.704 3.353 7.937 5.998 12.7 7.937 4.762 1.943 9.789 2.91 15.08 2.91 10.405 0 18.96-1.76 25.664-5.29 6.702-3.527 11.55-6.967 14.552-10.32l13.493 14.288zM1410.291 167.605c4.407 4.411 9.698 7.938 15.875 10.583 6.172 2.646 13.315 3.969 21.43 3.969 7.937 0 14.552-1.277 19.843-3.837 5.292-2.554 7.937-6.568 7.937-12.037 0-2.82-.574-5.246-1.719-7.277-1.15-2.025-3.089-3.836-5.82-5.423-2.738-1.587-6.351-3.043-10.849-4.366-4.497-1.323-10.099-2.778-16.8-4.365a103.49 103.49 0 0 1-14.154-4.233c-4.676-1.76-8.864-4.101-12.568-7.011a34.6 34.6 0 0 1-8.996-10.583c-2.294-4.143-3.439-9.128-3.439-14.949 0-5.994 1.364-11.245 4.1-15.742 2.734-4.498 6.392-8.289 10.98-11.377 4.585-3.084 9.744-5.424 15.478-7.011 5.73-1.588 11.683-2.381 17.86-2.381 10.404 0 19.354 1.368 26.854 4.1 7.494 2.737 14.063 6.574 19.71 11.51l-12.964 16.403c-3.704-3.348-8.334-6.172-13.89-8.466-5.556-2.29-12.038-3.44-19.447-3.44-7.586 0-13.67 1.237-18.255 3.704-4.588 2.473-6.88 6.528-6.88 12.17 0 5.292 3.043 9.22 9.129 11.774 6.085 2.56 14.063 4.986 23.943 7.276 5.822 1.414 11.245 3.043 16.272 4.895 5.028 1.852 9.434 4.233 13.229 7.143a32.018 32.018 0 0 1 8.996 10.716c2.203 4.233 3.307 9.351 3.307 15.345 0 6.176-1.414 11.6-4.233 16.271-2.824 4.676-6.615 8.6-11.377 11.774-4.762 3.175-10.232 5.557-16.404 7.144-6.176 1.587-12.612 2.381-19.314 2.381-23.282 0-40.745-6.26-52.386-18.785l14.552-15.875z" fill="#233240"/>
    </g>
</svg>
