<svg xmlns="http://www.w3.org/2000/svg" width="451.47" height="458.81">
    <title>Open States Icon</title>
    <path d="M451.47 182.61c0-13.02-.98-25.84-2.84-38.41H2.84A262.227 262.227 0 0 0 0 182.61c0 83.66 39.72 159.04 103.23 211.96V284.2h45v141.77c17.27 10.01 35.67 18.59 55 25.57V244.2h45v207.33c19.33-6.97 37.73-15.56 55-25.57V204.2h45v190.37c63.52-52.92 103.24-128.29 103.24-211.96z" fill="#233240"/>
    <path d="M306.39 17.17c-28.73 0-56.03-6.14-80.65-17.17-24.63 11.03-51.92 17.17-80.65 17.17-26.48 0-51.73-5.22-74.8-14.67C41.52 34.84 20.34 72.79 9.12 114.2h433.23c-11.23-41.42-32.4-79.36-61.16-111.7-23.08 9.45-48.33 14.67-74.8 14.67z" fill="#eb8552"/>
    <path d="M103.23 284.2v110.37c13.91 11.59 28.97 22.11 45 31.4V284.2h-45zM203.23 244.2v207.33c7.37 2.66 14.87 5.1 22.5 7.28 7.63-2.18 15.13-4.62 22.5-7.28V244.2h-45zM303.23 204.2v221.77c16.03-9.29 31.09-19.8 45-31.4V204.2h-45z" fill="#fff"/>
</svg>