<?xml version="1.0" standalone="no"?>
<!DOCTYPE svg PUBLIC "-//W3C//DTD SVG 20010904//EN"
 "http://www.w3.org/TR/2001/REC-SVG-20010904/DTD/svg10.dtd">
<svg version="1.0" xmlns="http://www.w3.org/2000/svg"
 width="918.000000pt" height="918.000000pt" viewBox="0 0 918.000000 918.000000"
 preserveAspectRatio="xMidYMid meet">
<metadata>
Created by potrace 1.11, written by Peter Selinger 2001-2013
</metadata>
<g transform="translate(0.000000,918.000000) scale(0.100000,-0.100000)"
fill="#000000" stroke="none">
<path d="M4555 9166 c-11 -6 -22 -13 -25 -16 -3 -3 -12 -6 -20 -8 -8 -1 -37
-12 -65 -23 -71 -30 -122 -50 -140 -54 -5 -2 -44 -14 -85 -28 -92 -31 -180
-58 -200 -62 -8 -2 -44 -11 -80 -20 -36 -9 -74 -19 -85 -21 -11 -2 -31 -6 -45
-9 -56 -12 -126 -27 -145 -30 -75 -12 -165 -24 -230 -30 -22 -2 -40 -5 -40 -5
0 -3 -140 -13 -187 -14 -27 0 -48 -4 -48 -9 0 -4 -8 -3 -19 2 -10 6 -21 8 -24
4 -12 -11 -445 -2 -516 12 -13 2 -51 7 -85 10 -33 3 -88 10 -121 15 -63 12
-73 13 -145 25 -25 3 -92 18 -150 32 -58 14 -109 26 -115 27 -5 1 -16 5 -22 9
-7 5 -13 6 -13 3 0 -3 -12 -1 -27 5 -16 6 -38 13 -51 15 -23 5 -218 67 -257
83 -11 5 -38 16 -60 26 -63 27 -70 26 -104 -15 -18 -22 -44 -53 -59 -69 -36
-41 -140 -170 -193 -241 -10 -14 -31 -41 -46 -61 -16 -20 -35 -47 -43 -59 -8
-12 -21 -28 -27 -36 -7 -7 -13 -15 -13 -19 0 -6 -54 -81 -80 -112 -6 -7 -7
-13 -3 -13 4 0 3 -4 -3 -8 -8 -6 -67 -94 -117 -177 -7 -11 -19 -31 -28 -45 -9
-14 -31 -52 -49 -85 -18 -33 -41 -73 -50 -90 -9 -16 -40 -77 -70 -135 -29 -58
-56 -112 -61 -120 -21 -37 -102 -223 -159 -365 -50 -123 -88 -225 -95 -255 -9
-36 -19 -67 -24 -75 -3 -5 -6 -14 -7 -20 -1 -5 -11 -39 -23 -74 -11 -36 -18
-68 -15 -72 2 -4 0 -10 -6 -14 -5 -3 -10 -16 -10 -28 l0 -22 4324 0 c2378 0
4327 2 4329 5 3 3 -1 23 -8 45 -7 22 -21 67 -31 100 -9 33 -22 66 -27 73 -5 6
-7 12 -4 12 4 0 -10 44 -29 98 -20 53 -37 102 -38 107 -4 15 -15 42 -53 140
-35 88 -48 118 -93 220 -26 59 -159 325 -187 375 -52 93 -100 174 -115 198
-10 15 -21 34 -25 42 -9 19 -96 153 -104 160 -3 3 -12 16 -19 30 -13 24 -208
300 -220 310 -3 3 -41 50 -85 105 -77 97 -90 113 -154 183 l-30 33 -38 -17
c-46 -19 -258 -94 -281 -99 -9 -2 -46 -12 -82 -23 -63 -20 -213 -58 -261 -67
-13 -3 -37 -8 -54 -12 -16 -4 -38 -8 -47 -9 -10 -1 -19 -2 -20 -3 -2 -2 -16
-4 -33 -6 -16 -2 -43 -6 -60 -9 -53 -10 -102 -17 -142 -21 -21 -2 -60 -6 -88
-9 -27 -4 -87 -8 -133 -10 -46 -2 -86 -6 -89 -9 -3 -4 -14 -2 -24 3 -10 6 -20
7 -22 3 -6 -9 -230 -8 -252 1 -8 3 -15 1 -15 -5 0 -6 -5 -7 -10 -4 -6 3 -47 8
-93 11 -85 5 -151 11 -202 17 -16 3 -57 7 -90 11 -33 4 -91 14 -128 21 -38 8
-72 14 -75 13 -9 -2 -117 21 -157 33 -16 4 -75 20 -130 35 -55 14 -107 28
-115 31 -8 4 -19 5 -24 4 -4 -1 -13 2 -20 7 -6 5 -23 12 -38 16 -15 3 -40 11
-55 18 -15 6 -36 13 -46 15 -10 1 -31 10 -47 18 -16 8 -33 15 -38 15 -5 0 -30
9 -56 20 -25 12 -48 21 -51 20 -3 0 -20 7 -38 16 -41 22 -67 24 -92 10z"/>
<path d="M142 6290 c-4 -3 -8 -16 -9 -30 -4 -35 -11 -85 -13 -85 0 0 -3 -20
-5 -45 -3 -25 -7 -67 -10 -95 -27 -259 -27 -778 1 -1025 2 -25 7 -65 10 -90 3
-25 6 -55 7 -67 2 -12 6 -25 9 -28 4 -4 4 -13 1 -20 -2 -8 0 -38 6 -67 6 -29
13 -69 16 -88 2 -19 7 -48 10 -65 17 -92 27 -144 35 -175 5 -19 21 -80 35
-135 26 -104 35 -141 39 -162 1 -7 5 -16 9 -19 4 -4 7 -15 7 -25 0 -17 110
-352 129 -394 5 -11 26 -63 46 -115 21 -52 52 -126 70 -165 18 -38 43 -92 55
-120 26 -61 20 -49 110 -220 40 -77 81 -152 91 -167 11 -14 19 -31 19 -37 0
-6 4 -11 9 -11 5 0 11 -8 14 -17 4 -10 16 -34 29 -55 13 -20 36 -58 52 -85 78
-128 317 -463 338 -471 4 -2 8 -9 8 -15 0 -7 19 -33 43 -59 23 -25 71 -82 107
-125 121 -147 436 -468 575 -588 91 -78 118 -102 169 -147 22 -21 44 -38 47
-38 3 0 25 -18 50 -40 24 -22 47 -40 50 -40 3 0 19 -12 35 -26 16 -14 47 -38
69 -52 22 -15 46 -33 54 -40 8 -7 26 -21 40 -30 31 -20 36 -24 77 -57 18 -14
36 -25 42 -25 6 0 12 -3 14 -7 4 -11 282 -193 294 -193 3 0 25 -13 49 -30 24
-16 48 -30 54 -30 6 0 11 -4 11 -10 0 -5 4 -10 10 -10 5 0 69 -33 142 -73 73
-41 198 -106 278 -144 144 -70 494 -224 517 -227 7 -1 16 -5 19 -9 4 -4 13 -7
19 -7 7 0 30 -8 51 -17 22 -9 42 -18 47 -19 4 -1 8 -2 10 -3 4 -3 232 -81 247
-86 8 -2 59 -17 114 -34 l99 -31 66 20 c36 10 69 19 74 20 4 0 23 6 42 14 20
9 39 16 43 17 18 4 31 8 91 29 35 12 69 23 75 25 6 1 22 6 36 12 14 6 50 19
80 31 30 11 69 26 85 33 17 6 35 13 41 14 64 14 552 241 734 341 36 20 88 48
115 62 28 15 73 41 102 59 29 18 57 33 63 33 5 0 10 4 10 8 0 5 18 17 40 27
22 10 40 22 40 27 0 4 4 8 9 8 15 0 111 62 111 71 0 5 6 9 14 9 8 0 21 6 28
12 8 7 21 18 30 23 89 54 418 299 426 318 2 4 10 7 18 7 8 0 14 4 14 9 0 5 15
19 34 32 19 13 32 27 30 31 -3 4 0 8 7 8 6 0 31 17 53 38 23 20 71 62 106 92
145 124 461 450 602 621 20 24 48 58 62 74 15 17 66 82 114 145 47 63 90 116
94 118 5 2 8 10 8 17 0 7 3 15 7 17 5 1 48 64 97 138 49 74 98 147 108 162 10
15 18 30 18 32 0 3 15 30 34 59 74 116 278 511 269 521 -4 3 -1 6 5 6 7 0 11
3 10 8 -1 4 10 32 24 62 40 85 132 325 164 425 16 50 33 93 37 96 5 3 7 8 6
10 -2 2 6 36 18 74 26 86 85 311 89 339 2 12 7 36 13 55 6 19 9 37 6 39 -2 3
0 12 5 22 5 9 11 32 14 51 2 19 11 75 20 124 9 50 18 108 21 130 3 22 7 53 10
69 3 16 8 54 11 85 3 31 7 70 8 86 22 190 29 722 12 895 -5 47 -10 103 -11
125 -2 22 -9 83 -15 135 -7 52 -13 101 -13 108 0 6 -5 13 -11 13 -36 4 -8899
3 -8904 -1z"/>
</g>
</svg>
