<?xml version="1.0" standalone="no"?>
<!DOCTYPE svg PUBLIC "-//W3C//DTD SVG 20010904//EN"
 "http://www.w3.org/TR/2001/REC-SVG-20010904/DTD/svg10.dtd">
<svg version="1.0" xmlns="http://www.w3.org/2000/svg"
 width="904.000000pt" height="904.000000pt" viewBox="0 0 904.000000 904.000000"
 preserveAspectRatio="xMidYMid meet">
<metadata>
Created by potrace 1.11, written by Peter Selinger 2001-2013
</metadata>
<g transform="translate(0.000000,904.000000) scale(0.100000,-0.100000)"
fill="#000000" stroke="none">
<path d="M4439 8996 c-155 -69 -453 -167 -616 -202 -242 -52 -330 -67 -517
-84 -229 -22 -535 -26 -701 -10 -55 6 -148 14 -206 20 -238 21 -722 145 -956
245 l-31 14 -79 -92 c-107 -126 -202 -245 -274 -345 -79 -109 -246 -361 -292
-442 -233 -405 -390 -752 -504 -1115 -14 -44 -35 -113 -48 -152 l-24 -73 4329
0 4329 0 -24 73 c-13 39 -34 108 -48 152 -102 324 -265 697 -444 1010 -69 121
-79 139 -118 200 -153 242 -328 482 -495 677 l-91 107 -32 -14 c-234 -100
-718 -224 -956 -245 -58 -6 -151 -14 -206 -20 -401 -39 -1026 24 -1389 140
-51 17 -98 30 -105 30 -17 0 -220 75 -328 121 -50 21 -93 39 -95 39 -1 0 -37
-16 -79 -34z"/>
<path d="M56 6142 c-2 -4 -15 -102 -27 -217 -19 -175 -23 -265 -23 -540 0
-417 21 -645 95 -1019 88 -446 239 -887 454 -1321 275 -558 604 -1018 1062
-1485 158 -161 415 -398 443 -408 6 -2 10 404 10 1097 l0 1101 450 0 450 0 0
-1419 0 -1419 110 -61 c251 -140 564 -287 835 -391 l150 -58 3 2074 2 2074
450 0 450 0 2 -2074 3 -2074 160 63 c286 111 569 244 828 387 l107 60 0 2219
0 2219 450 0 450 0 0 -1901 c0 -1200 4 -1899 10 -1897 27 9 282 244 434 398
465 475 794 934 1071 1495 296 599 462 1175 532 1845 27 258 24 762 -6 1035
-12 115 -25 213 -27 217 -7 10 -8921 10 -8928 0z"/>
</g>
</svg>
